<svg width="1500" height="1500" xmlns="http://www.w3.org/2000/svg"><g stroke-width="0.5" fill="none">
<path id="gear1" stroke="black" d="M1175.17 643.67 L 1185.71 650.00 1175.17 656.33 1174.75 669.86 1184.89 676.82 1173.97 682.49 1172.72 695.97 1182.41 703.54 1171.17 708.53 1169.09 721.90 1178.29 730.06 1166.77 734.35 1163.87 747.57 1172.55 756.28 1160.78 759.84 1157.08 772.86 1165.21 782.09 1153.24 784.92 1148.75 797.69 1156.29 807.40 1144.17 809.49 1138.90 821.95 1145.83 832.11 1133.61 833.45 1127.57 845.57 1133.87 856.13 1121.58 856.72 1114.82 868.44 1120.45 879.37 1108.15 879.20 1100.68 890.49 1105.63 901.74 1093.36 900.82 1085.21 911.62 1089.45 923.16 1077.27 921.48 1068.47 931.76 1071.99 943.54 1059.94 941.11 1050.52 950.83 1053.31 962.80 1041.43 959.64 1031.43 968.76 1033.48 980.88 1021.82 976.99 1011.27 985.48 1012.57 997.71 1001.17 993.11 990.13 1000.93 990.67 1013.21 979.57 1007.92 968.07 1015.04 967.86 1027.34 957.10 1021.37 945.18 1027.77 944.21 1040.03 933.85 1033.42 921.55 1039.07 919.83 1051.25 909.90 1044.01 897.28 1048.90 894.81 1060.94 885.34 1053.10 872.44 1057.21 869.24 1069.08 860.26 1060.67 847.14 1063.97 843.21 1075.62 834.77 1066.68 821.47 1069.17 816.83 1080.56 808.96 1071.11 795.53 1072.77 790.20 1083.85 782.93 1073.94 769.42 1074.77 763.42 1085.50 756.77 1075.16 743.23 1075.16 736.58 1085.50 730.58 1074.77 717.07 1073.94 709.80 1083.85 704.47 1072.77 691.04 1071.11 683.17 1080.56 678.53 1069.17 665.23 1066.68 656.79 1075.62 652.86 1063.97 639.74 1060.67 630.76 1069.08 627.56 1057.21 614.66 1053.10 605.19 1060.94 602.72 1048.90 590.10 1044.01 580.17 1051.25 578.45 1039.07 566.15 1033.42 555.79 1040.03 554.82 1027.77 542.90 1021.37 532.14 1027.34 531.93 1015.04 520.43 1007.92 509.33 1013.21 509.87 1000.93 498.83 993.11 487.43 997.71 488.73 985.48 478.18 976.99 466.52 980.88 468.57 968.76 458.57 959.64 446.69 962.80 449.48 950.83 440.06 941.11 428.01 943.54 431.53 931.76 422.73 921.48 410.55 923.16 414.79 911.62 406.64 900.82 394.37 901.74 399.32 890.49 391.85 879.20 379.55 879.37 385.18 868.44 378.42 856.72 366.13 856.13 372.43 845.57 366.39 833.45 354.17 832.11 361.10 821.95 355.83 809.49 343.71 807.40 351.25 797.69 346.76 784.92 334.79 782.09 342.92 772.86 339.22 759.84 327.45 756.28 336.13 747.57 333.23 734.35 321.71 730.06 330.91 721.90 328.83 708.53 317.59 703.54 327.28 695.97 326.03 682.49 315.11 676.82 325.25 669.86 324.83 656.33 314.29 650.00 324.83 643.67 325.25 630.14 315.11 623.18 326.03 617.51 327.28 604.03 317.59 596.46 328.83 591.47 330.91 578.10 321.71 569.94 333.23 565.65 336.13 552.43 327.45 543.72 339.22 540.16 342.92 527.14 334.79 517.91 346.76 515.08 351.25 502.31 343.71 492.60 355.83 490.51 361.10 478.05 354.17 467.89 366.39 466.55 372.43 454.43 366.13 443.87 378.42 443.28 385.18 431.56 379.55 420.63 391.85 420.80 399.32 409.51 394.37 398.26 406.64 399.18 414.79 388.38 410.55 376.84 422.73 378.52 431.53 368.24 428.01 356.46 440.06 358.89 449.48 349.17 446.69 337.20 458.57 340.36 468.57 331.24 466.52 319.12 478.18 323.01 488.73 314.52 487.43 302.29 498.83 306.89 509.87 299.07 509.33 286.79 520.43 292.08 531.93 284.96 532.14 272.66 542.90 278.63 554.82 272.23 555.79 259.97 566.15 266.58 578.45 260.93 580.17 248.75 590.10 255.99 602.72 251.10 605.19 239.06 614.66 246.90 627.56 242.79 630.76 230.92 639.74 239.33 652.86 236.03 656.79 224.38 665.23 233.32 678.53 230.83 683.17 219.44 691.04 228.89 704.47 227.23 709.80 216.15 717.07 226.06 730.58 225.23 736.58 214.50 743.23 224.84 756.77 224.84 763.42 214.50 769.42 225.23 782.93 226.06 790.20 216.15 795.53 227.23 808.96 228.89 816.83 219.44 821.47 230.83 834.77 233.32 843.21 224.38 847.14 236.03 860.26 239.33 869.24 230.92 872.44 242.79 885.34 246.90 894.81 239.06 897.28 251.10 909.90 255.99 919.83 248.75 921.55 260.93 933.85 266.58 944.21 259.97 945.18 272.23 957.10 278.63 967.86 272.66 968.07 284.96 979.57 292.08 990.67 286.79 990.13 299.07 1001.17 306.89 1012.57 302.29 1011.27 314.52 1021.82 323.01 1033.48 319.12 1031.43 331.24 1041.43 340.36 1053.31 337.20 1050.52 349.17 1059.94 358.89 1071.99 356.46 1068.47 368.24 1077.27 378.52 1089.45 376.84 1085.21 388.38 1093.36 399.18 1105.63 398.26 1100.68 409.51 1108.15 420.80 1120.45 420.63 1114.82 431.56 1121.58 443.28 1133.87 443.87 1127.57 454.43 1133.61 466.55 1145.83 467.89 1138.90 478.05 1144.17 490.51 1156.29 492.60 1148.75 502.31 1153.24 515.08 1165.21 517.91 1157.08 527.14 1160.78 540.16 1172.55 543.72 1163.87 552.43 1166.77 565.65 1178.29 569.94 1169.09 578.10 1171.17 591.47 1182.41 596.46 1172.72 604.03 1173.97 617.51 1184.89 623.18 1174.75 630.14 Z"/>

<line stroke="black" x1="1185.711617" y1="650.000000" x2="1248.966205" y2="687.979136"/>
<line stroke="black" x1="1175.169186" y1="643.670144" x2="1111.914598" y2="605.691008"/>
<line stroke="black" x1="1175.169186" y1="656.329856" x2="1111.914598" y2="694.308992"/>
<line stroke="black" x1="1185.711617" y1="650.000000" x2="1248.966205" y2="612.020864"/>

<circle id="0" fill="black" cx="750.00000000000000" cy="650.00000000000000" r="1.6"/>
</g></svg>