<svg width="3000" height="3000" xmlns="http://www.w3.org/2000/svg"><g  transform="scale(2.5)" stroke-width="0.5" fill="none"><path id="gear0" stroke="red" d="M1174.47 624.77 L 1185.28 630.63 1175.03 637.42 1175.22 650.95 1185.65 657.46 1175.00 663.61 1174.35 677.13 1184.36 684.27 1173.35 689.75 1171.88 703.20 1181.43 710.94 1170.10 715.73 1167.80 729.07 1176.86 737.39 1165.26 741.47 1162.14 754.64 1170.67 763.50 1158.84 766.86 1154.92 779.81 1162.88 789.18 1150.87 791.81 1146.16 804.49 1153.53 814.33 1141.38 816.22 1135.90 828.59 1142.65 838.86 1130.41 840.00 1124.17 852.01 1130.28 862.68 1117.99 863.06 1111.02 874.66 1116.47 885.68 1104.18 885.30 1096.51 896.46 1101.26 907.80 1089.02 906.66 1080.68 917.32 1084.73 928.93 1072.58 927.05 1063.60 937.17 1066.92 949.01 1054.91 946.38 1045.32 955.93 1047.91 967.95 1036.08 964.59 1025.93 973.53 1027.77 985.69 1016.18 981.60 1005.49 989.90 1006.58 1002.15 995.26 997.36 984.08 1004.99 984.42 1017.28 973.41 1011.80 961.78 1018.72 961.36 1031.01 950.71 1024.86 938.68 1031.06 937.50 1043.30 927.25 1036.51 914.87 1041.95 912.94 1054.10 903.12 1046.69 890.42 1051.36 887.75 1063.36 878.41 1055.36 865.45 1059.24 862.04 1071.06 853.22 1062.50 840.04 1065.57 835.91 1077.16 827.63 1068.07 814.28 1070.33 809.45 1081.64 801.74 1072.06 788.29 1073.49 782.77 1084.48 775.66 1074.44 762.14 1075.04 755.96 1085.67 749.48 1075.22 735.95 1074.98 729.13 1085.21 723.31 1074.38 709.82 1073.31 702.37 1083.10 697.23 1071.93 683.83 1070.04 675.80 1079.35 671.36 1067.88 658.10 1065.17 649.51 1073.97 645.78 1062.25 632.72 1058.72 623.60 1066.98 620.60 1055.05 607.78 1050.73 598.17 1058.40 595.91 1046.32 583.38 1041.21 573.32 1048.28 571.81 1036.08 559.61 1030.21 549.14 1036.65 548.38 1024.38 536.57 1017.77 525.71 1023.55 525.71 1011.25 514.33 1003.93 503.14 1009.04 503.90 996.76 492.99 988.75 481.51 993.16 483.02 980.95 472.62 972.29 460.89 975.98 463.15 963.89 453.31 954.60 441.37 957.56 444.37 945.64 435.12 935.76 423.03 937.98 426.75 926.26 418.13 915.84 405.92 917.30 410.36 905.84 402.39 894.90 390.11 895.62 395.25 884.44 387.97 873.04 375.68 872.99 381.49 862.16 374.93 850.33 362.66 849.53 369.13 839.07 363.31 826.86 351.11 825.30 358.22 815.27 353.15 802.72 341.07 800.42 348.78 790.84 344.51 778.00 332.59 774.96 340.88 765.87 337.40 752.79 325.69 749.02 334.52 740.46 331.85 727.20 320.40 722.71 329.74 714.71 327.89 701.31 316.74 696.13 326.55 688.72 325.53 675.23 314.72 669.37 324.97 662.58 324.78 649.05 314.35 642.54 325.00 636.39 325.65 622.87 315.64 615.73 326.65 610.25 328.12 596.80 318.57 589.06 329.90 584.27 332.20 570.93 323.14 562.61 334.74 558.53 337.86 545.36 329.33 536.50 341.16 533.14 345.08 520.19 337.12 510.82 349.13 508.19 353.84 495.51 346.47 485.67 358.62 483.78 364.10 471.41 357.35 461.14 369.59 460.00 375.83 447.99 369.72 437.32 382.01 436.94 388.98 425.34 383.53 414.32 395.82 414.70 403.49 403.54 398.74 392.20 410.98 393.34 419.32 382.68 415.27 371.07 427.42 372.95 436.40 362.83 433.08 350.99 445.09 353.62 454.68 344.07 452.09 332.05 463.92 335.41 474.07 326.47 472.23 314.31 483.82 318.40 494.51 310.10 493.42 297.85 504.74 302.64 515.92 295.01 515.58 282.72 526.59 288.20 538.22 281.28 538.64 268.99 549.29 275.14 561.32 268.94 562.50 256.70 572.75 263.49 585.13 258.05 587.06 245.90 596.88 253.31 609.58 248.64 612.25 236.64 621.59 244.64 634.55 240.76 637.96 228.94 646.78 237.50 659.96 234.43 664.09 222.84 672.37 231.93 685.72 229.67 690.55 218.36 698.26 227.94 711.71 226.51 717.23 215.52 724.34 225.56 737.86 224.96 744.04 214.33 750.52 224.78 764.05 225.02 770.87 214.79 776.69 225.62 790.18 226.69 797.63 216.90 802.77 228.07 816.17 229.96 824.20 220.65 828.64 232.12 841.90 234.83 850.49 226.03 854.22 237.75 867.28 241.28 876.40 233.02 879.40 244.95 892.22 249.27 901.83 241.60 904.09 253.68 916.62 258.79 926.68 251.72 928.19 263.92 940.39 269.79 950.86 263.35 951.62 275.62 963.43 282.23 974.29 276.45 974.29 288.75 985.67 296.07 996.86 290.96 996.10 303.24 1007.01 311.25 1018.49 306.84 1016.98 319.05 1027.38 327.71 1039.11 324.02 1036.85 336.11 1046.69 345.40 1058.63 342.44 1055.63 354.36 1064.88 364.24 1076.97 362.02 1073.25 373.74 1081.87 384.16 1094.08 382.70 1089.64 394.16 1097.61 405.10 1109.89 404.38 1104.75 415.56 1112.03 426.96 1124.32 427.01 1118.51 437.84 1125.07 449.67 1137.34 450.47 1130.87 460.93 1136.69 473.14 1148.89 474.70 1141.78 484.73 1146.85 497.28 1158.93 499.58 1151.22 509.16 1155.49 522.00 1167.41 525.04 1159.12 534.13 1162.60 547.21 1174.31 550.98 1165.48 559.54 1168.15 572.80 1179.60 577.29 1170.26 585.29 1172.11 598.69 1183.26 603.87 1173.45 611.28 Z"/>
<circle id="0" fill="black" cx="1174.46739301887851" cy="624.77429862846191" r="0.8"/>
<circle id="1" fill="black" cx="1185.28081236632170" cy="630.62920233331454" r="0.8"/>
<circle id="2" fill="black" cx="1175.03021647905462" cy="637.42149350291982" r="0.8"/>
<circle id="3" fill="black" cx="1175.21523494677399" cy="650.95274082989579" r="0.8"/>
<circle id="4" fill="black" cx="1185.64771161508884" cy="657.46222360057902" r="0.8"/>
<circle id="5" fill="black" cx="1174.99841813934290" cy="663.61059605548030" r="0.8"/>
<circle id="6" fill="black" cx="1174.35008984128012" cy="677.12756895902351" r="0.8"/>
<circle id="7" fill="black" cx="1184.36204987307042" cy="684.26693809772155" r="0.8"/>
<circle id="8" fill="black" cx="1173.35445522665782" cy="689.74806895522033" r="0.8"/>
<circle id="9" fill="black" cx="1171.87523949411684" cy="703.19949292719434" r="0.8"/>
<circle id="10" fill="black" cx="1181.42870409562602" cy="710.94166636134514" r="0.8"/>
<circle id="11" fill="black" cx="1170.10456385542716" cy="715.73476381466980" r="0.8"/>
<circle id="12" fill="black" cx="1167.80007186035141" cy="729.06961299648742" r="0.8"/>
<circle id="13" fill="black" cx="1176.85880146803652" cy="737.38522201036039" r="0.8"/>
<circle id="14" fill="black" cx="1165.26107197679403" cy="741.47210419911028" r="0.8"/>
<circle id="15" fill="black" cx="1162.14004544666909" cy="754.63979494029365" r="0.8"/>
<circle id="16" fill="black" cx="1170.66967719627883" cy="763.49729558058743" r="0.8"/>
<circle id="17" fill="black" cx="1158.84235261447589" cy="766.86245956075766" r="0.8"/>
<circle id="18" fill="black" cx="1154.91663067196259" cy="779.81304230005014" r="0.8"/>
<circle id="19" fill="black" cx="1162.88480874865081" cy="789.17883503291262" r="0.8"/>
<circle id="20" fill="black" cx="1150.87275416959119" cy="791.80951558487050" r="0.8"/>
<circle id="21" fill="black" cx="1146.15722842267905" cy="804.49386432603183" r="0.8"/>
<circle id="22" fill="black" cx="1153.53372679769359" cy="814.33242149160071" r="0.8"/>
<circle id="23" fill="black" cx="1141.38250805883558" cy="816.21863954293633" r="0.8"/>
<circle id="24" fill="black" cx="1135.89506611187267" cy="828.58863820647321" r="0.8"/>
<circle id="25" fill="black" cx="1142.65190320023498" cy="838.86263878745854" r="0.8"/>
<circle id="26" fill="black" cx="1130.40761403636247" cy="839.99723926702472" r="0.8"/>
<circle id="27" fill="black" cx="1124.16907163624433" cy="852.00596421096111" r="0.8"/>
<circle id="28" fill="black" cx="1130.28061644048648" cy="862.67643540404799" r="0.8"/>
<circle id="29" fill="black" cx="1117.98970363438434" cy="863.05511438359554" r="0.8"/>
<circle id="30" fill="black" cx="1111.02372570929742" cy="874.65701240091994" r="0.8"/>
<circle id="31" fill="black" cx="1116.46679504661461" cy="885.68347745395999" r="0.8"/>
<circle id="32" fill="black" cx="1104.17588224051224" cy="885.30479847441234" r="0.8"/>
<circle id="33" fill="black" cx="1096.50889313075413" cy="896.45585959199389" r="0.8"/>
<circle id="34" fill="black" cx="1101.26283957475766" cy="907.79649134619103" r="0.8"/>
<circle id="35" fill="black" cx="1089.01855041088515" cy="906.66189086662484" r="0.8"/>
<circle id="36" fill="black" cx="1080.67963363229160" cy="917.31981529011750" r="0.8"/>
<circle id="37" fill="black" cx="1084.72642383576931" cy="928.93159484476769" r="0.8"/>
<circle id="38" fill="black" cx="1072.57520509691130" cy="927.04537679343207" r="0.8"/>
<circle id="39" fill="black" cx="1063.59599301711864" cy="937.16973536488217" r="0.8"/>
<circle id="40" fill="black" cx="1066.92027611869821" cy="949.00861526279937" r="0.8"/>
<circle id="41" fill="black" cx="1054.90822153963859" cy="946.37793471084137" r="0.8"/>
<circle id="42" fill="black" cx="1045.32277538567814" cy="955.93032227033223" r="0.8"/>
<circle id="43" fill="black" cx="1047.91194124090225" cy="967.95139358494043" r="0.8"/>
<circle id="44" fill="black" cx="1036.08461665909931" cy="964.58622960477021" r="0.8"/>
<circle id="45" fill="black" cx="1025.92929731149707" cy="973.53041067434856" r="0.8"/>
<circle id="46" fill="black" cx="1027.77352432742055" cy="985.68807336462305" r="0.8"/>
<circle id="47" fill="black" cx="1016.17579483617806" cy="981.60119117587305" r="0.8"/>
<circle id="48" fill="black" cx="1005.48912489967915" cy="989.90323741312795" r="0.8"/>
<circle id="49" fill="black" cx="1006.58141729153499" cy="1002.15137330017023" r="0.8"/>
<circle id="50" fill="black" cx="995.25727705133636" cy="997.35827584684534" r="0.8"/>
<circle id="51" fill="black" cx="984.07979472547129" cy="1004.98669474673306" r="0.8"/>
<circle id="52" fill="black" cx="984.41600905407881" cy="1017.27884245581936" r="0.8"/>
<circle id="53" fill="black" cx="973.40841440766633" cy="1011.79771159832046" r="0.8"/>
<circle id="54" fill="black" cx="961.78251971147461" cy="1018.72356595502276" r="0.8"/>
<circle id="55" fill="black" cx="961.36138060072324" cy="1031.01309715951356" r="0.8"/>
<circle id="56" fill="black" cx="950.71208712497719" cy="1024.86472470461217" r="0.8"/>
<circle id="57" fill="black" cx="938.68188105921149" cy="1031.06174238026915" r="0.8"/>
<circle id="58" fill="black" cx="937.50498603399956" cy="1043.30203867882301" r="0.8"/>
<circle id="59" fill="black" cx="927.25439014673248" cy="1036.50974750921750" r="0.8"/>
<circle id="60" fill="black" cx="914.86550740365760" cy="1041.95442109314627" r="0.8"/>
<circle id="61" fill="black" cx="912.93732082993245" cy="1054.09905084928414" r="0.8"/>
<circle id="62" fill="black" cx="903.12430655243941" cy="1046.68860645191671" r="0.8"/>
<circle id="63" fill="black" cx="890.42374240781339" cy="1051.36028243227202" r="0.8"/>
<circle id="64" fill="black" cx="887.75157855770317" cy="1063.36317690547799" r="0.8"/>
<circle id="65" fill="black" cx="878.41337001435045" cy="1055.36268963421708" r="0.8"/>
<circle id="66" fill="black" cx="865.44930205824585" cy="1059.24364674383514" r="0.8"/>
<circle id="67" fill="black" cx="862.04329736451950" cy="1071.05927484407039" r="0.8"/>
<circle id="68" fill="black" cx="853.21531757889022" cy="1062.49909328751005" r="0.8"/>
<circle id="69" fill="black" cx="840.03692296159397" cy="1065.57460972674562" r="0.8"/>
<circle id="70" fill="black" cx="835.90999756669942" cy="1077.15815072946725" r="0.8"/>
<circle id="71" fill="black" cx="827.62573408993251" cy="1068.07074658833540" r="0.8"/>
<circle id="72" fill="black" cx="814.28300297616954" cy="1070.32915586989066" r="0.8"/>
<circle id="73" fill="black" cx="809.45081172170876" cy="1081.63666943641238" r="0.8"/>
<circle id="74" fill="black" cx="801.74168960274631" cy="1072.05651434728748" r="0.8"/>
<circle id="75" fill="black" cx="788.28523554186245" cy="1073.48924955119355" r="0.8"/>
<circle id="76" fill="black" cx="782.76610858441404" cy="1084.47784240944111" r="0.8"/>
<circle id="77" fill="black" cx="775.66137116402751" cy="1074.44127718202799" r="0.8"/>
<circle id="78" fill="black" cx="762.14223909545979" cy="1075.04290345290747" r="0.8"/>
<circle id="79" fill="black" cx="755.95711237401758" cy="1085.67089210629138" r="0.8"/>
<circle id="80" fill="black" cx="749.48371035479909" cy="1075.21598887028131" r="0.8"/>
<circle id="81" fill="black" cx="735.95318297713652" cy="1074.98422403361656" r="0.8"/>
<circle id="82" fill="black" cx="729.12551879592104" cy="1085.21129288081352" r="0.8"/>
<circle id="83" fill="black" cx="723.30800800903739" cy="1074.37771066525579" r="0.8"/>
<circle id="84" fill="black" cx="709.81741124717973" cy="1073.31343388445725" r="0.8"/>
<circle id="85" fill="black" cx="702.37310927508224" cy="1083.10078815029351" r="0.8"/>
<circle id="86" fill="black" cx="697.23355753159638" cy="1071.92962244331420" r="0.8"/>
<circle id="87" fill="black" cx="683.83406583994019" cy="1070.03687088475431" r="0.8"/>
<circle id="88" fill="black" cx="675.80136486420724" cy="1079.34738378207703" r="0.8"/>
<circle id="89" fill="black" cx="671.35926824431169" cy="1067.88101064161674" r="0.8"/>
<circle id="90" fill="black" cx="658.10171048451696" cy="1065.16696416027321" r="0.8"/>
<circle id="91" fill="black" cx="649.51108129135753" cy="1073.96531772457115" r="0.8"/>
<circle id="92" fill="black" cx="645.78329018906493" cy="1062.24723303148130" r="0.8"/>
<circle id="93" fill="black" cx="632.71795681877120" cy="1058.72218693528907" r="0.8"/>
<circle id="94" fill="black" cx="623.60198660722813" cy="1066.97500599782870" r="0.8"/>
<circle id="95" fill="black" cx="620.60264181105447" cy="1055.04966046109803" r="0.8"/>
<circle id="96" fill="black" cx="607.77909411495057" cy="1050.72698645731998" r="0.8"/>
<circle id="97" fill="black" cx="598.17236288249228" cy="1058.40296524859241" r="0.8"/>
<circle id="98" fill="black" cx="595.91284193460274" cy="1046.31559578858150" r="0.8"/>
<circle id="99" fill="black" cx="583.37972402149740" cy="1041.21169126034147" r="0.8"/>
<circle id="100" fill="black" cx="573.31867339024302" cy="1048.28171216357032" r="0.8"/>
<circle id="101" fill="black" cx="571.80754742753743" cy="1036.07817031287823" r="0.8"/>
<circle id="102" fill="black" cx="559.61240170659278" cy="1030.21239611827150" r="0.8"/>
<circle id="103" fill="black" cx="549.13519668775723" cy="1036.64964012250493" r="0.8"/>
<circle id="104" fill="black" cx="548.37819792861183" cy="1024.37621809540087" r="0.8"/>
<circle id="105" fill="black" cx="536.56728476470062" cy="1017.77082512512686" r="0.8"/>
<circle id="106" fill="black" cx="525.71366898563440" cy="1023.55087355893443" r="0.8"/>
<circle id="107" fill="black" cx="525.71366898563440" cy="1011.25412864913187" r="0.8"/>
<circle id="108" fill="black" cx="514.33179121793137" cy="1003.93417342124576" r="0.8"/>
<circle id="109" fill="black" cx="503.14293616092925" cy="1009.03510058110146" r="0.8"/>
<circle id="110" fill="black" cx="503.89993492007466" cy="996.76167855399717" r="0.8"/>
<circle id="111" fill="black" cx="492.99026790954082" cy="988.75492816595226" r="0.8"/>
<circle id="112" fill="black" cx="481.50861673430666" cy="993.15738448793900" r="0.8"/>
<circle id="113" fill="black" cx="483.01974269701242" cy="980.95384263724691" r="0.8"/>
<circle id="114" fill="black" cx="472.62367054746204" cy="972.29066943578459" r="0.8"/>
<circle id="115" fill="black" cx="460.89277708966665" cy="975.97795489511770" r="0.8"/>
<circle id="116" fill="black" cx="463.15229803755619" cy="963.89058543510691" r="0.8"/>
<circle id="117" fill="black" cx="453.30925661157687" cy="954.60385180354160" r="0.8"/>
<circle id="118" fill="black" cx="441.37362016824062" cy="957.56197926348318" r="0.8"/>
<circle id="119" fill="black" cx="444.37296496441439" cy="945.63663372675239" r="0.8"/>
<circle id="120" fill="black" cx="435.12029228963138" cy="935.76156742669559" r="0.8"/>
<circle id="121" fill="black" cx="423.02518881804855" cy="937.97931569655464" r="0.8"/>
<circle id="122" fill="black" cx="426.75297992034132" cy="926.26123100346490" r="0.8"/>
<circle id="123" fill="black" cx="418.12577455349054" cy="915.83529154385894" r="0.8"/>
<circle id="124" fill="black" cx="405.91708492401523" cy="917.30424794481155" r="0.8"/>
<circle id="125" fill="black" cx="410.35918154391078" cy="905.83787480435126" r="0.8"/>
<circle id="126" fill="black" cx="402.39016942998984" cy="894.90061134472069" r="0.8"/>
<circle id="127" fill="black" cx="390.11420538417929" cy="895.61520362198257" r="0.8"/>
<circle id="128" fill="black" cx="395.25375712766521" cy="884.44403791500338" r="0.8"/>
<circle id="129" fill="black" cx="387.97316745921529" cy="873.03693924194658" r="0.8"/>
<circle id="130" fill="black" cx="375.67649593353099" cy="872.99445670224361" r="0.8"/>
<circle id="131" fill="black" cx="381.49400672041463" cy="862.16087448668588" r="0.8"/>
<circle id="132" fill="black" cx="374.92945726783898" cy="850.32721163269684" r="0.8"/>
<circle id="133" fill="black" cx="362.65872374930643" cy="849.52781542685364" r="0.8"/>
<circle id="134" fill="black" cx="369.13212576852499" cy="839.07291219084345" r="0.8"/>
<circle id="135" fill="black" cx="363.30851811642538" cy="826.85757429246337" r="0.8"/>
<circle id="136" fill="black" cx="351.11026970032452" cy="825.30429680410248" r="0.8"/>
<circle id="137" fill="black" cx="358.21500712071105" cy="815.26773157668947" r="0.8"/>
<circle id="138" fill="black" cx="353.15443220764860" cy="802.71705559463680" r="0.8"/>
<circle id="139" fill="black" cx="341.07494102843793" cy="800.41578893730934" r="0.8"/>
<circle id="140" fill="black" cx="348.78406314740039" cy="790.83563384818467" r="0.8"/>
<circle id="141" fill="black" cx="344.50571746739837" cy="777.99722879539115" r="0.8"/>
<circle id="142" fill="black" cx="332.59080517265932" cy="774.95670246177178" r="0.8"/>
<circle id="143" fill="black" cx="340.87506864942634" cy="765.86929832064004" r="0.8"/>
<circle id="144" fill="black" cx="337.39518143309294" cy="752.79186466495685" r="0.8"/>
<circle id="145" fill="black" cx="325.69004536632565" cy="749.02361241288816" r="0.8"/>
<circle id="146" fill="black" cx="334.51802515195499" cy="740.46343085632782" r="0.8"/>
<circle id="147" fill="black" cx="331.84979680345356" cy="727.19657578297142" r="0.8"/>
<circle id="148" fill="black" cx="320.39883855507168" cy="722.71489188396947" r="0.8"/>
<circle id="149" fill="black" cx="329.73704709842468" cy="714.71440461270856" r="0.8"/>
<circle id="150" fill="black" cx="327.89059912181830" cy="701.30845384721340" r="0.8"/>
<circle id="151" fill="black" cx="316.73725609870797" cy="696.13033886340008" r="0.8"/>
<circle id="152" fill="black" cx="326.55027037620107" cy="688.71989446603266" r="0.8"/>
<circle id="153" fill="black" cx="325.53260698112149" cy="675.22570137153821" r="0.8"/>
<circle id="154" fill="black" cx="314.71918763367836" cy="669.37079766668546" r="0.8"/>
<circle id="155" fill="black" cx="324.96978352094538" cy="662.57850649708018" r="0.8"/>
<circle id="156" fill="black" cx="324.78476505322607" cy="649.04725917010433" r="0.8"/>
<circle id="157" fill="black" cx="314.35228838491116" cy="642.53777639942120" r="0.8"/>
<circle id="158" fill="black" cx="325.00158186065715" cy="636.38940394451981" r="0.8"/>
<circle id="159" fill="black" cx="325.64991015871982" cy="622.87243104097649" r="0.8"/>
<circle id="160" fill="black" cx="315.63795012692964" cy="615.73306190227856" r="0.8"/>
<circle id="161" fill="black" cx="326.64554477334218" cy="610.25193104477967" r="0.8"/>
<circle id="162" fill="black" cx="328.12476050588310" cy="596.80050707280577" r="0.8"/>
<circle id="163" fill="black" cx="318.57129590437404" cy="589.05833363865497" r="0.8"/>
<circle id="164" fill="black" cx="329.89543614457290" cy="584.26523618533020" r="0.8"/>
<circle id="165" fill="black" cx="332.19992813964853" cy="570.93038700351269" r="0.8"/>
<circle id="166" fill="black" cx="323.14119853196337" cy="562.61477798963983" r="0.8"/>
<circle id="167" fill="black" cx="334.73892802320580" cy="558.52789580088984" r="0.8"/>
<circle id="168" fill="black" cx="337.85995455333091" cy="545.36020505970635" r="0.8"/>
<circle id="169" fill="black" cx="329.33032280372117" cy="536.50270441941257" r="0.8"/>
<circle id="170" fill="black" cx="341.15764738552411" cy="533.13754043924246" r="0.8"/>
<circle id="171" fill="black" cx="345.08336932803741" cy="520.18695769994997" r="0.8"/>
<circle id="172" fill="black" cx="337.11519125134913" cy="510.82116496708744" r="0.8"/>
<circle id="173" fill="black" cx="349.12724583040875" cy="508.19048441512962" r="0.8"/>
<circle id="174" fill="black" cx="353.84277157732083" cy="495.50613567396817" r="0.8"/>
<circle id="175" fill="black" cx="346.46627320230647" cy="485.66757850839929" r="0.8"/>
<circle id="176" fill="black" cx="358.61749194116442" cy="483.78136045706367" r="0.8"/>
<circle id="177" fill="black" cx="364.10493388812739" cy="471.41136179352691" r="0.8"/>
<circle id="178" fill="black" cx="357.34809679976507" cy="461.13736121254152" r="0.8"/>
<circle id="179" fill="black" cx="369.59238596363753" cy="460.00276073297533" r="0.8"/>
<circle id="180" fill="black" cx="375.83092836375545" cy="447.99403578903900" r="0.8"/>
<circle id="181" fill="black" cx="369.71938355951335" cy="437.32356459595212" r="0.8"/>
<circle id="182" fill="black" cx="382.01029636561543" cy="436.94488561640452" r="0.8"/>
<circle id="183" fill="black" cx="388.97627429070258" cy="425.34298759908017" r="0.8"/>
<circle id="184" fill="black" cx="383.53320495338545" cy="414.31652254604001" r="0.8"/>
<circle id="185" fill="black" cx="395.82411775948765" cy="414.69520152558778" r="0.8"/>
<circle id="186" fill="black" cx="403.49110686924564" cy="403.54414040800617" r="0.8"/>
<circle id="187" fill="black" cx="398.73716042524228" cy="392.20350865380902" r="0.8"/>
<circle id="188" fill="black" cx="410.98144958911473" cy="393.33810913337527" r="0.8"/>
<circle id="189" fill="black" cx="419.32036636770835" cy="382.68018470988255" r="0.8"/>
<circle id="190" fill="black" cx="415.27357616423080" cy="371.06840515523226" r="0.8"/>
<circle id="191" fill="black" cx="427.42479490308870" cy="372.95462320656799" r="0.8"/>
<circle id="192" fill="black" cx="436.40400698288136" cy="362.83026463511789" r="0.8"/>
<circle id="193" fill="black" cx="433.07972388130179" cy="350.99138473720069" r="0.8"/>
<circle id="194" fill="black" cx="445.09177846036135" cy="353.62206528915863" r="0.8"/>
<circle id="195" fill="black" cx="454.67722461432186" cy="344.06967772966772" r="0.8"/>
<circle id="196" fill="black" cx="452.08805875909769" cy="332.04860641505945" r="0.8"/>
<circle id="197" fill="black" cx="463.91538334090075" cy="335.41377039522973" r="0.8"/>
<circle id="198" fill="black" cx="474.07070268850299" cy="326.46958932565150" r="0.8"/>
<circle id="199" fill="black" cx="472.22647567257945" cy="314.31192663537689" r="0.8"/>
<circle id="200" fill="black" cx="483.82420516382189" cy="318.39880882412689" r="0.8"/>
<circle id="201" fill="black" cx="494.51087510032085" cy="310.09676258687216" r="0.8"/>
<circle id="202" fill="black" cx="493.41858270846490" cy="297.84862669982988" r="0.8"/>
<circle id="203" fill="black" cx="504.74272294866364" cy="302.64172415315466" r="0.8"/>
<circle id="204" fill="black" cx="515.92020527452860" cy="295.01330525326699" r="0.8"/>
<circle id="205" fill="black" cx="515.58399094592096" cy="282.72115754418070" r="0.8"/>
<circle id="206" fill="black" cx="526.59158559233356" cy="288.20228840167960" r="0.8"/>
<circle id="207" fill="black" cx="538.21748028852528" cy="281.27643404497741" r="0.8"/>
<circle id="208" fill="black" cx="538.63861939927654" cy="268.98690284048666" r="0.8"/>
<circle id="209" fill="black" cx="549.28791287502258" cy="275.13527529538800" r="0.8"/>
<circle id="210" fill="black" cx="561.31811894078851" cy="268.93825761973085" r="0.8"/>
<circle id="211" fill="black" cx="562.49501396600056" cy="256.69796132117710" r="0.8"/>
<circle id="212" fill="black" cx="572.74560985326764" cy="263.49025249078250" r="0.8"/>
<circle id="213" fill="black" cx="585.13449259634240" cy="258.04557890685362" r="0.8"/>
<circle id="214" fill="black" cx="587.06267917006744" cy="245.90094915071592" r="0.8"/>
<circle id="215" fill="black" cx="596.87569344756048" cy="253.31139354808334" r="0.8"/>
<circle id="216" fill="black" cx="609.57625759218649" cy="248.63971756772798" r="0.8"/>
<circle id="217" fill="black" cx="612.24842144229672" cy="236.63682309452196" r="0.8"/>
<circle id="218" fill="black" cx="621.58662998564955" cy="244.63731036578292" r="0.8"/>
<circle id="219" fill="black" cx="634.55069794175392" cy="240.75635325616486" r="0.8"/>
<circle id="220" fill="black" cx="637.95670263548038" cy="228.94072515592956" r="0.8"/>
<circle id="221" fill="black" cx="646.78468242110966" cy="237.50090671249001" r="0.8"/>
<circle id="222" fill="black" cx="659.96307703840580" cy="234.42539027325432" r="0.8"/>
<circle id="223" fill="black" cx="664.09000243330036" cy="222.84184927053269" r="0.8"/>
<circle id="224" fill="black" cx="672.37426591006727" cy="231.92925341166466" r="0.8"/>
<circle id="225" fill="black" cx="685.71699702383046" cy="229.67084413010923" r="0.8"/>
<circle id="226" fill="black" cx="690.54918827829135" cy="218.36333056358774" r="0.8"/>
<circle id="227" fill="black" cx="698.25831039725369" cy="227.94348565271247" r="0.8"/>
<circle id="228" fill="black" cx="711.71476445813755" cy="226.51075044880639" r="0.8"/>
<circle id="229" fill="black" cx="717.23389141558596" cy="215.52215759055906" r="0.8"/>
<circle id="230" fill="black" cx="724.33862883597249" cy="225.55872281797207" r="0.8"/>
<circle id="231" fill="black" cx="737.85776090454021" cy="224.95709654709242" r="0.8"/>
<circle id="232" fill="black" cx="744.04288762598242" cy="214.32910789370851" r="0.8"/>
<circle id="233" fill="black" cx="750.51628964520080" cy="224.78401112971864" r="0.8"/>
<circle id="234" fill="black" cx="764.04681702286337" cy="225.01577596638333" r="0.8"/>
<circle id="235" fill="black" cx="770.87448120407885" cy="214.78870711918648" r="0.8"/>
<circle id="236" fill="black" cx="776.69199199096249" cy="225.62228933474421" r="0.8"/>
<circle id="237" fill="black" cx="790.18258875282004" cy="226.68656611554275" r="0.8"/>
<circle id="238" fill="black" cx="797.62689072491753" cy="216.89921184970649" r="0.8"/>
<circle id="239" fill="black" cx="802.76644246840340" cy="228.07037755668580" r="0.8"/>
<circle id="240" fill="black" cx="816.16593416005981" cy="229.96312911524575" r="0.8"/>
<circle id="241" fill="black" cx="824.19863513579287" cy="220.65261621792297" r="0.8"/>
<circle id="242" fill="black" cx="828.64073175568831" cy="232.11898935838332" r="0.8"/>
<circle id="243" fill="black" cx="841.89828951548316" cy="234.83303583972679" r="0.8"/>
<circle id="244" fill="black" cx="850.48891870864259" cy="226.03468227542891" r="0.8"/>
<circle id="245" fill="black" cx="854.21670981093507" cy="237.75276696851864" r="0.8"/>
<circle id="246" fill="black" cx="867.28204318122880" cy="241.27781306471087" r="0.8"/>
<circle id="247" fill="black" cx="876.39801339277176" cy="233.02499400217124" r="0.8"/>
<circle id="248" fill="black" cx="879.39735818894553" cy="244.95033953890197" r="0.8"/>
<circle id="249" fill="black" cx="892.22090588504932" cy="249.27301354268008" r="0.8"/>
<circle id="250" fill="black" cx="901.82763711750761" cy="241.59703475140742" r="0.8"/>
<circle id="251" fill="black" cx="904.08715806539715" cy="253.68440421141838" r="0.8"/>
<circle id="252" fill="black" cx="916.62027597850238" cy="258.78830873965842" r="0.8"/>
<circle id="253" fill="black" cx="926.68132660975675" cy="251.71828783642962" r="0.8"/>
<circle id="254" fill="black" cx="928.19245257246234" cy="263.92182968712171" r="0.8"/>
<circle id="255" fill="black" cx="940.38759829340734" cy="269.78760388172867" r="0.8"/>
<circle id="256" fill="black" cx="950.86480331224288" cy="263.35035987749507" r="0.8"/>
<circle id="257" fill="black" cx="951.62180207138829" cy="275.62378190459941" r="0.8"/>
<circle id="258" fill="black" cx="963.43271523529938" cy="282.22917487487308" r="0.8"/>
<circle id="259" fill="black" cx="974.28633101436549" cy="276.44912644106546" r="0.8"/>
<circle id="260" fill="black" cx="974.28633101436549" cy="288.74587135086813" r="0.8"/>
<circle id="261" fill="black" cx="985.66820878206852" cy="296.06582657875418" r="0.8"/>
<circle id="262" fill="black" cx="996.85706383907063" cy="290.96489941889848" r="0.8"/>
<circle id="263" fill="black" cx="996.10006507992523" cy="303.23832144600277" r="0.8"/>
<circle id="264" fill="black" cx="1007.00973209045912" cy="311.24507183404768" r="0.8"/>
<circle id="265" fill="black" cx="1018.49138326569323" cy="306.84261551206089" r="0.8"/>
<circle id="266" fill="black" cx="1016.98025730298752" cy="319.04615736275304" r="0.8"/>
<circle id="267" fill="black" cx="1027.37632945253790" cy="327.70933056421524" r="0.8"/>
<circle id="268" fill="black" cx="1039.10722291033312" cy="324.02204510488207" r="0.8"/>
<circle id="269" fill="black" cx="1036.84770196244358" cy="336.10941456489292" r="0.8"/>
<circle id="270" fill="black" cx="1046.69074338842324" cy="345.39614819645846" r="0.8"/>
<circle id="271" fill="black" cx="1058.62637983175955" cy="342.43802073651693" r="0.8"/>
<circle id="272" fill="black" cx="1055.62703503558578" cy="354.36336627324761" r="0.8"/>
<circle id="273" fill="black" cx="1064.87970771036862" cy="364.23843257330429" r="0.8"/>
<circle id="274" fill="black" cx="1076.97481118195151" cy="362.02068430344525" r="0.8"/>
<circle id="275" fill="black" cx="1073.24702007965880" cy="373.73876899653499" r="0.8"/>
<circle id="276" fill="black" cx="1081.87422544650940" cy="384.16470845614106" r="0.8"/>
<circle id="277" fill="black" cx="1094.08291507598483" cy="382.69575205518834" r="0.8"/>
<circle id="278" fill="black" cx="1089.64081845608916" cy="394.16212519564868" r="0.8"/>
<circle id="279" fill="black" cx="1097.60983057001022" cy="405.09938865527926" r="0.8"/>
<circle id="280" fill="black" cx="1109.88579461582071" cy="404.38479637801743" r="0.8"/>
<circle id="281" fill="black" cx="1104.74624287233473" cy="415.55596208499657" r="0.8"/>
<circle id="282" fill="black" cx="1112.02683254078465" cy="426.96306075805319" r="0.8"/>
<circle id="283" fill="black" cx="1124.32350406646879" cy="427.00554329775622" r="0.8"/>
<circle id="284" fill="black" cx="1118.50599327958525" cy="437.83912551331389" r="0.8"/>
<circle id="285" fill="black" cx="1125.07054273216113" cy="449.67278836730327" r="0.8"/>
<circle id="286" fill="black" cx="1137.34127625069368" cy="450.47218457314659" r="0.8"/>
<circle id="287" fill="black" cx="1130.86787423147507" cy="460.92708780915666" r="0.8"/>
<circle id="288" fill="black" cx="1136.69148188357462" cy="473.14242570753657" r="0.8"/>
<circle id="289" fill="black" cx="1148.88973029967542" cy="474.69570319589758" r="0.8"/>
<circle id="290" fill="black" cx="1141.78499287928889" cy="484.73226842331047" r="0.8"/>
<circle id="291" fill="black" cx="1146.84556779235118" cy="497.28294440536308" r="0.8"/>
<circle id="292" fill="black" cx="1158.92505897156207" cy="499.58421106269054" r="0.8"/>
<circle id="293" fill="black" cx="1151.21593685259950" cy="509.16436615181522" r="0.8"/>
<circle id="294" fill="black" cx="1155.49428253260157" cy="522.00277120460873" r="0.8"/>
<circle id="295" fill="black" cx="1167.40919482734080" cy="525.04329753822810" r="0.8"/>
<circle id="296" fill="black" cx="1159.12493135057366" cy="534.13070167935996" r="0.8"/>
<circle id="297" fill="black" cx="1162.60481856690694" cy="547.20813533504293" r="0.8"/>
<circle id="298" fill="black" cx="1174.30995463367435" cy="550.97638758711162" r="0.8"/>
<circle id="299" fill="black" cx="1165.48197484804496" cy="559.53656914367195" r="0.8"/>
<circle id="300" fill="black" cx="1168.15020319654650" cy="572.80342421702881" r="0.8"/>
<circle id="301" fill="black" cx="1179.60116144492849" cy="577.28510811603064" r="0.8"/>
<circle id="302" fill="black" cx="1170.26295290157532" cy="585.28559538729155" r="0.8"/>
<circle id="303" fill="black" cx="1172.10940087818176" cy="598.69154615278660" r="0.8"/>
<circle id="304" fill="black" cx="1183.26274390129197" cy="603.86966113659992" r="0.8"/>
<circle id="305" fill="black" cx="1173.44972962379893" cy="611.28010553396723" r="0.8"/>
<circle id="306" fill="black" cx="750.00000000000000" cy="650.00000000000000" r="0.8"/>
</g></svg>