<svg width="3000" height="3000" xmlns="http://www.w3.org/2000/svg">
<g stroke-width="0.5" fill="none" transform="scale(2.5)"><path id="gear0" stroke="red" d="M1175.00 636.39 L 1185.65 642.54 1175.22 649.05 1175.03 662.58 1185.28 669.37 1174.47 675.23 1173.45 688.72 1183.26 696.13 1172.11 701.31 1170.26 714.71 1179.60 722.71 1168.15 727.20 1165.48 740.46 1174.31 749.02 1162.60 752.79 1159.12 765.87 1167.41 774.96 1155.49 778.00 1151.22 790.84 1158.93 800.42 1146.85 802.72 1141.78 815.27 1148.89 825.30 1136.69 826.86 1130.87 839.07 1137.34 849.53 1125.07 850.33 1118.51 862.16 1124.32 872.99 1112.03 873.04 1104.75 884.44 1109.89 895.62 1097.61 894.90 1089.64 905.84 1094.08 917.30 1081.87 915.84 1073.25 926.26 1076.97 937.98 1064.88 935.76 1055.63 945.64 1058.63 957.56 1046.69 954.60 1036.85 963.89 1039.11 975.98 1027.38 972.29 1016.98 980.95 1018.49 993.16 1007.01 988.75 996.10 996.76 996.86 1009.04 985.67 1003.93 974.29 1011.25 974.29 1023.55 963.43 1017.77 951.62 1024.38 950.86 1036.65 940.39 1030.21 928.19 1036.08 926.68 1048.28 916.62 1041.21 904.09 1046.32 901.83 1058.40 892.22 1050.73 879.40 1055.05 876.40 1066.98 867.28 1058.72 854.22 1062.25 850.49 1073.97 841.90 1065.17 828.64 1067.88 824.20 1079.35 816.17 1070.04 802.77 1071.93 797.63 1083.10 790.18 1073.31 776.69 1074.38 770.87 1085.21 764.05 1074.98 750.52 1075.22 744.04 1085.67 737.86 1075.04 724.34 1074.44 717.23 1084.48 711.71 1073.49 698.26 1072.06 690.55 1081.64 685.72 1070.33 672.37 1068.07 664.09 1077.16 659.96 1065.57 646.78 1062.50 637.96 1071.06 634.55 1059.24 621.59 1055.36 612.25 1063.36 609.58 1051.36 596.88 1046.69 587.06 1054.10 585.13 1041.95 572.75 1036.51 562.50 1043.30 561.32 1031.06 549.29 1024.86 538.64 1031.01 538.22 1018.72 526.59 1011.80 515.58 1017.28 515.92 1004.99 504.74 997.36 493.42 1002.15 494.51 989.90 483.82 981.60 472.23 985.69 474.07 973.53 463.92 964.59 452.09 967.95 454.68 955.93 445.09 946.38 433.08 949.01 436.40 937.17 427.42 927.05 415.27 928.93 419.32 917.32 410.98 906.66 398.74 907.80 403.49 896.46 395.82 885.30 383.53 885.68 388.98 874.66 382.01 863.06 369.72 862.68 375.83 852.01 369.59 840.00 357.35 838.86 364.10 828.59 358.62 816.22 346.47 814.33 353.84 804.49 349.13 791.81 337.12 789.18 345.08 779.81 341.16 766.86 329.33 763.50 337.86 754.64 334.74 741.47 323.14 737.39 332.20 729.07 329.90 715.73 318.57 710.94 328.12 703.20 326.65 689.75 315.64 684.27 325.65 677.13 325.00 663.61 314.35 657.46 324.78 650.95 324.97 637.42 314.72 630.63 325.53 624.77 326.55 611.28 316.74 603.87 327.89 598.69 329.74 585.29 320.40 577.29 331.85 572.80 334.52 559.54 325.69 550.98 337.40 547.21 340.88 534.13 332.59 525.04 344.51 522.00 348.78 509.16 341.07 499.58 353.15 497.28 358.22 484.73 351.11 474.70 363.31 473.14 369.13 460.93 362.66 450.47 374.93 449.67 381.49 437.84 375.68 427.01 387.97 426.96 395.25 415.56 390.11 404.38 402.39 405.10 410.36 394.16 405.92 382.70 418.13 384.16 426.75 373.74 423.03 362.02 435.12 364.24 444.37 354.36 441.37 342.44 453.31 345.40 463.15 336.11 460.89 324.02 472.62 327.71 483.02 319.05 481.51 306.84 492.99 311.25 503.90 303.24 503.14 290.96 514.33 296.07 525.71 288.75 525.71 276.45 536.57 282.23 548.38 275.62 549.14 263.35 559.61 269.79 571.81 263.92 573.32 251.72 583.38 258.79 595.91 253.68 598.17 241.60 607.78 249.27 620.60 244.95 623.60 233.02 632.72 241.28 645.78 237.75 649.51 226.03 658.10 234.83 671.36 232.12 675.80 220.65 683.83 229.96 697.23 228.07 702.37 216.90 709.82 226.69 723.31 225.62 729.13 214.79 735.95 225.02 749.48 224.78 755.96 214.33 762.14 224.96 775.66 225.56 782.77 215.52 788.29 226.51 801.74 227.94 809.45 218.36 814.28 229.67 827.63 231.93 835.91 222.84 840.04 234.43 853.22 237.50 862.04 228.94 865.45 240.76 878.41 244.64 887.75 236.64 890.42 248.64 903.12 253.31 912.94 245.90 914.87 258.05 927.25 263.49 937.50 256.70 938.68 268.94 950.71 275.14 961.36 268.99 961.78 281.28 973.41 288.20 984.42 282.72 984.08 295.01 995.26 302.64 1006.58 297.85 1005.49 310.10 1016.18 318.40 1027.77 314.31 1025.93 326.47 1036.08 335.41 1047.91 332.05 1045.32 344.07 1054.91 353.62 1066.92 350.99 1063.60 362.83 1072.58 372.95 1084.73 371.07 1080.68 382.68 1089.02 393.34 1101.26 392.20 1096.51 403.54 1104.18 414.70 1116.47 414.32 1111.02 425.34 1117.99 436.94 1130.28 437.32 1124.17 447.99 1130.41 460.00 1142.65 461.14 1135.90 471.41 1141.38 483.78 1153.53 485.67 1146.16 495.51 1150.87 508.19 1162.88 510.82 1154.92 520.19 1158.84 533.14 1170.67 536.50 1162.14 545.36 1165.26 558.53 1176.86 562.61 1167.80 570.93 1170.10 584.27 1181.43 589.06 1171.88 596.80 1173.35 610.25 1184.36 615.73 1174.35 622.87 Z"/>
<circle id="0" fill="black" cx="1174.99841813934290" cy="636.38940394452550" r="0.8"/>
<circle id="1" fill="black" cx="1185.64771161508884" cy="642.53777639942689" r="0.8"/>
<circle id="2" fill="black" cx="1175.21523494677399" cy="649.04725917011001" r="0.8"/>
<circle id="3" fill="black" cx="1175.03021647905439" cy="662.57850649708587" r="0.8"/>
<circle id="4" fill="black" cx="1185.28081236632147" cy="669.37079766669137" r="0.8"/>
<circle id="5" fill="black" cx="1174.46739301887828" cy="675.22570137154389" r="0.8"/>
<circle id="6" fill="black" cx="1173.44972962379848" cy="688.71989446603845" r="0.8"/>
<circle id="7" fill="black" cx="1183.26274390129151" cy="696.13033886340588" r="0.8"/>
<circle id="8" fill="black" cx="1172.10940087818108" cy="701.30845384721908" r="0.8"/>
<circle id="9" fill="black" cx="1170.26295290157441" cy="714.71440461271413" r="0.8"/>
<circle id="10" fill="black" cx="1179.60116144492736" cy="722.71489188397527" r="0.8"/>
<circle id="11" fill="black" cx="1168.15020319654536" cy="727.19657578297699" r="0.8"/>
<circle id="12" fill="black" cx="1165.48197484804382" cy="740.46343085633339" r="0.8"/>
<circle id="13" fill="black" cx="1174.30995463367299" cy="749.02361241289395" r="0.8"/>
<circle id="14" fill="black" cx="1162.60481856690558" cy="752.79186466496242" r="0.8"/>
<circle id="15" fill="black" cx="1159.12493135057230" cy="765.86929832064538" r="0.8"/>
<circle id="16" fill="black" cx="1167.40919482733898" cy="774.95670246177735" r="0.8"/>
<circle id="17" fill="black" cx="1155.49428253259998" cy="777.99722879539650" r="0.8"/>
<circle id="18" fill="black" cx="1151.21593685259768" cy="790.83563384819013" r="0.8"/>
<circle id="19" fill="black" cx="1158.92505897156002" cy="800.41578893731480" r="0.8"/>
<circle id="20" fill="black" cx="1146.84556779234936" cy="802.71705559464226" r="0.8"/>
<circle id="21" fill="black" cx="1141.78499287928662" cy="815.26773157669481" r="0.8"/>
<circle id="22" fill="black" cx="1148.88973029967315" cy="825.30429680410793" r="0.8"/>
<circle id="23" fill="black" cx="1136.69148188357212" cy="826.85757429246871" r="0.8"/>
<circle id="24" fill="black" cx="1130.86787423147257" cy="839.07291219084868" r="0.8"/>
<circle id="25" fill="black" cx="1137.34127625069095" cy="849.52781542685875" r="0.8"/>
<circle id="26" fill="black" cx="1125.07054273215840" cy="850.32721163270185" r="0.8"/>
<circle id="27" fill="black" cx="1118.50599327958253" cy="862.16087448669077" r="0.8"/>
<circle id="28" fill="black" cx="1124.32350406646606" cy="872.99445670224861" r="0.8"/>
<circle id="29" fill="black" cx="1112.02683254078170" cy="873.03693924195136" r="0.8"/>
<circle id="30" fill="black" cx="1104.74624287233178" cy="884.44403791500815" r="0.8"/>
<circle id="31" fill="black" cx="1109.88579461581753" cy="895.61520362198735" r="0.8"/>
<circle id="32" fill="black" cx="1097.60983057000681" cy="894.90061134472535" r="0.8"/>
<circle id="33" fill="black" cx="1089.64081845608575" cy="905.83787480435581" r="0.8"/>
<circle id="34" fill="black" cx="1094.08291507598119" cy="917.30424794481621" r="0.8"/>
<circle id="35" fill="black" cx="1081.87422544650599" cy="915.83529154386338" r="0.8"/>
<circle id="36" fill="black" cx="1073.24702007965493" cy="926.26123100346933" r="0.8"/>
<circle id="37" fill="black" cx="1076.97481118194742" cy="937.97931569655918" r="0.8"/>
<circle id="38" fill="black" cx="1064.87970771036476" cy="935.76156742669991" r="0.8"/>
<circle id="39" fill="black" cx="1055.62703503558168" cy="945.63663372675660" r="0.8"/>
<circle id="40" fill="black" cx="1058.62637983175523" cy="957.56197926348727" r="0.8"/>
<circle id="41" fill="black" cx="1046.69074338841892" cy="954.60385180354569" r="0.8"/>
<circle id="42" fill="black" cx="1036.84770196243949" cy="963.89058543511067" r="0.8"/>
<circle id="43" fill="black" cx="1039.10722291032903" cy="975.97795489512168" r="0.8"/>
<circle id="44" fill="black" cx="1027.37632945253358" cy="972.29066943578823" r="0.8"/>
<circle id="45" fill="black" cx="1016.98025730298332" cy="980.95384263725055" r="0.8"/>
<circle id="46" fill="black" cx="1018.49138326568880" cy="993.15738448794264" r="0.8"/>
<circle id="47" fill="black" cx="1007.00973209045469" cy="988.75492816595568" r="0.8"/>
<circle id="48" fill="black" cx="996.10006507992068" cy="996.76167855400035" r="0.8"/>
<circle id="49" fill="black" cx="996.85706383906586" cy="1009.03510058110476" r="0.8"/>
<circle id="50" fill="black" cx="985.66820878206386" cy="1003.93417342124883" r="0.8"/>
<circle id="51" fill="black" cx="974.28633101436071" cy="1011.25412864913483" r="0.8"/>
<circle id="52" fill="black" cx="974.28633101436060" cy="1023.55087355893738" r="0.8"/>
<circle id="53" fill="black" cx="963.43271523529438" cy="1017.77082512512970" r="0.8"/>
<circle id="54" fill="black" cx="951.62180207138317" cy="1024.37621809540337" r="0.8"/>
<circle id="55" fill="black" cx="950.86480331223765" cy="1036.64964012250766" r="0.8"/>
<circle id="56" fill="black" cx="940.38759829340211" cy="1030.21239611827377" r="0.8"/>
<circle id="57" fill="black" cx="928.19245257245734" cy="1036.07817031288050" r="0.8"/>
<circle id="58" fill="black" cx="926.68132660975152" cy="1048.28171216357259" r="0.8"/>
<circle id="59" fill="black" cx="916.62027597849726" cy="1041.21169126034374" r="0.8"/>
<circle id="60" fill="black" cx="904.08715806539192" cy="1046.31559578858355" r="0.8"/>
<circle id="61" fill="black" cx="901.82763711750215" cy="1058.40296524859446" r="0.8"/>
<circle id="62" fill="black" cx="892.22090588504398" cy="1050.72698645732180" r="0.8"/>
<circle id="63" fill="black" cx="879.39735818894019" cy="1055.04966046109985" r="0.8"/>
<circle id="64" fill="black" cx="876.39801339276630" cy="1066.97500599783029" r="0.8"/>
<circle id="65" fill="black" cx="867.28204318122346" cy="1058.72218693529067" r="0.8"/>
<circle id="66" fill="black" cx="854.21670981092961" cy="1062.24723303148266" r="0.8"/>
<circle id="67" fill="black" cx="850.48891870863690" cy="1073.96531772457229" r="0.8"/>
<circle id="68" fill="black" cx="841.89828951547759" cy="1065.16696416027435" r="0.8"/>
<circle id="69" fill="black" cx="828.64073175568262" cy="1067.88101064161765" r="0.8"/>
<circle id="70" fill="black" cx="824.19863513578696" cy="1079.34738378207794" r="0.8"/>
<circle id="71" fill="black" cx="816.16593416005401" cy="1070.03687088475522" r="0.8"/>
<circle id="72" fill="black" cx="802.76644246839794" cy="1071.92962244331511" r="0.8"/>
<circle id="73" fill="black" cx="797.62689072491196" cy="1083.10078815029419" r="0.8"/>
<circle id="74" fill="black" cx="790.18258875281458" cy="1073.31343388445794" r="0.8"/>
<circle id="75" fill="black" cx="776.69199199095681" cy="1074.37771066525602" r="0.8"/>
<circle id="76" fill="black" cx="770.87448120407316" cy="1085.21129288081374" r="0.8"/>
<circle id="77" fill="black" cx="764.04681702285779" cy="1074.98422403361678" r="0.8"/>
<circle id="78" fill="black" cx="750.51628964519523" cy="1075.21598887028131" r="0.8"/>
<circle id="79" fill="black" cx="744.04288762597662" cy="1085.67089210629138" r="0.8"/>
<circle id="80" fill="black" cx="737.85776090453453" cy="1075.04290345290747" r="0.8"/>
<circle id="81" fill="black" cx="724.33862883596680" cy="1074.44127718202753" r="0.8"/>
<circle id="82" fill="black" cx="717.23389141558005" cy="1084.47784240944065" r="0.8"/>
<circle id="83" fill="black" cx="711.71476445813187" cy="1073.48924955119332" r="0.8"/>
<circle id="84" fill="black" cx="698.25831039724801" cy="1072.05651434728679" r="0.8"/>
<circle id="85" fill="black" cx="690.54918827828544" cy="1081.63666943641147" r="0.8"/>
<circle id="86" fill="black" cx="685.71699702382477" cy="1070.32915586988975" r="0.8"/>
<circle id="87" fill="black" cx="672.37426591006181" cy="1068.07074658833426" r="0.8"/>
<circle id="88" fill="black" cx="664.09000243329479" cy="1077.15815072946612" r="0.8"/>
<circle id="89" fill="black" cx="659.96307703840034" cy="1065.57460972674448" r="0.8"/>
<circle id="90" fill="black" cx="646.78468242110432" cy="1062.49909328750869" r="0.8"/>
<circle id="91" fill="black" cx="637.95670263547493" cy="1071.05927484406902" r="0.8"/>
<circle id="92" fill="black" cx="634.55069794174869" cy="1059.24364674383378" r="0.8"/>
<circle id="93" fill="black" cx="621.58662998564421" cy="1055.36268963421526" r="0.8"/>
<circle id="94" fill="black" cx="612.24842144229126" cy="1063.36317690547617" r="0.8"/>
<circle id="95" fill="black" cx="609.57625759218126" cy="1051.36028243227020" r="0.8"/>
<circle id="96" fill="black" cx="596.87569344755525" cy="1046.68860645191467" r="0.8"/>
<circle id="97" fill="black" cx="587.06267917006210" cy="1054.09905084928187" r="0.8"/>
<circle id="98" fill="black" cx="585.13449259633705" cy="1041.95442109314422" r="0.8"/>
<circle id="99" fill="black" cx="572.74560985326229" cy="1036.50974750921523" r="0.8"/>
<circle id="100" fill="black" cx="562.49501396599521" cy="1043.30203867882028" r="0.8"/>
<circle id="101" fill="black" cx="561.31811894078328" cy="1031.06174238026665" r="0.8"/>
<circle id="102" fill="black" cx="549.28791287501781" cy="1024.86472470460967" r="0.8"/>
<circle id="103" fill="black" cx="538.63861939927165" cy="1031.01309715951083" r="0.8"/>
<circle id="104" fill="black" cx="538.21748028852051" cy="1018.72356595501992" r="0.8"/>
<circle id="105" fill="black" cx="526.59158559232878" cy="1011.79771159831739" r="0.8"/>
<circle id="106" fill="black" cx="515.58399094591618" cy="1017.27884245581618" r="0.8"/>
<circle id="107" fill="black" cx="515.92020527452394" cy="1004.98669474673000" r="0.8"/>
<circle id="108" fill="black" cx="504.74272294865904" cy="997.35827584684216" r="0.8"/>
<circle id="109" fill="black" cx="493.41858270846024" cy="1002.15137330016682" r="0.8"/>
<circle id="110" fill="black" cx="494.51087510031630" cy="989.90323741312466" r="0.8"/>
<circle id="111" fill="black" cx="483.82420516381757" cy="981.60119117586964" r="0.8"/>
<circle id="112" fill="black" cx="472.22647567257502" cy="985.68807336461941" r="0.8"/>
<circle id="113" fill="black" cx="474.07070268849878" cy="973.53041067434492" r="0.8"/>
<circle id="114" fill="black" cx="463.91538334089643" cy="964.58622960476646" r="0.8"/>
<circle id="115" fill="black" cx="452.08805875909337" cy="967.95139358493657" r="0.8"/>
<circle id="116" fill="black" cx="454.67722461431771" cy="955.93032227032836" r="0.8"/>
<circle id="117" fill="black" cx="445.09177846035743" cy="946.37793471083728" r="0.8"/>
<circle id="118" fill="black" cx="433.07972388129781" cy="949.00861526279505" r="0.8"/>
<circle id="119" fill="black" cx="436.40400698287760" cy="937.16973536487785" r="0.8"/>
<circle id="120" fill="black" cx="427.42479490308494" cy="927.04537679342764" r="0.8"/>
<circle id="121" fill="black" cx="415.27357616422694" cy="928.93159484476314" r="0.8"/>
<circle id="122" fill="black" cx="419.32036636770482" cy="917.31981529011296" r="0.8"/>
<circle id="123" fill="black" cx="410.98144958911143" cy="906.66189086662030" r="0.8"/>
<circle id="124" fill="black" cx="398.73716042523893" cy="907.79649134618626" r="0.8"/>
<circle id="125" fill="black" cx="403.49110686924246" cy="896.45585959198922" r="0.8"/>
<circle id="126" fill="black" cx="395.82411775948447" cy="885.30479847440756" r="0.8"/>
<circle id="127" fill="black" cx="383.53320495338232" cy="885.68347745395511" r="0.8"/>
<circle id="128" fill="black" cx="388.97627429069962" cy="874.65701240091505" r="0.8"/>
<circle id="129" fill="black" cx="382.01029636561265" cy="863.05511438359065" r="0.8"/>
<circle id="130" fill="black" cx="369.71938355951056" cy="862.67643540404288" r="0.8"/>
<circle id="131" fill="black" cx="375.83092836375289" cy="852.00596421095611" r="0.8"/>
<circle id="132" fill="black" cx="369.59238596363502" cy="839.99723926701961" r="0.8"/>
<circle id="133" fill="black" cx="357.34809679976263" cy="838.86263878745331" r="0.8"/>
<circle id="134" fill="black" cx="364.10493388812500" cy="828.58863820646798" r="0.8"/>
<circle id="135" fill="black" cx="358.61749194116209" cy="816.21863954293099" r="0.8"/>
<circle id="136" fill="black" cx="346.46627320230419" cy="814.33242149159514" r="0.8"/>
<circle id="137" fill="black" cx="353.84277157731867" cy="804.49386432602637" r="0.8"/>
<circle id="138" fill="black" cx="349.12724583040682" cy="791.80951558486504" r="0.8"/>
<circle id="139" fill="black" cx="337.11519125134726" cy="789.17883503290705" r="0.8"/>
<circle id="140" fill="black" cx="345.08336932803564" cy="779.81304230004469" r="0.8"/>
<circle id="141" fill="black" cx="341.15764738552264" cy="766.86245956075220" r="0.8"/>
<circle id="142" fill="black" cx="329.33032280371970" cy="763.49729558058186" r="0.8"/>
<circle id="143" fill="black" cx="337.85995455332960" cy="754.63979494028820" r="0.8"/>
<circle id="144" fill="black" cx="334.73892802320461" cy="741.47210419910471" r="0.8"/>
<circle id="145" fill="black" cx="323.14119853196217" cy="737.38522201035460" r="0.8"/>
<circle id="146" fill="black" cx="332.19992813964751" cy="729.06961299648185" r="0.8"/>
<circle id="147" fill="black" cx="329.89543614457193" cy="715.73476381466423" r="0.8"/>
<circle id="148" fill="black" cx="318.57129590437319" cy="710.94166636133934" r="0.8"/>
<circle id="149" fill="black" cx="328.12476050588236" cy="703.19949292718866" r="0.8"/>
<circle id="150" fill="black" cx="326.64554477334167" cy="689.74806895521465" r="0.8"/>
<circle id="151" fill="black" cx="315.63795012692924" cy="684.26693809771564" r="0.8"/>
<circle id="152" fill="black" cx="325.64991015871948" cy="677.12756895901771" r="0.8"/>
<circle id="153" fill="black" cx="325.00158186065704" cy="663.61059605547450" r="0.8"/>
<circle id="154" fill="black" cx="314.35228838491111" cy="657.46222360057311" r="0.8"/>
<circle id="155" fill="black" cx="324.78476505322607" cy="650.95274082989010" r="0.8"/>
<circle id="156" fill="black" cx="324.96978352094555" cy="637.42149350291425" r="0.8"/>
<circle id="157" fill="black" cx="314.71918763367853" cy="630.62920233330874" r="0.8"/>
<circle id="158" fill="black" cx="325.53260698112177" cy="624.77429862845622" r="0.8"/>
<circle id="159" fill="black" cx="326.55027037620158" cy="611.28010553396155" r="0.8"/>
<circle id="160" fill="black" cx="316.73725609870854" cy="603.86966113659412" r="0.8"/>
<circle id="161" fill="black" cx="327.89059912181898" cy="598.69154615278092" r="0.8"/>
<circle id="162" fill="black" cx="329.73704709842553" cy="585.28559538728587" r="0.8"/>
<circle id="163" fill="black" cx="320.39883855507270" cy="577.28510811602484" r="0.8"/>
<circle id="164" fill="black" cx="331.84979680345464" cy="572.80342421702312" r="0.8"/>
<circle id="165" fill="black" cx="334.51802515195612" cy="559.53656914366672" r="0.8"/>
<circle id="166" fill="black" cx="325.69004536632701" cy="550.97638758710627" r="0.8"/>
<circle id="167" fill="black" cx="337.39518143309431" cy="547.20813533503770" r="0.8"/>
<circle id="168" fill="black" cx="340.87506864942776" cy="534.13070167935462" r="0.8"/>
<circle id="169" fill="black" cx="332.59080517266091" cy="525.04329753822265" r="0.8"/>
<circle id="170" fill="black" cx="344.50571746739996" cy="522.00277120460350" r="0.8"/>
<circle id="171" fill="black" cx="348.78406314740232" cy="509.16436615180993" r="0.8"/>
<circle id="172" fill="black" cx="341.07494102843992" cy="499.58421106268520" r="0.8"/>
<circle id="173" fill="black" cx="353.15443220765070" cy="497.28294440535785" r="0.8"/>
<circle id="174" fill="black" cx="358.21500712071338" cy="484.73226842330519" r="0.8"/>
<circle id="175" fill="black" cx="351.11026970032691" cy="474.69570319589218" r="0.8"/>
<circle id="176" fill="black" cx="363.30851811642782" cy="473.14242570753129" r="0.8"/>
<circle id="177" fill="black" cx="369.13212576852749" cy="460.92708780915143" r="0.8"/>
<circle id="178" fill="black" cx="362.65872374930905" cy="450.47218457314131" r="0.8"/>
<circle id="179" fill="black" cx="374.92945726784166" cy="449.67278836729815" r="0.8"/>
<circle id="180" fill="black" cx="381.49400672041736" cy="437.83912551330928" r="0.8"/>
<circle id="181" fill="black" cx="375.67649593353383" cy="427.00554329775150" r="0.8"/>
<circle id="182" fill="black" cx="387.97316745921819" cy="426.96306075804870" r="0.8"/>
<circle id="183" fill="black" cx="395.25375712766834" cy="415.55596208499190" r="0.8"/>
<circle id="184" fill="black" cx="390.11420538418253" cy="404.38479637801265" r="0.8"/>
<circle id="185" fill="black" cx="402.39016942999314" cy="405.09938865527477" r="0.8"/>
<circle id="186" fill="black" cx="410.35918154391408" cy="394.16212519564419" r="0.8"/>
<circle id="187" fill="black" cx="405.91708492401870" cy="382.69575205518385" r="0.8"/>
<circle id="188" fill="black" cx="418.12577455349390" cy="384.16470845613668" r="0.8"/>
<circle id="189" fill="black" cx="426.75297992034501" cy="373.73876899653067" r="0.8"/>
<circle id="190" fill="black" cx="423.02518881805253" cy="362.02068430344082" r="0.8"/>
<circle id="191" fill="black" cx="435.12029228963530" cy="364.23843257330003" r="0.8"/>
<circle id="192" fill="black" cx="444.37296496441826" cy="354.36336627324340" r="0.8"/>
<circle id="193" fill="black" cx="441.37362016824471" cy="342.43802073651273" r="0.8"/>
<circle id="194" fill="black" cx="453.30925661158091" cy="345.39614819645442" r="0.8"/>
<circle id="195" fill="black" cx="463.15229803756051" cy="336.10941456488928" r="0.8"/>
<circle id="196" fill="black" cx="460.89277708967103" cy="324.02204510487832" r="0.8"/>
<circle id="197" fill="black" cx="472.62367054746642" cy="327.70933056421171" r="0.8"/>
<circle id="198" fill="black" cx="483.01974269701674" cy="319.04615736274951" r="0.8"/>
<circle id="199" fill="black" cx="481.50861673431120" cy="306.84261551205736" r="0.8"/>
<circle id="200" fill="black" cx="492.99026790954525" cy="311.24507183404432" r="0.8"/>
<circle id="201" fill="black" cx="503.89993492007926" cy="303.23832144599970" r="0.8"/>
<circle id="202" fill="black" cx="503.14293616093403" cy="290.96489941889536" r="0.8"/>
<circle id="203" fill="black" cx="514.33179121793614" cy="296.06582657875123" r="0.8"/>
<circle id="204" fill="black" cx="525.71366898563917" cy="288.74587135086523" r="0.8"/>
<circle id="205" fill="black" cx="525.71366898563929" cy="276.44912644106262" r="0.8"/>
<circle id="206" fill="black" cx="536.56728476470539" cy="282.22917487487030" r="0.8"/>
<circle id="207" fill="black" cx="548.37819792861660" cy="275.62378190459668" r="0.8"/>
<circle id="208" fill="black" cx="549.13519668776212" cy="263.35035987749239" r="0.8"/>
<circle id="209" fill="black" cx="559.61240170659767" cy="269.78760388172623" r="0.8"/>
<circle id="210" fill="black" cx="571.80754742754266" cy="263.92182968711944" r="0.8"/>
<circle id="211" fill="black" cx="573.31867339024848" cy="251.71828783642735" r="0.8"/>
<circle id="212" fill="black" cx="583.37972402150274" cy="258.78830873965626" r="0.8"/>
<circle id="213" fill="black" cx="595.91284193460797" cy="253.68440421141645" r="0.8"/>
<circle id="214" fill="black" cx="598.17236288249774" cy="241.59703475140549" r="0.8"/>
<circle id="215" fill="black" cx="607.77909411495591" cy="249.27301354267826" r="0.8"/>
<circle id="216" fill="black" cx="620.60264181105981" cy="244.95033953890027" r="0.8"/>
<circle id="217" fill="black" cx="623.60198660723358" cy="233.02499400216965" r="0.8"/>
<circle id="218" fill="black" cx="632.71795681877654" cy="241.27781306470928" r="0.8"/>
<circle id="219" fill="black" cx="645.78329018907027" cy="237.75276696851739" r="0.8"/>
<circle id="220" fill="black" cx="649.51108129136298" cy="226.03468227542766" r="0.8"/>
<circle id="221" fill="black" cx="658.10171048452230" cy="234.83303583972565" r="0.8"/>
<circle id="222" fill="black" cx="671.35926824431715" cy="232.11898935838235" r="0.8"/>
<circle id="223" fill="black" cx="675.80136486421270" cy="220.65261621792200" r="0.8"/>
<circle id="224" fill="black" cx="683.83406583994565" cy="229.96312911524490" r="0.8"/>
<circle id="225" fill="black" cx="697.23355753160206" cy="228.07037755668495" r="0.8"/>
<circle id="226" fill="black" cx="702.37310927508804" cy="216.89921184970586" r="0.8"/>
<circle id="227" fill="black" cx="709.81741124718553" cy="226.68656611554218" r="0.8"/>
<circle id="228" fill="black" cx="723.30800800904308" cy="225.62228933474404" r="0.8"/>
<circle id="229" fill="black" cx="729.12551879592684" cy="214.78870711918631" r="0.8"/>
<circle id="230" fill="black" cx="735.95318297714221" cy="225.01577596638322" r="0.8"/>
<circle id="231" fill="black" cx="749.48371035480466" cy="224.78401112971858" r="0.8"/>
<circle id="232" fill="black" cx="755.95711237402327" cy="214.32910789370857" r="0.8"/>
<circle id="233" fill="black" cx="762.14223909546536" cy="224.95709654709259" r="0.8"/>
<circle id="234" fill="black" cx="775.66137116403308" cy="225.55872281797235" r="0.8"/>
<circle id="235" fill="black" cx="782.76610858441973" cy="215.52215759055940" r="0.8"/>
<circle id="236" fill="black" cx="788.28523554186802" cy="226.51075044880673" r="0.8"/>
<circle id="237" fill="black" cx="801.74168960275176" cy="227.94348565271315" r="0.8"/>
<circle id="238" fill="black" cx="809.45081172171433" cy="218.36333056358853" r="0.8"/>
<circle id="239" fill="black" cx="814.28300297617500" cy="229.67084413011020" r="0.8"/>
<circle id="240" fill="black" cx="827.62573408993819" cy="231.92925341166563" r="0.8"/>
<circle id="241" fill="black" cx="835.90999756670521" cy="222.84184927053383" r="0.8"/>
<circle id="242" fill="black" cx="840.03692296159966" cy="234.42539027325546" r="0.8"/>
<circle id="243" fill="black" cx="853.21531757889568" cy="237.50090671249126" r="0.8"/>
<circle id="244" fill="black" cx="862.04329736452507" cy="228.94072515593092" r="0.8"/>
<circle id="245" fill="black" cx="865.44930205825142" cy="240.75635325616622" r="0.8"/>
<circle id="246" fill="black" cx="878.41337001435568" cy="244.63731036578463" r="0.8"/>
<circle id="247" fill="black" cx="887.75157855770863" cy="236.63682309452372" r="0.8"/>
<circle id="248" fill="black" cx="890.42374240781874" cy="248.63971756772986" r="0.8"/>
<circle id="249" fill="black" cx="903.12430655244475" cy="253.31139354808528" r="0.8"/>
<circle id="250" fill="black" cx="912.93732082993779" cy="245.90094915071802" r="0.8"/>
<circle id="251" fill="black" cx="914.86550740366283" cy="258.04557890685567" r="0.8"/>
<circle id="252" fill="black" cx="927.25439014673748" cy="263.49025249078471" r="0.8"/>
<circle id="253" fill="black" cx="937.50498603400456" cy="256.69796132117949" r="0.8"/>
<circle id="254" fill="black" cx="938.68188105921649" cy="268.93825761973324" r="0.8"/>
<circle id="255" fill="black" cx="950.71208712498230" cy="275.13527529539061" r="0.8"/>
<circle id="256" fill="black" cx="961.36138060072835" cy="268.98690284048945" r="0.8"/>
<circle id="257" fill="black" cx="961.78251971147961" cy="281.27643404498025" r="0.8"/>
<circle id="258" fill="black" cx="973.40841440767122" cy="288.20228840168249" r="0.8"/>
<circle id="259" fill="black" cx="984.41600905408370" cy="282.72115754418365" r="0.8"/>
<circle id="260" fill="black" cx="984.07979472547595" cy="295.01330525326995" r="0.8"/>
<circle id="261" fill="black" cx="995.25727705134091" cy="302.64172415315772" r="0.8"/>
<circle id="262" fill="black" cx="1006.58141729153965" cy="297.84862669983318" r="0.8"/>
<circle id="263" fill="black" cx="1005.48912489968359" cy="310.09676258687534" r="0.8"/>
<circle id="264" fill="black" cx="1016.17579483618238" cy="318.39880882413036" r="0.8"/>
<circle id="265" fill="black" cx="1027.77352432742487" cy="314.31192663538053" r="0.8"/>
<circle id="266" fill="black" cx="1025.92929731150116" cy="326.46958932565508" r="0.8"/>
<circle id="267" fill="black" cx="1036.08461665910340" cy="335.41377039523337" r="0.8"/>
<circle id="268" fill="black" cx="1047.91194124090634" cy="332.04860641506326" r="0.8"/>
<circle id="269" fill="black" cx="1045.32277538568223" cy="344.06967772967147" r="0.8"/>
<circle id="270" fill="black" cx="1054.90822153964268" cy="353.62206528916272" r="0.8"/>
<circle id="271" fill="black" cx="1066.92027611870230" cy="350.99138473720501" r="0.8"/>
<circle id="272" fill="black" cx="1063.59599301712251" cy="362.83026463512221" r="0.8"/>
<circle id="273" fill="black" cx="1072.57520509691494" cy="372.95462320657231" r="0.8"/>
<circle id="274" fill="black" cx="1084.72642383577295" cy="371.06840515523680" r="0.8"/>
<circle id="275" fill="black" cx="1080.67963363229524" cy="382.68018470988699" r="0.8"/>
<circle id="276" fill="black" cx="1089.01855041088857" cy="393.33810913337976" r="0.8"/>
<circle id="277" fill="black" cx="1101.26283957476107" cy="392.20350865381363" r="0.8"/>
<circle id="278" fill="black" cx="1096.50889313075754" cy="403.54414040801072" r="0.8"/>
<circle id="279" fill="black" cx="1104.17588224051542" cy="414.69520152559238" r="0.8"/>
<circle id="280" fill="black" cx="1116.46679504661779" cy="414.31652254604484" r="0.8"/>
<circle id="281" fill="black" cx="1111.02372570930038" cy="425.34298759908484" r="0.8"/>
<circle id="282" fill="black" cx="1117.98970363438730" cy="436.94488561640912" r="0.8"/>
<circle id="283" fill="black" cx="1130.28061644048921" cy="437.32356459595690" r="0.8"/>
<circle id="284" fill="black" cx="1124.16907163624683" cy="447.99403578904372" r="0.8"/>
<circle id="285" fill="black" cx="1130.40761403636498" cy="460.00276073298051" r="0.8"/>
<circle id="286" fill="black" cx="1142.65190320023748" cy="461.13736121254681" r="0.8"/>
<circle id="287" fill="black" cx="1135.89506611187517" cy="471.41136179353214" r="0.8"/>
<circle id="288" fill="black" cx="1141.38250805883786" cy="483.78136045706901" r="0.8"/>
<circle id="289" fill="black" cx="1153.53372679769564" cy="485.66757850840480" r="0.8"/>
<circle id="290" fill="black" cx="1146.15722842268133" cy="495.50613567397352" r="0.8"/>
<circle id="291" fill="black" cx="1150.87275416959301" cy="508.19048441513485" r="0.8"/>
<circle id="292" fill="black" cx="1162.88480874865263" cy="510.82116496709284" r="0.8"/>
<circle id="293" fill="black" cx="1154.91663067196419" cy="520.18695769995531" r="0.8"/>
<circle id="294" fill="black" cx="1158.84235261447748" cy="533.13754043924769" r="0.8"/>
<circle id="295" fill="black" cx="1170.66967719628019" cy="536.50270441941814" r="0.8"/>
<circle id="296" fill="black" cx="1162.14004544667046" cy="545.36020505971180" r="0.8"/>
<circle id="297" fill="black" cx="1165.26107197679539" cy="558.52789580089507" r="0.8"/>
<circle id="298" fill="black" cx="1176.85880146803765" cy="562.61477798964518" r="0.8"/>
<circle id="299" fill="black" cx="1167.80007186035232" cy="570.93038700351792" r="0.8"/>
<circle id="300" fill="black" cx="1170.10456385542807" cy="584.26523618533588" r="0.8"/>
<circle id="301" fill="black" cx="1181.42870409562693" cy="589.05833363866077" r="0.8"/>
<circle id="302" fill="black" cx="1171.87523949411775" cy="596.80050707281146" r="0.8"/>
<circle id="303" fill="black" cx="1173.35445522665827" cy="610.25193104478535" r="0.8"/>
<circle id="304" fill="black" cx="1184.36204987307065" cy="615.73306190228436" r="0.8"/>
<circle id="305" fill="black" cx="1174.35008984128058" cy="622.87243104098229" r="0.8"/>
<!--<circle cx="750.00000000000000" cy="650.00000000000000" r="425.00000000000000" style="stroke:#cccccc;stroke-width:0.5"/>-->
<circle id="306" fill="black" cx="750.00000000000000" cy="650.00000000000000" r="0.8"/>
</g></svg>