<svg width="1500" height="1500" xmlns="http://www.w3.org/2000/svg"><g stroke-width="0.5" fill="none"><path id="gear0" stroke="red" d="M 1166.595 636.966 A 5.075 5.075 0 0 0 1169.242 641.368 L 1176.907 645.543 A 5.075 5.075 0 0 1 1179.553 649.945 L 1179.553 650.055 A 5.075 5.075 0 0 1 1176.907 654.457 L 1169.242 658.632 A 5.075 5.075 0 0 0 1166.595 663.034 L 1166.592 663.150 A 5.075 5.075 0 0 0 1168.957 667.709 L 1176.344 672.358 A 5.075 5.075 0 0 1 1178.709 676.917 L 1178.702 677.027 A 5.075 5.075 0 0 1 1175.784 681.254 L 1167.873 684.940 A 5.075 5.075 0 0 0 1164.955 689.167 L 1164.944 689.282 A 5.075 5.075 0 0 0 1167.018 693.981 L 1174.099 699.084 A 5.075 5.075 0 0 1 1176.173 703.783 L 1176.159 703.892 A 5.075 5.075 0 0 1 1172.982 707.927 L 1164.854 711.109 A 5.075 5.075 0 0 0 1161.677 715.145 L 1161.659 715.259 A 5.075 5.075 0 0 0 1163.434 720.079 L 1170.180 725.617 A 5.075 5.075 0 0 1 1171.955 730.436 L 1171.935 730.544 A 5.075 5.075 0 0 1 1168.510 734.372 L 1160.199 737.038 A 5.075 5.075 0 0 0 1156.774 740.866 L 1156.749 740.978 A 5.075 5.075 0 0 0 1158.218 745.900 L 1164.603 751.851 A 5.075 5.075 0 0 1 1166.072 756.773 L 1166.045 756.879 A 5.075 5.075 0 0 1 1162.386 760.484 L 1153.924 762.623 A 5.075 5.075 0 0 0 1150.266 766.228 L 1150.234 766.339 A 5.075 5.075 0 0 0 1151.391 771.343 L 1157.390 777.683 A 5.075 5.075 0 0 1 1158.547 782.687 L 1158.513 782.791 A 5.075 5.075 0 0 1 1154.635 786.160 L 1146.055 787.763 A 5.075 5.075 0 0 0 1142.178 791.131 L 1142.139 791.240 A 5.075 5.075 0 0 0 1142.979 796.307 L 1148.568 803.011 A 5.075 5.075 0 0 1 1149.409 808.078 L 1149.369 808.180 A 5.075 5.075 0 0 1 1145.287 811.299 L 1136.624 812.360 A 5.075 5.075 0 0 0 1132.542 815.478 L 1132.496 815.584 A 5.075 5.075 0 0 0 1133.017 820.694 L 1138.174 827.736 A 5.075 5.075 0 0 1 1138.695 832.845 L 1138.648 832.945 A 5.075 5.075 0 0 1 1134.379 835.801 L 1125.666 836.316 A 5.075 5.075 0 0 0 1121.397 839.171 L 1121.345 839.274 A 5.075 5.075 0 0 0 1121.543 844.407 L 1126.248 851.758 A 5.075 5.075 0 0 1 1126.447 856.891 L 1126.394 856.987 A 5.075 5.075 0 0 1 1121.954 859.569 L 1113.226 859.536 A 5.075 5.075 0 0 0 1108.786 862.118 L 1108.727 862.218 A 5.075 5.075 0 0 0 1108.603 867.353 L 1112.837 874.985 A 5.075 5.075 0 0 1 1112.713 880.120 L 1112.655 880.213 A 5.075 5.075 0 0 1 1108.061 882.511 L 1099.352 881.930 A 5.075 5.075 0 0 0 1094.759 884.228 L 1094.694 884.324 A 5.075 5.075 0 0 0 1094.248 889.441 L 1097.994 897.324 A 5.075 5.075 0 0 1 1097.548 902.441 L 1097.484 902.530 A 5.075 5.075 0 0 1 1092.755 904.535 L 1084.100 903.408 A 5.075 5.075 0 0 0 1079.371 905.414 L 1079.301 905.505 A 5.075 5.075 0 0 0 1078.534 910.584 L 1081.778 918.687 A 5.075 5.075 0 0 1 1081.012 923.765 L 1080.942 923.850 A 5.075 5.075 0 0 1 1076.096 925.554 L 1067.529 923.886 A 5.075 5.075 0 0 0 1062.684 925.591 L 1062.608 925.677 A 5.075 5.075 0 0 0 1061.524 930.698 L 1064.252 938.989 A 5.075 5.075 0 0 1 1063.169 944.010 L 1063.094 944.090 A 5.075 5.075 0 0 1 1058.151 945.487 L 1049.705 943.284 A 5.075 5.075 0 0 0 1044.762 944.681 L 1044.681 944.762 A 5.075 5.075 0 0 0 1043.284 949.705 L 1045.487 958.151 A 5.075 5.075 0 0 1 1044.090 963.094 L 1044.010 963.169 A 5.075 5.075 0 0 1 1038.989 964.252 L 1030.698 961.524 A 5.075 5.075 0 0 0 1025.677 962.608 L 1025.591 962.684 A 5.075 5.075 0 0 0 1023.886 967.529 L 1025.554 976.096 A 5.075 5.075 0 0 1 1023.850 980.942 L 1023.765 981.012 A 5.075 5.075 0 0 1 1018.687 981.778 L 1010.584 978.534 A 5.075 5.075 0 0 0 1005.505 979.301 L 1005.414 979.371 A 5.075 5.075 0 0 0 1003.408 984.100 L 1004.535 992.755 A 5.075 5.075 0 0 1 1002.530 997.484 L 1002.441 997.548 A 5.075 5.075 0 0 1 997.324 997.994 L 989.441 994.248 A 5.075 5.075 0 0 0 984.324 994.694 L 984.228 994.759 A 5.075 5.075 0 0 0 981.930 999.352 L 982.511 1008.061 A 5.075 5.075 0 0 1 980.213 1012.655 L 980.120 1012.713 A 5.075 5.075 0 0 1 974.985 1012.837 L 967.353 1008.603 A 5.075 5.075 0 0 0 962.218 1008.727 L 962.118 1008.786 A 5.075 5.075 0 0 0 959.536 1013.226 L 959.569 1021.954 A 5.075 5.075 0 0 1 956.987 1026.394 L 956.891 1026.447 A 5.075 5.075 0 0 1 951.758 1026.248 L 944.407 1021.543 A 5.075 5.075 0 0 0 939.274 1021.345 L 939.171 1021.397 A 5.075 5.075 0 0 0 936.316 1025.666 L 935.801 1034.379 A 5.075 5.075 0 0 1 932.945 1038.648 L 932.845 1038.695 A 5.075 5.075 0 0 1 927.736 1038.174 L 920.694 1033.017 A 5.075 5.075 0 0 0 915.584 1032.496 L 915.478 1032.542 A 5.075 5.075 0 0 0 912.360 1036.624 L 911.299 1045.287 A 5.075 5.075 0 0 1 908.180 1049.369 L 908.078 1049.409 A 5.075 5.075 0 0 1 903.011 1048.568 L 896.307 1042.979 A 5.075 5.075 0 0 0 891.240 1042.139 L 891.131 1042.178 A 5.075 5.075 0 0 0 887.763 1046.055 L 886.160 1054.635 A 5.075 5.075 0 0 1 882.791 1058.513 L 882.687 1058.547 A 5.075 5.075 0 0 1 877.683 1057.390 L 871.343 1051.391 A 5.075 5.075 0 0 0 866.339 1050.234 L 866.228 1050.266 A 5.075 5.075 0 0 0 862.623 1053.924 L 860.484 1062.386 A 5.075 5.075 0 0 1 856.879 1066.045 L 856.773 1066.072 A 5.075 5.075 0 0 1 851.851 1064.603 L 845.900 1058.218 A 5.075 5.075 0 0 0 840.978 1056.749 L 840.866 1056.774 A 5.075 5.075 0 0 0 837.038 1060.199 L 834.372 1068.510 A 5.075 5.075 0 0 1 830.544 1071.935 L 830.436 1071.955 A 5.075 5.075 0 0 1 825.617 1070.180 L 820.079 1063.434 A 5.075 5.075 0 0 0 815.259 1061.659 L 815.145 1061.677 A 5.075 5.075 0 0 0 811.109 1064.854 L 807.927 1072.982 A 5.075 5.075 0 0 1 803.892 1076.159 L 803.783 1076.173 A 5.075 5.075 0 0 1 799.084 1074.099 L 793.981 1067.018 A 5.075 5.075 0 0 0 789.282 1064.944 L 789.167 1064.955 A 5.075 5.075 0 0 0 784.940 1067.873 L 781.254 1075.784 A 5.075 5.075 0 0 1 777.027 1078.702 L 776.917 1078.709 A 5.075 5.075 0 0 1 772.358 1076.344 L 767.709 1068.957 A 5.075 5.075 0 0 0 763.150 1066.592 L 763.034 1066.595 A 5.075 5.075 0 0 0 758.632 1069.242 L 754.457 1076.907 A 5.075 5.075 0 0 1 750.055 1079.553 L 749.945 1079.553 A 5.075 5.075 0 0 1 745.543 1076.907 L 741.368 1069.242 A 5.075 5.075 0 0 0 736.966 1066.595 L 736.850 1066.592 A 5.075 5.075 0 0 0 732.291 1068.957 L 727.642 1076.344 A 5.075 5.075 0 0 1 723.083 1078.709 L 722.973 1078.702 A 5.075 5.075 0 0 1 718.746 1075.784 L 715.060 1067.873 A 5.075 5.075 0 0 0 710.833 1064.955 L 710.718 1064.944 A 5.075 5.075 0 0 0 706.019 1067.018 L 700.916 1074.099 A 5.075 5.075 0 0 1 696.217 1076.173 L 696.108 1076.159 A 5.075 5.075 0 0 1 692.073 1072.982 L 688.891 1064.854 A 5.075 5.075 0 0 0 684.855 1061.677 L 684.741 1061.659 A 5.075 5.075 0 0 0 679.921 1063.434 L 674.383 1070.180 A 5.075 5.075 0 0 1 669.564 1071.955 L 669.456 1071.935 A 5.075 5.075 0 0 1 665.628 1068.510 L 662.962 1060.199 A 5.075 5.075 0 0 0 659.134 1056.774 L 659.022 1056.749 A 5.075 5.075 0 0 0 654.100 1058.218 L 648.149 1064.603 A 5.075 5.075 0 0 1 643.227 1066.072 L 643.121 1066.045 A 5.075 5.075 0 0 1 639.516 1062.386 L 637.377 1053.924 A 5.075 5.075 0 0 0 633.772 1050.266 L 633.661 1050.234 A 5.075 5.075 0 0 0 628.657 1051.391 L 622.317 1057.390 A 5.075 5.075 0 0 1 617.313 1058.547 L 617.209 1058.513 A 5.075 5.075 0 0 1 613.840 1054.635 L 612.237 1046.055 A 5.075 5.075 0 0 0 608.869 1042.178 L 608.760 1042.139 A 5.075 5.075 0 0 0 603.693 1042.979 L 596.989 1048.568 A 5.075 5.075 0 0 1 591.922 1049.409 L 591.820 1049.369 A 5.075 5.075 0 0 1 588.701 1045.287 L 587.640 1036.624 A 5.075 5.075 0 0 0 584.522 1032.542 L 584.416 1032.496 A 5.075 5.075 0 0 0 579.306 1033.017 L 572.264 1038.174 A 5.075 5.075 0 0 1 567.155 1038.695 L 567.055 1038.648 A 5.075 5.075 0 0 1 564.199 1034.379 L 563.684 1025.666 A 5.075 5.075 0 0 0 560.829 1021.397 L 560.726 1021.345 A 5.075 5.075 0 0 0 555.593 1021.543 L 548.242 1026.248 A 5.075 5.075 0 0 1 543.109 1026.447 L 543.013 1026.394 A 5.075 5.075 0 0 1 540.431 1021.954 L 540.464 1013.226 A 5.075 5.075 0 0 0 537.882 1008.786 L 537.782 1008.727 A 5.075 5.075 0 0 0 532.647 1008.603 L 525.015 1012.837 A 5.075 5.075 0 0 1 519.880 1012.713 L 519.787 1012.655 A 5.075 5.075 0 0 1 517.489 1008.061 L 518.070 999.352 A 5.075 5.075 0 0 0 515.772 994.759 L 515.676 994.694 A 5.075 5.075 0 0 0 510.559 994.248 L 502.676 997.994 A 5.075 5.075 0 0 1 497.559 997.548 L 497.470 997.484 A 5.075 5.075 0 0 1 495.465 992.755 L 496.592 984.100 A 5.075 5.075 0 0 0 494.586 979.371 L 494.495 979.301 A 5.075 5.075 0 0 0 489.416 978.534 L 481.313 981.778 A 5.075 5.075 0 0 1 476.235 981.012 L 476.150 980.942 A 5.075 5.075 0 0 1 474.446 976.096 L 476.114 967.529 A 5.075 5.075 0 0 0 474.409 962.684 L 474.323 962.608 A 5.075 5.075 0 0 0 469.302 961.524 L 461.011 964.252 A 5.075 5.075 0 0 1 455.990 963.169 L 455.910 963.094 A 5.075 5.075 0 0 1 454.513 958.151 L 456.716 949.705 A 5.075 5.075 0 0 0 455.319 944.762 L 455.238 944.681 A 5.075 5.075 0 0 0 450.295 943.284 L 441.849 945.487 A 5.075 5.075 0 0 1 436.906 944.090 L 436.831 944.010 A 5.075 5.075 0 0 1 435.748 938.989 L 438.476 930.698 A 5.075 5.075 0 0 0 437.392 925.677 L 437.316 925.591 A 5.075 5.075 0 0 0 432.471 923.886 L 423.904 925.554 A 5.075 5.075 0 0 1 419.058 923.850 L 418.988 923.765 A 5.075 5.075 0 0 1 418.222 918.687 L 421.466 910.584 A 5.075 5.075 0 0 0 420.699 905.505 L 420.629 905.414 A 5.075 5.075 0 0 0 415.900 903.408 L 407.245 904.535 A 5.075 5.075 0 0 1 402.516 902.530 L 402.452 902.441 A 5.075 5.075 0 0 1 402.006 897.324 L 405.752 889.441 A 5.075 5.075 0 0 0 405.306 884.324 L 405.241 884.228 A 5.075 5.075 0 0 0 400.648 881.930 L 391.939 882.511 A 5.075 5.075 0 0 1 387.345 880.213 L 387.287 880.120 A 5.075 5.075 0 0 1 387.163 874.985 L 391.397 867.353 A 5.075 5.075 0 0 0 391.273 862.218 L 391.214 862.118 A 5.075 5.075 0 0 0 386.774 859.536 L 378.046 859.569 A 5.075 5.075 0 0 1 373.606 856.987 L 373.553 856.891 A 5.075 5.075 0 0 1 373.752 851.758 L 378.457 844.407 A 5.075 5.075 0 0 0 378.655 839.274 L 378.603 839.171 A 5.075 5.075 0 0 0 374.334 836.316 L 365.621 835.801 A 5.075 5.075 0 0 1 361.352 832.945 L 361.305 832.845 A 5.075 5.075 0 0 1 361.826 827.736 L 366.983 820.694 A 5.075 5.075 0 0 0 367.504 815.584 L 367.458 815.478 A 5.075 5.075 0 0 0 363.376 812.360 L 354.713 811.299 A 5.075 5.075 0 0 1 350.631 808.180 L 350.591 808.078 A 5.075 5.075 0 0 1 351.432 803.011 L 357.021 796.307 A 5.075 5.075 0 0 0 357.861 791.240 L 357.822 791.131 A 5.075 5.075 0 0 0 353.945 787.763 L 345.365 786.160 A 5.075 5.075 0 0 1 341.487 782.791 L 341.453 782.687 A 5.075 5.075 0 0 1 342.610 777.683 L 348.609 771.343 A 5.075 5.075 0 0 0 349.766 766.339 L 349.734 766.228 A 5.075 5.075 0 0 0 346.076 762.623 L 337.614 760.484 A 5.075 5.075 0 0 1 333.955 756.879 L 333.928 756.773 A 5.075 5.075 0 0 1 335.397 751.851 L 341.782 745.900 A 5.075 5.075 0 0 0 343.251 740.978 L 343.226 740.866 A 5.075 5.075 0 0 0 339.801 737.038 L 331.490 734.372 A 5.075 5.075 0 0 1 328.065 730.544 L 328.045 730.436 A 5.075 5.075 0 0 1 329.820 725.617 L 336.566 720.079 A 5.075 5.075 0 0 0 338.341 715.259 L 338.323 715.145 A 5.075 5.075 0 0 0 335.146 711.109 L 327.018 707.927 A 5.075 5.075 0 0 1 323.841 703.892 L 323.827 703.783 A 5.075 5.075 0 0 1 325.901 699.084 L 332.982 693.981 A 5.075 5.075 0 0 0 335.056 689.282 L 335.045 689.167 A 5.075 5.075 0 0 0 332.127 684.940 L 324.216 681.254 A 5.075 5.075 0 0 1 321.298 677.027 L 321.291 676.917 A 5.075 5.075 0 0 1 323.656 672.358 L 331.043 667.709 A 5.075 5.075 0 0 0 333.408 663.150 L 333.405 663.034 A 5.075 5.075 0 0 0 330.758 658.632 L 323.093 654.457 A 5.075 5.075 0 0 1 320.447 650.055 L 320.447 649.945 A 5.075 5.075 0 0 1 323.093 645.543 L 330.758 641.368 A 5.075 5.075 0 0 0 333.405 636.966 L 333.408 636.850 A 5.075 5.075 0 0 0 331.043 632.291 L 323.656 627.642 A 5.075 5.075 0 0 1 321.291 623.083 L 321.298 622.973 A 5.075 5.075 0 0 1 324.216 618.746 L 332.127 615.060 A 5.075 5.075 0 0 0 335.045 610.833 L 335.056 610.718 A 5.075 5.075 0 0 0 332.982 606.019 L 325.901 600.916 A 5.075 5.075 0 0 1 323.827 596.217 L 323.841 596.108 A 5.075 5.075 0 0 1 327.018 592.073 L 335.146 588.891 A 5.075 5.075 0 0 0 338.323 584.855 L 338.341 584.741 A 5.075 5.075 0 0 0 336.566 579.921 L 329.820 574.383 A 5.075 5.075 0 0 1 328.045 569.564 L 328.065 569.456 A 5.075 5.075 0 0 1 331.490 565.628 L 339.801 562.962 A 5.075 5.075 0 0 0 343.226 559.134 L 343.251 559.022 A 5.075 5.075 0 0 0 341.782 554.100 L 335.397 548.149 A 5.075 5.075 0 0 1 333.928 543.227 L 333.955 543.121 A 5.075 5.075 0 0 1 337.614 539.516 L 346.076 537.377 A 5.075 5.075 0 0 0 349.734 533.772 L 349.766 533.661 A 5.075 5.075 0 0 0 348.609 528.657 L 342.610 522.317 A 5.075 5.075 0 0 1 341.453 517.313 L 341.487 517.209 A 5.075 5.075 0 0 1 345.365 513.840 L 353.945 512.237 A 5.075 5.075 0 0 0 357.822 508.869 L 357.861 508.760 A 5.075 5.075 0 0 0 357.021 503.693 L 351.432 496.989 A 5.075 5.075 0 0 1 350.591 491.922 L 350.631 491.820 A 5.075 5.075 0 0 1 354.713 488.701 L 363.376 487.640 A 5.075 5.075 0 0 0 367.458 484.522 L 367.504 484.416 A 5.075 5.075 0 0 0 366.983 479.306 L 361.826 472.264 A 5.075 5.075 0 0 1 361.305 467.155 L 361.352 467.055 A 5.075 5.075 0 0 1 365.621 464.199 L 374.334 463.684 A 5.075 5.075 0 0 0 378.603 460.829 L 378.655 460.726 A 5.075 5.075 0 0 0 378.457 455.593 L 373.752 448.242 A 5.075 5.075 0 0 1 373.553 443.109 L 373.606 443.013 A 5.075 5.075 0 0 1 378.046 440.431 L 386.774 440.464 A 5.075 5.075 0 0 0 391.214 437.882 L 391.273 437.782 A 5.075 5.075 0 0 0 391.397 432.647 L 387.163 425.015 A 5.075 5.075 0 0 1 387.287 419.880 L 387.345 419.787 A 5.075 5.075 0 0 1 391.939 417.489 L 400.648 418.070 A 5.075 5.075 0 0 0 405.241 415.772 L 405.306 415.676 A 5.075 5.075 0 0 0 405.752 410.559 L 402.006 402.676 A 5.075 5.075 0 0 1 402.452 397.559 L 402.516 397.470 A 5.075 5.075 0 0 1 407.245 395.465 L 415.900 396.592 A 5.075 5.075 0 0 0 420.629 394.586 L 420.699 394.495 A 5.075 5.075 0 0 0 421.466 389.416 L 418.222 381.313 A 5.075 5.075 0 0 1 418.988 376.235 L 419.058 376.150 A 5.075 5.075 0 0 1 423.904 374.446 L 432.471 376.114 A 5.075 5.075 0 0 0 437.316 374.409 L 437.392 374.323 A 5.075 5.075 0 0 0 438.476 369.302 L 435.748 361.011 A 5.075 5.075 0 0 1 436.831 355.990 L 436.906 355.910 A 5.075 5.075 0 0 1 441.849 354.513 L 450.295 356.716 A 5.075 5.075 0 0 0 455.238 355.319 L 455.319 355.238 A 5.075 5.075 0 0 0 456.716 350.295 L 454.513 341.849 A 5.075 5.075 0 0 1 455.910 336.906 L 455.990 336.831 A 5.075 5.075 0 0 1 461.011 335.748 L 469.302 338.476 A 5.075 5.075 0 0 0 474.323 337.392 L 474.409 337.316 A 5.075 5.075 0 0 0 476.114 332.471 L 474.446 323.904 A 5.075 5.075 0 0 1 476.150 319.058 L 476.235 318.988 A 5.075 5.075 0 0 1 481.313 318.222 L 489.416 321.466 A 5.075 5.075 0 0 0 494.495 320.699 L 494.586 320.629 A 5.075 5.075 0 0 0 496.592 315.900 L 495.465 307.245 A 5.075 5.075 0 0 1 497.470 302.516 L 497.559 302.452 A 5.075 5.075 0 0 1 502.676 302.006 L 510.559 305.752 A 5.075 5.075 0 0 0 515.676 305.306 L 515.772 305.241 A 5.075 5.075 0 0 0 518.070 300.648 L 517.489 291.939 A 5.075 5.075 0 0 1 519.787 287.345 L 519.880 287.287 A 5.075 5.075 0 0 1 525.015 287.163 L 532.647 291.397 A 5.075 5.075 0 0 0 537.782 291.273 L 537.882 291.214 A 5.075 5.075 0 0 0 540.464 286.774 L 540.431 278.046 A 5.075 5.075 0 0 1 543.013 273.606 L 543.109 273.553 A 5.075 5.075 0 0 1 548.242 273.752 L 555.593 278.457 A 5.075 5.075 0 0 0 560.726 278.655 L 560.829 278.603 A 5.075 5.075 0 0 0 563.684 274.334 L 564.199 265.621 A 5.075 5.075 0 0 1 567.055 261.352 L 567.155 261.305 A 5.075 5.075 0 0 1 572.264 261.826 L 579.306 266.983 A 5.075 5.075 0 0 0 584.416 267.504 L 584.522 267.458 A 5.075 5.075 0 0 0 587.640 263.376 L 588.701 254.713 A 5.075 5.075 0 0 1 591.820 250.631 L 591.922 250.591 A 5.075 5.075 0 0 1 596.989 251.432 L 603.693 257.021 A 5.075 5.075 0 0 0 608.760 257.861 L 608.869 257.822 A 5.075 5.075 0 0 0 612.237 253.945 L 613.840 245.365 A 5.075 5.075 0 0 1 617.209 241.487 L 617.313 241.453 A 5.075 5.075 0 0 1 622.317 242.610 L 628.657 248.609 A 5.075 5.075 0 0 0 633.661 249.766 L 633.772 249.734 A 5.075 5.075 0 0 0 637.377 246.076 L 639.516 237.614 A 5.075 5.075 0 0 1 643.121 233.955 L 643.227 233.928 A 5.075 5.075 0 0 1 648.149 235.397 L 654.100 241.782 A 5.075 5.075 0 0 0 659.022 243.251 L 659.134 243.226 A 5.075 5.075 0 0 0 662.962 239.801 L 665.628 231.490 A 5.075 5.075 0 0 1 669.456 228.065 L 669.564 228.045 A 5.075 5.075 0 0 1 674.383 229.820 L 679.921 236.566 A 5.075 5.075 0 0 0 684.741 238.341 L 684.855 238.323 A 5.075 5.075 0 0 0 688.891 235.146 L 692.073 227.018 A 5.075 5.075 0 0 1 696.108 223.841 L 696.217 223.827 A 5.075 5.075 0 0 1 700.916 225.901 L 706.019 232.982 A 5.075 5.075 0 0 0 710.718 235.056 L 710.833 235.045 A 5.075 5.075 0 0 0 715.060 232.127 L 718.746 224.216 A 5.075 5.075 0 0 1 722.973 221.298 L 723.083 221.291 A 5.075 5.075 0 0 1 727.642 223.656 L 732.291 231.043 A 5.075 5.075 0 0 0 736.850 233.408 L 736.966 233.405 A 5.075 5.075 0 0 0 741.368 230.758 L 745.543 223.093 A 5.075 5.075 0 0 1 749.945 220.447 L 750.055 220.447 A 5.075 5.075 0 0 1 754.457 223.093 L 758.632 230.758 A 5.075 5.075 0 0 0 763.034 233.405 L 763.150 233.408 A 5.075 5.075 0 0 0 767.709 231.043 L 772.358 223.656 A 5.075 5.075 0 0 1 776.917 221.291 L 777.027 221.298 A 5.075 5.075 0 0 1 781.254 224.216 L 784.940 232.127 A 5.075 5.075 0 0 0 789.167 235.045 L 789.282 235.056 A 5.075 5.075 0 0 0 793.981 232.982 L 799.084 225.901 A 5.075 5.075 0 0 1 803.783 223.827 L 803.892 223.841 A 5.075 5.075 0 0 1 807.927 227.018 L 811.109 235.146 A 5.075 5.075 0 0 0 815.145 238.323 L 815.259 238.341 A 5.075 5.075 0 0 0 820.079 236.566 L 825.617 229.820 A 5.075 5.075 0 0 1 830.436 228.045 L 830.544 228.065 A 5.075 5.075 0 0 1 834.372 231.490 L 837.038 239.801 A 5.075 5.075 0 0 0 840.866 243.226 L 840.978 243.251 A 5.075 5.075 0 0 0 845.900 241.782 L 851.851 235.397 A 5.075 5.075 0 0 1 856.773 233.928 L 856.879 233.955 A 5.075 5.075 0 0 1 860.484 237.614 L 862.623 246.076 A 5.075 5.075 0 0 0 866.228 249.734 L 866.339 249.766 A 5.075 5.075 0 0 0 871.343 248.609 L 877.683 242.610 A 5.075 5.075 0 0 1 882.687 241.453 L 882.791 241.487 A 5.075 5.075 0 0 1 886.160 245.365 L 887.763 253.945 A 5.075 5.075 0 0 0 891.131 257.822 L 891.240 257.861 A 5.075 5.075 0 0 0 896.307 257.021 L 903.011 251.432 A 5.075 5.075 0 0 1 908.078 250.591 L 908.180 250.631 A 5.075 5.075 0 0 1 911.299 254.713 L 912.360 263.376 A 5.075 5.075 0 0 0 915.478 267.458 L 915.584 267.504 A 5.075 5.075 0 0 0 920.694 266.983 L 927.736 261.826 A 5.075 5.075 0 0 1 932.845 261.305 L 932.945 261.352 A 5.075 5.075 0 0 1 935.801 265.621 L 936.316 274.334 A 5.075 5.075 0 0 0 939.171 278.603 L 939.274 278.655 A 5.075 5.075 0 0 0 944.407 278.457 L 951.758 273.752 A 5.075 5.075 0 0 1 956.891 273.553 L 956.987 273.606 A 5.075 5.075 0 0 1 959.569 278.046 L 959.536 286.774 A 5.075 5.075 0 0 0 962.118 291.214 L 962.218 291.273 A 5.075 5.075 0 0 0 967.353 291.397 L 974.985 287.163 A 5.075 5.075 0 0 1 980.120 287.287 L 980.213 287.345 A 5.075 5.075 0 0 1 982.511 291.939 L 981.930 300.648 A 5.075 5.075 0 0 0 984.228 305.241 L 984.324 305.306 A 5.075 5.075 0 0 0 989.441 305.752 L 997.324 302.006 A 5.075 5.075 0 0 1 1002.441 302.452 L 1002.530 302.516 A 5.075 5.075 0 0 1 1004.535 307.245 L 1003.408 315.900 A 5.075 5.075 0 0 0 1005.414 320.629 L 1005.505 320.699 A 5.075 5.075 0 0 0 1010.584 321.466 L 1018.687 318.222 A 5.075 5.075 0 0 1 1023.765 318.988 L 1023.850 319.058 A 5.075 5.075 0 0 1 1025.554 323.904 L 1023.886 332.471 A 5.075 5.075 0 0 0 1025.591 337.316 L 1025.677 337.392 A 5.075 5.075 0 0 0 1030.698 338.476 L 1038.989 335.748 A 5.075 5.075 0 0 1 1044.010 336.831 L 1044.090 336.906 A 5.075 5.075 0 0 1 1045.487 341.849 L 1043.284 350.295 A 5.075 5.075 0 0 0 1044.681 355.238 L 1044.762 355.319 A 5.075 5.075 0 0 0 1049.705 356.716 L 1058.151 354.513 A 5.075 5.075 0 0 1 1063.094 355.910 L 1063.169 355.990 A 5.075 5.075 0 0 1 1064.252 361.011 L 1061.524 369.302 A 5.075 5.075 0 0 0 1062.608 374.323 L 1062.684 374.409 A 5.075 5.075 0 0 0 1067.529 376.114 L 1076.096 374.446 A 5.075 5.075 0 0 1 1080.942 376.150 L 1081.012 376.235 A 5.075 5.075 0 0 1 1081.778 381.313 L 1078.534 389.416 A 5.075 5.075 0 0 0 1079.301 394.495 L 1079.371 394.586 A 5.075 5.075 0 0 0 1084.100 396.592 L 1092.755 395.465 A 5.075 5.075 0 0 1 1097.484 397.470 L 1097.548 397.559 A 5.075 5.075 0 0 1 1097.994 402.676 L 1094.248 410.559 A 5.075 5.075 0 0 0 1094.694 415.676 L 1094.759 415.772 A 5.075 5.075 0 0 0 1099.352 418.070 L 1108.061 417.489 A 5.075 5.075 0 0 1 1112.655 419.787 L 1112.713 419.880 A 5.075 5.075 0 0 1 1112.837 425.015 L 1108.603 432.647 A 5.075 5.075 0 0 0 1108.727 437.782 L 1108.786 437.882 A 5.075 5.075 0 0 0 1113.226 440.464 L 1121.954 440.431 A 5.075 5.075 0 0 1 1126.394 443.013 L 1126.447 443.109 A 5.075 5.075 0 0 1 1126.248 448.242 L 1121.543 455.593 A 5.075 5.075 0 0 0 1121.345 460.726 L 1121.397 460.829 A 5.075 5.075 0 0 0 1125.666 463.684 L 1134.379 464.199 A 5.075 5.075 0 0 1 1138.648 467.055 L 1138.695 467.155 A 5.075 5.075 0 0 1 1138.174 472.264 L 1133.017 479.306 A 5.075 5.075 0 0 0 1132.496 484.416 L 1132.542 484.522 A 5.075 5.075 0 0 0 1136.624 487.640 L 1145.287 488.701 A 5.075 5.075 0 0 1 1149.369 491.820 L 1149.409 491.922 A 5.075 5.075 0 0 1 1148.568 496.989 L 1142.979 503.693 A 5.075 5.075 0 0 0 1142.139 508.760 L 1142.178 508.869 A 5.075 5.075 0 0 0 1146.055 512.237 L 1154.635 513.840 A 5.075 5.075 0 0 1 1158.513 517.209 L 1158.547 517.313 A 5.075 5.075 0 0 1 1157.390 522.317 L 1151.391 528.657 A 5.075 5.075 0 0 0 1150.234 533.661 L 1150.266 533.772 A 5.075 5.075 0 0 0 1153.924 537.377 L 1162.386 539.516 A 5.075 5.075 0 0 1 1166.045 543.121 L 1166.072 543.227 A 5.075 5.075 0 0 1 1164.603 548.149 L 1158.218 554.100 A 5.075 5.075 0 0 0 1156.749 559.022 L 1156.774 559.134 A 5.075 5.075 0 0 0 1160.199 562.962 L 1168.510 565.628 A 5.075 5.075 0 0 1 1171.935 569.456 L 1171.955 569.564 A 5.075 5.075 0 0 1 1170.180 574.383 L 1163.434 579.921 A 5.075 5.075 0 0 0 1161.659 584.741 L 1161.677 584.855 A 5.075 5.075 0 0 0 1164.854 588.891 L 1172.982 592.073 A 5.075 5.075 0 0 1 1176.159 596.108 L 1176.173 596.217 A 5.075 5.075 0 0 1 1174.099 600.916 L 1167.018 606.019 A 5.075 5.075 0 0 0 1164.944 610.718 L 1164.955 610.833 A 5.075 5.075 0 0 0 1167.873 615.060 L 1175.784 618.746 A 5.075 5.075 0 0 1 1178.702 622.973 L 1178.709 623.083 A 5.075 5.075 0 0 1 1176.344 627.642 L 1168.957 632.291 A 5.075 5.075 0 0 0 1166.592 636.850 Z"/>
<circle id="0" fill="black" cx="750.00000000000000" cy="650.00000000000000"  r="0.8" />
</g></svg>