<svg width="1500" height="1500" xmlns="http://www.w3.org/2000/svg"><g stroke-width="0.5" fill="none"><path id="gear0" stroke="red" d="M 1175.751 639.863 A 5.075 5.075 0 0 0 1177.451 641.368 L 1185.116 645.543 A 5.075 5.075 0 0 1 1187.763 649.945 L 1187.763 650.055 A 5.075 5.075 0 0 1 1185.116 654.457 L 1177.451 658.632 A 5.075 5.075 0 0 0 1175.751 660.137 L 1175.568 666.092 A 5.075 5.075 0 0 0 1177.172 667.698 L 1184.565 672.338 A 5.075 5.075 0 0 1 1186.936 676.894 L 1186.929 677.004 A 5.075 5.075 0 0 1 1184.016 681.234 L 1176.109 684.930 A 5.075 5.075 0 0 0 1174.320 686.327 L 1173.770 692.260 A 5.075 5.075 0 0 0 1175.272 693.962 L 1182.366 699.048 A 5.075 5.075 0 0 1 1184.452 703.742 L 1184.438 703.850 A 5.075 5.075 0 0 1 1181.270 707.894 L 1173.151 711.096 A 5.075 5.075 0 0 0 1171.279 712.380 L 1170.365 718.267 A 5.075 5.075 0 0 0 1171.760 720.058 L 1178.526 725.572 A 5.075 5.075 0 0 1 1180.319 730.385 L 1180.299 730.493 A 5.075 5.075 0 0 1 1176.888 734.333 L 1168.587 737.030 A 5.075 5.075 0 0 0 1166.639 738.196 L 1165.365 744.016 A 5.075 5.075 0 0 0 1166.647 745.890 L 1173.061 751.809 A 5.075 5.075 0 0 1 1174.554 756.723 L 1174.528 756.829 A 5.075 5.075 0 0 1 1170.887 760.453 L 1162.436 762.633 A 5.075 5.075 0 0 0 1160.420 763.677 L 1158.789 769.408 A 5.075 5.075 0 0 0 1159.953 771.357 L 1165.991 777.660 A 5.075 5.075 0 0 1 1167.179 782.657 L 1167.146 782.761 A 5.075 5.075 0 0 1 1163.289 786.154 L 1154.719 787.809 A 5.075 5.075 0 0 0 1152.643 788.728 L 1150.663 794.347 A 5.075 5.075 0 0 0 1151.705 796.364 L 1157.344 803.026 A 5.075 5.075 0 0 1 1158.221 808.087 L 1158.182 808.189 A 5.075 5.075 0 0 1 1154.124 811.338 L 1145.468 812.463 A 5.075 5.075 0 0 0 1143.339 813.252 L 1141.017 818.738 A 5.075 5.075 0 0 0 1141.933 820.815 L 1147.151 827.813 A 5.075 5.075 0 0 1 1147.715 832.918 L 1147.669 833.017 A 5.075 5.075 0 0 1 1143.425 835.910 L 1134.717 836.500 A 5.075 5.075 0 0 0 1132.543 837.156 L 1129.888 842.489 A 5.075 5.075 0 0 0 1130.674 844.619 L 1135.451 851.924 A 5.075 5.075 0 0 1 1135.700 857.055 L 1135.648 857.151 A 5.075 5.075 0 0 1 1131.234 859.777 L 1122.506 859.830 A 5.075 5.075 0 0 0 1120.296 860.351 L 1117.318 865.511 A 5.075 5.075 0 0 0 1117.971 867.685 L 1122.289 875.270 A 5.075 5.075 0 0 1 1122.222 880.406 L 1122.165 880.499 A 5.075 5.075 0 0 1 1117.597 882.848 L 1108.882 882.364 A 5.075 5.075 0 0 0 1106.645 882.748 L 1103.354 887.714 A 5.075 5.075 0 0 0 1103.872 889.924 L 1107.715 897.761 A 5.075 5.075 0 0 1 1107.332 902.883 L 1107.269 902.973 A 5.075 5.075 0 0 1 1102.565 905.036 L 1093.897 904.016 A 5.075 5.075 0 0 0 1091.640 904.262 L 1088.050 909.016 A 5.075 5.075 0 0 0 1088.431 911.254 L 1091.784 919.313 A 5.075 5.075 0 0 1 1091.087 924.401 L 1091.018 924.487 A 5.075 5.075 0 0 1 1086.196 926.257 L 1077.607 924.705 A 5.075 5.075 0 0 0 1075.339 924.811 L 1071.463 929.335 A 5.075 5.075 0 0 0 1071.706 931.593 L 1074.557 939.842 A 5.075 5.075 0 0 1 1073.548 944.878 L 1073.474 944.959 A 5.075 5.075 0 0 1 1068.552 946.429 L 1060.075 944.352 A 5.075 5.075 0 0 0 1057.805 944.318 L 1053.657 948.595 A 5.075 5.075 0 0 0 1053.761 950.863 L 1056.099 959.273 A 5.075 5.075 0 0 1 1054.781 964.237 L 1054.702 964.313 A 5.075 5.075 0 0 1 1049.700 965.477 L 1041.366 962.882 A 5.075 5.075 0 0 0 1039.102 962.709 L 1034.700 966.722 A 5.075 5.075 0 0 0 1034.663 968.992 L 1036.479 977.530 A 5.075 5.075 0 0 1 1034.858 982.404 L 1034.775 982.475 A 5.075 5.075 0 0 1 1029.710 983.329 L 1021.552 980.225 A 5.075 5.075 0 0 0 1019.304 979.913 L 1014.662 983.648 A 5.075 5.075 0 0 0 1014.486 985.911 L 1015.772 994.544 A 5.075 5.075 0 0 1 1013.855 999.309 L 1013.767 999.375 A 5.075 5.075 0 0 1 1008.659 999.916 L 1000.708 996.316 A 5.075 5.075 0 0 0 998.483 995.866 L 993.620 999.308 A 5.075 5.075 0 0 0 993.305 1001.556 L 994.058 1010.252 A 5.075 5.075 0 0 1 991.851 1014.890 L 991.759 1014.950 A 5.075 5.075 0 0 1 986.628 1015.175 L 978.913 1011.093 A 5.075 5.075 0 0 0 976.720 1010.507 L 971.655 1013.643 A 5.075 5.075 0 0 0 971.202 1015.868 L 971.418 1024.593 A 5.075 5.075 0 0 1 968.929 1029.086 L 968.834 1029.141 A 5.075 5.075 0 0 1 963.698 1029.050 L 956.250 1024.500 A 5.075 5.075 0 0 0 954.097 1023.780 L 948.848 1026.599 A 5.075 5.075 0 0 0 948.259 1028.791 L 947.937 1037.513 A 5.075 5.075 0 0 1 945.177 1041.845 L 945.079 1041.894 A 5.075 5.075 0 0 1 939.958 1041.486 L 932.804 1036.487 A 5.075 5.075 0 0 0 930.699 1035.635 L 925.287 1038.125 A 5.075 5.075 0 0 0 924.564 1040.278 L 923.706 1048.964 A 5.075 5.075 0 0 1 920.684 1053.117 L 920.583 1053.160 A 5.075 5.075 0 0 1 915.498 1052.438 L 908.665 1047.007 A 5.075 5.075 0 0 0 906.617 1046.028 L 901.061 1048.180 A 5.075 5.075 0 0 0 900.207 1050.284 L 898.816 1058.900 A 5.075 5.075 0 0 1 895.544 1062.860 L 895.441 1062.896 A 5.075 5.075 0 0 1 890.410 1061.863 L 883.924 1056.022 A 5.075 5.075 0 0 0 881.940 1054.918 L 876.262 1056.724 A 5.075 5.075 0 0 0 875.281 1058.771 L 873.362 1067.286 A 5.075 5.075 0 0 1 869.852 1071.037 L 869.747 1071.067 A 5.075 5.075 0 0 1 864.789 1069.725 L 858.675 1063.496 A 5.075 5.075 0 0 0 856.762 1062.273 L 850.985 1063.726 A 5.075 5.075 0 0 0 849.879 1065.708 L 847.439 1074.089 A 5.075 5.075 0 0 1 843.705 1077.616 L 843.598 1077.640 A 5.075 5.075 0 0 1 838.732 1075.996 L 833.013 1069.402 A 5.075 5.075 0 0 0 831.180 1068.063 L 825.324 1069.158 A 5.075 5.075 0 0 0 824.098 1071.069 L 821.147 1079.283 A 5.075 5.075 0 0 1 817.203 1082.574 L 817.095 1082.591 A 5.075 5.075 0 0 1 812.339 1080.650 L 807.037 1073.717 A 5.075 5.075 0 0 0 805.290 1072.268 L 799.377 1073.000 A 5.075 5.075 0 0 0 798.036 1074.832 L 794.585 1082.849 A 5.075 5.075 0 0 1 790.446 1085.890 L 790.337 1085.900 A 5.075 5.075 0 0 1 785.710 1083.671 L 780.845 1076.425 A 5.075 5.075 0 0 0 779.190 1074.870 L 773.243 1075.237 A 5.075 5.075 0 0 0 771.792 1076.983 L 767.854 1084.772 A 5.075 5.075 0 0 1 763.536 1087.554 L 763.426 1087.557 A 5.075 5.075 0 0 1 758.945 1085.047 L 754.535 1077.515 A 5.075 5.075 0 0 0 752.979 1075.862 L 747.021 1075.862 A 5.075 5.075 0 0 0 745.465 1077.515 L 741.055 1085.047 A 5.075 5.075 0 0 1 736.574 1087.557 L 736.464 1087.554 A 5.075 5.075 0 0 1 732.146 1084.772 L 728.208 1076.983 A 5.075 5.075 0 0 0 726.757 1075.237 L 720.810 1074.870 A 5.075 5.075 0 0 0 719.155 1076.425 L 714.290 1083.671 A 5.075 5.075 0 0 1 709.663 1085.900 L 709.554 1085.890 A 5.075 5.075 0 0 1 705.415 1082.849 L 701.964 1074.832 A 5.075 5.075 0 0 0 700.623 1073.000 L 694.710 1072.268 A 5.075 5.075 0 0 0 692.963 1073.717 L 687.661 1080.650 A 5.075 5.075 0 0 1 682.905 1082.591 L 682.797 1082.574 A 5.075 5.075 0 0 1 678.853 1079.283 L 675.902 1071.069 A 5.075 5.075 0 0 0 674.676 1069.158 L 668.820 1068.063 A 5.075 5.075 0 0 0 666.987 1069.402 L 661.268 1075.996 A 5.075 5.075 0 0 1 656.402 1077.640 L 656.295 1077.616 A 5.075 5.075 0 0 1 652.561 1074.089 L 650.121 1065.708 A 5.075 5.075 0 0 0 649.015 1063.726 L 643.238 1062.273 A 5.075 5.075 0 0 0 641.325 1063.496 L 635.211 1069.725 A 5.075 5.075 0 0 1 630.253 1071.067 L 630.148 1071.037 A 5.075 5.075 0 0 1 626.638 1067.286 L 624.719 1058.771 A 5.075 5.075 0 0 0 623.738 1056.724 L 618.060 1054.918 A 5.075 5.075 0 0 0 616.076 1056.022 L 609.590 1061.863 A 5.075 5.075 0 0 1 604.559 1062.896 L 604.456 1062.860 A 5.075 5.075 0 0 1 601.184 1058.900 L 599.793 1050.284 A 5.075 5.075 0 0 0 598.939 1048.180 L 593.383 1046.028 A 5.075 5.075 0 0 0 591.335 1047.007 L 584.502 1052.438 A 5.075 5.075 0 0 1 579.417 1053.160 L 579.316 1053.117 A 5.075 5.075 0 0 1 576.294 1048.964 L 575.436 1040.278 A 5.075 5.075 0 0 0 574.713 1038.125 L 569.301 1035.635 A 5.075 5.075 0 0 0 567.196 1036.487 L 560.042 1041.486 A 5.075 5.075 0 0 1 554.921 1041.894 L 554.823 1041.845 A 5.075 5.075 0 0 1 552.063 1037.513 L 551.741 1028.791 A 5.075 5.075 0 0 0 551.152 1026.599 L 545.903 1023.780 A 5.075 5.075 0 0 0 543.750 1024.500 L 536.302 1029.050 A 5.075 5.075 0 0 1 531.166 1029.141 L 531.071 1029.086 A 5.075 5.075 0 0 1 528.582 1024.593 L 528.798 1015.868 A 5.075 5.075 0 0 0 528.345 1013.643 L 523.280 1010.507 A 5.075 5.075 0 0 0 521.087 1011.093 L 513.372 1015.175 A 5.075 5.075 0 0 1 508.241 1014.950 L 508.149 1014.890 A 5.075 5.075 0 0 1 505.942 1010.252 L 506.695 1001.556 A 5.075 5.075 0 0 0 506.380 999.308 L 501.517 995.866 A 5.075 5.075 0 0 0 499.292 996.316 L 491.341 999.916 A 5.075 5.075 0 0 1 486.233 999.375 L 486.145 999.309 A 5.075 5.075 0 0 1 484.228 994.544 L 485.514 985.911 A 5.075 5.075 0 0 0 485.338 983.648 L 480.696 979.913 A 5.075 5.075 0 0 0 478.448 980.225 L 470.290 983.329 A 5.075 5.075 0 0 1 465.225 982.475 L 465.142 982.404 A 5.075 5.075 0 0 1 463.521 977.530 L 465.337 968.992 A 5.075 5.075 0 0 0 465.300 966.722 L 460.898 962.709 A 5.075 5.075 0 0 0 458.634 962.882 L 450.300 965.477 A 5.075 5.075 0 0 1 445.298 964.313 L 445.219 964.237 A 5.075 5.075 0 0 1 443.901 959.273 L 446.239 950.863 A 5.075 5.075 0 0 0 446.343 948.595 L 442.195 944.318 A 5.075 5.075 0 0 0 439.925 944.352 L 431.448 946.429 A 5.075 5.075 0 0 1 426.526 944.959 L 426.452 944.878 A 5.075 5.075 0 0 1 425.443 939.842 L 428.294 931.593 A 5.075 5.075 0 0 0 428.537 929.335 L 424.661 924.811 A 5.075 5.075 0 0 0 422.393 924.705 L 413.804 926.257 A 5.075 5.075 0 0 1 408.982 924.487 L 408.913 924.401 A 5.075 5.075 0 0 1 408.216 919.313 L 411.569 911.254 A 5.075 5.075 0 0 0 411.950 909.016 L 408.360 904.262 A 5.075 5.075 0 0 0 406.103 904.016 L 397.435 905.036 A 5.075 5.075 0 0 1 392.731 902.973 L 392.668 902.883 A 5.075 5.075 0 0 1 392.285 897.761 L 396.128 889.924 A 5.075 5.075 0 0 0 396.646 887.714 L 393.355 882.748 A 5.075 5.075 0 0 0 391.118 882.364 L 382.403 882.848 A 5.075 5.075 0 0 1 377.835 880.499 L 377.778 880.406 A 5.075 5.075 0 0 1 377.711 875.270 L 382.029 867.685 A 5.075 5.075 0 0 0 382.682 865.511 L 379.704 860.351 A 5.075 5.075 0 0 0 377.494 859.830 L 368.766 859.777 A 5.075 5.075 0 0 1 364.352 857.151 L 364.300 857.055 A 5.075 5.075 0 0 1 364.549 851.924 L 369.326 844.619 A 5.075 5.075 0 0 0 370.112 842.489 L 367.457 837.156 A 5.075 5.075 0 0 0 365.283 836.500 L 356.575 835.910 A 5.075 5.075 0 0 1 352.331 833.017 L 352.285 832.918 A 5.075 5.075 0 0 1 352.849 827.813 L 358.067 820.815 A 5.075 5.075 0 0 0 358.983 818.738 L 356.661 813.252 A 5.075 5.075 0 0 0 354.532 812.463 L 345.876 811.338 A 5.075 5.075 0 0 1 341.818 808.189 L 341.779 808.087 A 5.075 5.075 0 0 1 342.656 803.026 L 348.295 796.364 A 5.075 5.075 0 0 0 349.337 794.347 L 347.357 788.728 A 5.075 5.075 0 0 0 345.281 787.809 L 336.711 786.154 A 5.075 5.075 0 0 1 332.854 782.761 L 332.821 782.657 A 5.075 5.075 0 0 1 334.009 777.660 L 340.047 771.357 A 5.075 5.075 0 0 0 341.211 769.408 L 339.580 763.677 A 5.075 5.075 0 0 0 337.564 762.633 L 329.113 760.453 A 5.075 5.075 0 0 1 325.472 756.829 L 325.446 756.723 A 5.075 5.075 0 0 1 326.939 751.809 L 333.353 745.890 A 5.075 5.075 0 0 0 334.635 744.016 L 333.361 738.196 A 5.075 5.075 0 0 0 331.413 737.030 L 323.112 734.333 A 5.075 5.075 0 0 1 319.701 730.493 L 319.681 730.385 A 5.075 5.075 0 0 1 321.474 725.572 L 328.240 720.058 A 5.075 5.075 0 0 0 329.635 718.267 L 328.721 712.380 A 5.075 5.075 0 0 0 326.849 711.096 L 318.730 707.894 A 5.075 5.075 0 0 1 315.562 703.850 L 315.548 703.742 A 5.075 5.075 0 0 1 317.634 699.048 L 324.728 693.962 A 5.075 5.075 0 0 0 326.230 692.260 L 325.680 686.327 A 5.075 5.075 0 0 0 323.891 684.930 L 315.984 681.234 A 5.075 5.075 0 0 1 313.071 677.004 L 313.064 676.894 A 5.075 5.075 0 0 1 315.435 672.338 L 322.828 667.698 A 5.075 5.075 0 0 0 324.432 666.092 L 324.249 660.137 A 5.075 5.075 0 0 0 322.549 658.632 L 314.884 654.457 A 5.075 5.075 0 0 1 312.237 650.055 L 312.237 649.945 A 5.075 5.075 0 0 1 314.884 645.543 L 322.549 641.368 A 5.075 5.075 0 0 0 324.249 639.863 L 324.432 633.908 A 5.075 5.075 0 0 0 322.828 632.302 L 315.435 627.662 A 5.075 5.075 0 0 1 313.064 623.106 L 313.071 622.996 A 5.075 5.075 0 0 1 315.984 618.766 L 323.891 615.070 A 5.075 5.075 0 0 0 325.680 613.673 L 326.230 607.740 A 5.075 5.075 0 0 0 324.728 606.038 L 317.634 600.952 A 5.075 5.075 0 0 1 315.548 596.258 L 315.562 596.150 A 5.075 5.075 0 0 1 318.730 592.106 L 326.849 588.904 A 5.075 5.075 0 0 0 328.721 587.620 L 329.635 581.733 A 5.075 5.075 0 0 0 328.240 579.942 L 321.474 574.428 A 5.075 5.075 0 0 1 319.681 569.615 L 319.701 569.507 A 5.075 5.075 0 0 1 323.112 565.667 L 331.413 562.970 A 5.075 5.075 0 0 0 333.361 561.804 L 334.635 555.984 A 5.075 5.075 0 0 0 333.353 554.110 L 326.939 548.191 A 5.075 5.075 0 0 1 325.446 543.277 L 325.472 543.171 A 5.075 5.075 0 0 1 329.113 539.547 L 337.564 537.367 A 5.075 5.075 0 0 0 339.580 536.323 L 341.211 530.592 A 5.075 5.075 0 0 0 340.047 528.643 L 334.009 522.340 A 5.075 5.075 0 0 1 332.821 517.343 L 332.854 517.239 A 5.075 5.075 0 0 1 336.711 513.846 L 345.281 512.191 A 5.075 5.075 0 0 0 347.357 511.272 L 349.337 505.653 A 5.075 5.075 0 0 0 348.295 503.636 L 342.656 496.974 A 5.075 5.075 0 0 1 341.779 491.913 L 341.818 491.811 A 5.075 5.075 0 0 1 345.876 488.662 L 354.532 487.537 A 5.075 5.075 0 0 0 356.661 486.748 L 358.983 481.262 A 5.075 5.075 0 0 0 358.067 479.185 L 352.849 472.187 A 5.075 5.075 0 0 1 352.285 467.082 L 352.331 466.983 A 5.075 5.075 0 0 1 356.575 464.090 L 365.283 463.500 A 5.075 5.075 0 0 0 367.457 462.844 L 370.112 457.511 A 5.075 5.075 0 0 0 369.326 455.381 L 364.549 448.076 A 5.075 5.075 0 0 1 364.300 442.945 L 364.352 442.849 A 5.075 5.075 0 0 1 368.766 440.223 L 377.494 440.170 A 5.075 5.075 0 0 0 379.704 439.649 L 382.682 434.489 A 5.075 5.075 0 0 0 382.029 432.315 L 377.711 424.730 A 5.075 5.075 0 0 1 377.778 419.594 L 377.835 419.501 A 5.075 5.075 0 0 1 382.403 417.152 L 391.118 417.636 A 5.075 5.075 0 0 0 393.355 417.252 L 396.646 412.286 A 5.075 5.075 0 0 0 396.128 410.076 L 392.285 402.239 A 5.075 5.075 0 0 1 392.668 397.117 L 392.731 397.027 A 5.075 5.075 0 0 1 397.435 394.964 L 406.103 395.984 A 5.075 5.075 0 0 0 408.360 395.738 L 411.950 390.984 A 5.075 5.075 0 0 0 411.569 388.746 L 408.216 380.687 A 5.075 5.075 0 0 1 408.913 375.599 L 408.982 375.513 A 5.075 5.075 0 0 1 413.804 373.743 L 422.393 375.295 A 5.075 5.075 0 0 0 424.661 375.189 L 428.537 370.665 A 5.075 5.075 0 0 0 428.294 368.407 L 425.443 360.158 A 5.075 5.075 0 0 1 426.452 355.122 L 426.526 355.041 A 5.075 5.075 0 0 1 431.448 353.571 L 439.925 355.648 A 5.075 5.075 0 0 0 442.195 355.682 L 446.343 351.405 A 5.075 5.075 0 0 0 446.239 349.137 L 443.901 340.727 A 5.075 5.075 0 0 1 445.219 335.763 L 445.298 335.687 A 5.075 5.075 0 0 1 450.300 334.523 L 458.634 337.118 A 5.075 5.075 0 0 0 460.898 337.291 L 465.300 333.278 A 5.075 5.075 0 0 0 465.337 331.008 L 463.521 322.470 A 5.075 5.075 0 0 1 465.142 317.596 L 465.225 317.525 A 5.075 5.075 0 0 1 470.290 316.671 L 478.448 319.775 A 5.075 5.075 0 0 0 480.696 320.087 L 485.338 316.352 A 5.075 5.075 0 0 0 485.514 314.089 L 484.228 305.456 A 5.075 5.075 0 0 1 486.145 300.691 L 486.233 300.625 A 5.075 5.075 0 0 1 491.341 300.084 L 499.292 303.684 A 5.075 5.075 0 0 0 501.517 304.134 L 506.380 300.692 A 5.075 5.075 0 0 0 506.695 298.444 L 505.942 289.748 A 5.075 5.075 0 0 1 508.149 285.110 L 508.241 285.050 A 5.075 5.075 0 0 1 513.372 284.825 L 521.087 288.907 A 5.075 5.075 0 0 0 523.280 289.493 L 528.345 286.357 A 5.075 5.075 0 0 0 528.798 284.132 L 528.582 275.407 A 5.075 5.075 0 0 1 531.071 270.914 L 531.166 270.859 A 5.075 5.075 0 0 1 536.302 270.950 L 543.750 275.500 A 5.075 5.075 0 0 0 545.903 276.220 L 551.152 273.401 A 5.075 5.075 0 0 0 551.741 271.209 L 552.063 262.487 A 5.075 5.075 0 0 1 554.823 258.155 L 554.921 258.106 A 5.075 5.075 0 0 1 560.042 258.514 L 567.196 263.513 A 5.075 5.075 0 0 0 569.301 264.365 L 574.713 261.875 A 5.075 5.075 0 0 0 575.436 259.722 L 576.294 251.036 A 5.075 5.075 0 0 1 579.316 246.883 L 579.417 246.840 A 5.075 5.075 0 0 1 584.502 247.562 L 591.335 252.993 A 5.075 5.075 0 0 0 593.383 253.972 L 598.939 251.820 A 5.075 5.075 0 0 0 599.793 249.716 L 601.184 241.100 A 5.075 5.075 0 0 1 604.456 237.140 L 604.559 237.104 A 5.075 5.075 0 0 1 609.590 238.137 L 616.076 243.978 A 5.075 5.075 0 0 0 618.060 245.082 L 623.738 243.276 A 5.075 5.075 0 0 0 624.719 241.229 L 626.638 232.714 A 5.075 5.075 0 0 1 630.148 228.963 L 630.253 228.933 A 5.075 5.075 0 0 1 635.211 230.275 L 641.325 236.504 A 5.075 5.075 0 0 0 643.238 237.727 L 649.015 236.274 A 5.075 5.075 0 0 0 650.121 234.292 L 652.561 225.911 A 5.075 5.075 0 0 1 656.295 222.384 L 656.402 222.360 A 5.075 5.075 0 0 1 661.268 224.004 L 666.987 230.598 A 5.075 5.075 0 0 0 668.820 231.937 L 674.676 230.842 A 5.075 5.075 0 0 0 675.902 228.931 L 678.853 220.717 A 5.075 5.075 0 0 1 682.797 217.426 L 682.905 217.409 A 5.075 5.075 0 0 1 687.661 219.350 L 692.963 226.283 A 5.075 5.075 0 0 0 694.710 227.732 L 700.623 227.000 A 5.075 5.075 0 0 0 701.964 225.168 L 705.415 217.151 A 5.075 5.075 0 0 1 709.554 214.110 L 709.663 214.100 A 5.075 5.075 0 0 1 714.290 216.329 L 719.155 223.575 A 5.075 5.075 0 0 0 720.810 225.130 L 726.757 224.763 A 5.075 5.075 0 0 0 728.208 223.017 L 732.146 215.228 A 5.075 5.075 0 0 1 736.464 212.446 L 736.574 212.443 A 5.075 5.075 0 0 1 741.055 214.953 L 745.465 222.485 A 5.075 5.075 0 0 0 747.021 224.138 L 752.979 224.138 A 5.075 5.075 0 0 0 754.535 222.485 L 758.945 214.953 A 5.075 5.075 0 0 1 763.426 212.443 L 763.536 212.446 A 5.075 5.075 0 0 1 767.854 215.228 L 771.792 223.017 A 5.075 5.075 0 0 0 773.243 224.763 L 779.190 225.130 A 5.075 5.075 0 0 0 780.845 223.575 L 785.710 216.329 A 5.075 5.075 0 0 1 790.337 214.100 L 790.446 214.110 A 5.075 5.075 0 0 1 794.585 217.151 L 798.036 225.168 A 5.075 5.075 0 0 0 799.377 227.000 L 805.290 227.732 A 5.075 5.075 0 0 0 807.037 226.283 L 812.339 219.350 A 5.075 5.075 0 0 1 817.095 217.409 L 817.203 217.426 A 5.075 5.075 0 0 1 821.147 220.717 L 824.098 228.931 A 5.075 5.075 0 0 0 825.324 230.842 L 831.180 231.937 A 5.075 5.075 0 0 0 833.013 230.598 L 838.732 224.004 A 5.075 5.075 0 0 1 843.598 222.360 L 843.705 222.384 A 5.075 5.075 0 0 1 847.439 225.911 L 849.879 234.292 A 5.075 5.075 0 0 0 850.985 236.274 L 856.762 237.727 A 5.075 5.075 0 0 0 858.675 236.504 L 864.789 230.275 A 5.075 5.075 0 0 1 869.747 228.933 L 869.852 228.963 A 5.075 5.075 0 0 1 873.362 232.714 L 875.281 241.229 A 5.075 5.075 0 0 0 876.262 243.276 L 881.940 245.082 A 5.075 5.075 0 0 0 883.924 243.978 L 890.410 238.137 A 5.075 5.075 0 0 1 895.441 237.104 L 895.544 237.140 A 5.075 5.075 0 0 1 898.816 241.100 L 900.207 249.716 A 5.075 5.075 0 0 0 901.061 251.820 L 906.617 253.972 A 5.075 5.075 0 0 0 908.665 252.993 L 915.498 247.562 A 5.075 5.075 0 0 1 920.583 246.840 L 920.684 246.883 A 5.075 5.075 0 0 1 923.706 251.036 L 924.564 259.722 A 5.075 5.075 0 0 0 925.287 261.875 L 930.699 264.365 A 5.075 5.075 0 0 0 932.804 263.513 L 939.958 258.514 A 5.075 5.075 0 0 1 945.079 258.106 L 945.177 258.155 A 5.075 5.075 0 0 1 947.937 262.487 L 948.259 271.209 A 5.075 5.075 0 0 0 948.848 273.401 L 954.097 276.220 A 5.075 5.075 0 0 0 956.250 275.500 L 963.698 270.950 A 5.075 5.075 0 0 1 968.834 270.859 L 968.929 270.914 A 5.075 5.075 0 0 1 971.418 275.407 L 971.202 284.132 A 5.075 5.075 0 0 0 971.655 286.357 L 976.720 289.493 A 5.075 5.075 0 0 0 978.913 288.907 L 986.628 284.825 A 5.075 5.075 0 0 1 991.759 285.050 L 991.851 285.110 A 5.075 5.075 0 0 1 994.058 289.748 L 993.305 298.444 A 5.075 5.075 0 0 0 993.620 300.692 L 998.483 304.134 A 5.075 5.075 0 0 0 1000.708 303.684 L 1008.659 300.084 A 5.075 5.075 0 0 1 1013.767 300.625 L 1013.855 300.691 A 5.075 5.075 0 0 1 1015.772 305.456 L 1014.486 314.089 A 5.075 5.075 0 0 0 1014.662 316.352 L 1019.304 320.087 A 5.075 5.075 0 0 0 1021.552 319.775 L 1029.710 316.671 A 5.075 5.075 0 0 1 1034.775 317.525 L 1034.858 317.596 A 5.075 5.075 0 0 1 1036.479 322.470 L 1034.663 331.008 A 5.075 5.075 0 0 0 1034.700 333.278 L 1039.102 337.291 A 5.075 5.075 0 0 0 1041.366 337.118 L 1049.700 334.523 A 5.075 5.075 0 0 1 1054.702 335.687 L 1054.781 335.763 A 5.075 5.075 0 0 1 1056.099 340.727 L 1053.761 349.137 A 5.075 5.075 0 0 0 1053.657 351.405 L 1057.805 355.682 A 5.075 5.075 0 0 0 1060.075 355.648 L 1068.552 353.571 A 5.075 5.075 0 0 1 1073.474 355.041 L 1073.548 355.122 A 5.075 5.075 0 0 1 1074.557 360.158 L 1071.706 368.407 A 5.075 5.075 0 0 0 1071.463 370.665 L 1075.339 375.189 A 5.075 5.075 0 0 0 1077.607 375.295 L 1086.196 373.743 A 5.075 5.075 0 0 1 1091.018 375.513 L 1091.087 375.599 A 5.075 5.075 0 0 1 1091.784 380.687 L 1088.431 388.746 A 5.075 5.075 0 0 0 1088.050 390.984 L 1091.640 395.738 A 5.075 5.075 0 0 0 1093.897 395.984 L 1102.565 394.964 A 5.075 5.075 0 0 1 1107.269 397.027 L 1107.332 397.117 A 5.075 5.075 0 0 1 1107.715 402.239 L 1103.872 410.076 A 5.075 5.075 0 0 0 1103.354 412.286 L 1106.645 417.252 A 5.075 5.075 0 0 0 1108.882 417.636 L 1117.597 417.152 A 5.075 5.075 0 0 1 1122.165 419.501 L 1122.222 419.594 A 5.075 5.075 0 0 1 1122.289 424.730 L 1117.971 432.315 A 5.075 5.075 0 0 0 1117.318 434.489 L 1120.296 439.649 A 5.075 5.075 0 0 0 1122.506 440.170 L 1131.234 440.223 A 5.075 5.075 0 0 1 1135.648 442.849 L 1135.700 442.945 A 5.075 5.075 0 0 1 1135.451 448.076 L 1130.674 455.381 A 5.075 5.075 0 0 0 1129.888 457.511 L 1132.543 462.844 A 5.075 5.075 0 0 0 1134.717 463.500 L 1143.425 464.090 A 5.075 5.075 0 0 1 1147.669 466.983 L 1147.715 467.082 A 5.075 5.075 0 0 1 1147.151 472.187 L 1141.933 479.185 A 5.075 5.075 0 0 0 1141.017 481.262 L 1143.339 486.748 A 5.075 5.075 0 0 0 1145.468 487.537 L 1154.124 488.662 A 5.075 5.075 0 0 1 1158.182 491.811 L 1158.221 491.913 A 5.075 5.075 0 0 1 1157.344 496.974 L 1151.705 503.636 A 5.075 5.075 0 0 0 1150.663 505.653 L 1152.643 511.272 A 5.075 5.075 0 0 0 1154.719 512.191 L 1163.289 513.846 A 5.075 5.075 0 0 1 1167.146 517.239 L 1167.179 517.343 A 5.075 5.075 0 0 1 1165.991 522.340 L 1159.953 528.643 A 5.075 5.075 0 0 0 1158.789 530.592 L 1160.420 536.323 A 5.075 5.075 0 0 0 1162.436 537.367 L 1170.887 539.547 A 5.075 5.075 0 0 1 1174.528 543.171 L 1174.554 543.277 A 5.075 5.075 0 0 1 1173.061 548.191 L 1166.647 554.110 A 5.075 5.075 0 0 0 1165.365 555.984 L 1166.639 561.804 A 5.075 5.075 0 0 0 1168.587 562.970 L 1176.888 565.667 A 5.075 5.075 0 0 1 1180.299 569.507 L 1180.319 569.615 A 5.075 5.075 0 0 1 1178.526 574.428 L 1171.760 579.942 A 5.075 5.075 0 0 0 1170.365 581.733 L 1171.279 587.620 A 5.075 5.075 0 0 0 1173.151 588.904 L 1181.270 592.106 A 5.075 5.075 0 0 1 1184.438 596.150 L 1184.452 596.258 A 5.075 5.075 0 0 1 1182.366 600.952 L 1175.272 606.038 A 5.075 5.075 0 0 0 1173.770 607.740 L 1174.320 613.673 A 5.075 5.075 0 0 0 1176.109 615.070 L 1184.016 618.766 A 5.075 5.075 0 0 1 1186.929 622.996 L 1186.936 623.106 A 5.075 5.075 0 0 1 1184.565 627.662 L 1177.172 632.302 A 5.075 5.075 0 0 0 1175.568 633.908 Z"/>
<circle id="0" fill="black" cx="750.00000000000000" cy="650.00000000000000" r="0.8"/>
</g></svg>