<?xml version="1.0" encoding="utf-8"?>
<!-- Generator: Adobe Illustrator 25.1.0, SVG Export Plug-In . SVG Version: 6.00 Build 0)  -->
<svg version="1.1" id="Ebene_1" xmlns="http://www.w3.org/2000/svg" xmlns:xlink="http://www.w3.org/1999/xlink" x="0px" y="0px"
	 viewBox="0 0 24 24" style="enable-background:new 0 0 24 24;" xml:space="preserve">
<style type="text/css">
	.st0{fill:#FFFFFF;}
</style>
<path class="st0" d="M8,3C5.2,3,3,5.2,3,8v8c0,2.8,2.2,5,5,5h8c2.8,0,5-2.2,5-5V8c0-2.8-2.2-5-5-5H8z M18,5c0.6,0,1,0.4,1,1
	s-0.4,1-1,1s-1-0.4-1-1S17.4,5,18,5z M12,7c2.8,0,5,2.2,5,5s-2.2,5-5,5s-5-2.2-5-5S9.2,7,12,7z M12,9c-1.7,0-3,1.3-3,3s1.3,3,3,3
	s3-1.3,3-3S13.7,9,12,9z"/>
</svg>
