<?xml version="1.0" encoding="utf-8"?>
<!DOCTYPE svg PUBLIC "-//W3C//DTD SVG 1.1//EN" "http://www.w3.org/Graphics/SVG/1.1/DTD/svg11.dtd">
<svg version="1.1" id="Ebene_1" xmlns="http://www.w3.org/2000/svg" xmlns:xlink="http://www.w3.org/1999/xlink" x="0px" y="0px"
	 width="280px" height="80px" viewBox="0 0 280 80" enable-background="new 0 0 280 80" xml:space="preserve">
<g>
	<path fill-rule="evenodd" clip-rule="evenodd" fill="#3A4F6C" d="M233.551,15.565h23.258c1.453,0.018,2.8,0.52,4.002,1.49
		c1.221,0.969,2.208,2.261,2.941,3.875c0.737,1.597,1.114,3.357,1.132,5.295c-0.018,1.992-0.395,3.787-1.132,5.402
		c-0.733,1.598-1.721,2.871-2.941,3.804c-1.202,0.952-2.549,1.436-4.002,1.455c-2.435,0-4.86,0.003-7.295,0.003
		c-4.739,0-7.771,2.477-9.099,7.431l-1.671,6.241h18.064c6.307,0,11.622-2.842,15.721-7.537c4.091-4.739,6.138-10.338,6.138-16.798
		c0-6.461-2.047-12.061-6.138-16.798c-4.098-4.697-9.415-7.538-15.721-7.538h-29.503c-4.953,0-7.429,2.369-7.429,7.107v60.837
		c0,4.739,2.476,7.106,7.429,7.106h6.245C233.551,56.482,233.551,36.024,233.551,15.565L233.551,15.565z M15.219,76.94V46.255
		h13.567c0.989,0,1.814,0.124,2.478,0.377c0.664,0.251,1.219,0.662,1.687,1.219c0.466,0.558,0.915,1.274,1.327,2.173l9.907,22.612
		c0.664,1.362,1.65,2.404,2.978,3.156c1.31,0.754,2.872,1.132,4.667,1.148h9.044L46.769,44.532
		c-0.879-1.939-1.902-3.626-3.086-5.063c-1.186-1.454-2.44-2.709-3.806-3.768c0.162-0.144,0.305-0.305,0.45-0.484
		c0.144-0.179,0.305-0.45,0.52-0.808L60.66,1.89H49.785c-1.723,0-3.232,0.378-4.542,1.131c-1.293,0.753-2.405,1.885-3.319,3.392
		L29.218,27.194c-0.843,1.328-1.598,2.37-2.244,3.159c-0.665,0.79-1.311,1.363-1.974,1.722c-0.646,0.342-1.4,0.503-2.243,0.503
		h-7.539V1.89H8.867c-2.422,0-4.253,0.593-5.474,1.777c-1.239,1.186-1.847,2.962-1.847,5.33v60.837c0,2.37,0.608,4.146,1.847,5.332
		c1.221,1.184,3.052,1.774,5.474,1.774H15.219L15.219,76.94z M163.022,15.565h23.258c1.453,0.018,2.8,0.52,4.002,1.49
		c1.221,0.969,2.207,2.261,2.943,3.875c0.734,1.597,1.112,3.357,1.13,5.295c-0.018,1.992-0.396,3.787-1.13,5.402
		c-0.736,1.598-1.723,2.871-2.943,3.804c-1.202,0.952-2.549,1.436-4.002,1.455c-2.435,0-4.86,0.003-7.295,0.003
		c-4.739,0-7.771,2.477-9.098,7.431l-1.673,6.241h18.065c6.306,0,11.623-2.842,15.722-7.537c4.09-4.739,6.137-10.338,6.137-16.798
		c0-6.461-2.047-12.061-6.137-16.798c-4.097-4.697-9.417-7.538-15.722-7.538h-29.502c-4.953,0-7.431,2.369-7.431,7.107l0.001,60.837
		c0,4.739,2.476,7.106,7.43,7.106h6.244C163.022,56.482,163.022,36.025,163.022,15.565L163.022,15.565z M66.36,40.904
		c-2.192,2.194-4.384,4.386-6.577,6.578C53.953,19.886,78.427-4.588,106.021,1.243c-2.192,2.193-4.385,4.385-6.577,6.578
		c-1.292,1.291-1.829,2.588-1.829,4.414c0,8.271,0,16.542,0,24.813c0,1.12-0.908,2.028-2.029,2.028c-8.271,0-16.542,0-24.813,0
		C68.949,39.076,67.651,39.614,66.36,40.904L66.36,40.904z M96.467,71.011c-2.193,2.192-4.385,4.385-6.577,6.577
		c27.595,5.832,52.069-18.643,46.238-46.238c-2.192,2.192-4.385,4.384-6.577,6.577c-1.291,1.292-2.589,1.829-4.414,1.829
		c-8.271,0-16.542,0-24.813,0c-1.121,0-2.029,0.908-2.029,2.028c0,8.272,0,16.541,0,24.812
		C98.295,68.423,97.758,69.72,96.467,71.011z"/>
</g>
</svg>
