<?xml version="1.0" encoding="utf-8"?>
<!-- Generator: Adobe Illustrator 25.1.0, SVG Export Plug-In . SVG Version: 6.00 Build 0)  -->
<svg version="1.1" id="Ebene_1" xmlns="http://www.w3.org/2000/svg" xmlns:xlink="http://www.w3.org/1999/xlink" x="0px" y="0px"
	 viewBox="0 0 24 24" style="enable-background:new 0 0 24 24;" xml:space="preserve">
<style type="text/css">
	.st0{fill:#FFFFFF;}
</style>
<path class="st0" d="M19,3H5C3.9,3,3,3.9,3,5v14c0,1.1,0.9,2,2,2h14c1.1,0,2-0.9,2-2V5C21,3.9,20.1,3,19,3z M7.7,17L7.7,17
	c-0.7,0-1.3-0.6-1.3-1.3v-4.5C6.5,10.6,7,10,7.7,10l0,0C8.4,10,9,10.6,9,11.3v4.5C9,16.4,8.4,17,7.7,17z M7.7,8.7
	c-0.8,0-1.3-0.5-1.3-1.2s0.5-1.2,1.4-1.2c0.8,0,1.3,0.5,1.3,1.2S8.6,8.7,7.7,8.7z M16.8,17L16.8,17c-0.7,0-1.2-0.5-1.2-1.2v-2.6
	c0-1.1-0.7-1.2-0.9-1.2s-1.1,0-1.1,1.2v2.6c0,0.7-0.5,1.2-1.2,1.2h-0.1c-0.7,0-1.2-0.5-1.2-1.2v-4.5c0-0.7,0.6-1.3,1.3-1.3l0,0
	c0.7,0,1.3,0.6,1.3,1.3c0,0,0.3-1.3,2.2-1.3c1.2,0,2.2,1,2.2,3.2v2.6C18,16.5,17.5,17,16.8,17z"/>
</svg>
