<?xml version="1.0" encoding="UTF-8"?>
<svg xmlns="http://www.w3.org/2000/svg" xmlns:svgjs="http://svgjs.com/svgjs" xmlns:xlink="http://www.w3.org/1999/xlink" id="SvgjsSvg1000" version="1.1" width="100%" height="100%">
    <rect id="SvgjsRect1054" width="100%" height="100%" fill="none" style="pointer-events: all;" />
    <g id="SvgjsG1051">
        <g id="SvgjsG1055" transform="matrix(7.551905632019043,0,0,7.551905632019043,323.0769348144531,400.0000305175781)" stroke="black" stroke-width="0.1" fill="none">
            <g id="SvgjsG1056" transform="matrix(1,0,0,1,0,0)">
                <g id="SvgjsG1057" stroke="blue" stroke-width="0.04" fill="none">
                    <circle id="SvgjsCircle1058" r="38.197186342054884" cx="0" cy="0" />
                    <circle id="SvgjsCircle1059" r="40.74366543152521" cx="0" cy="0" />
                    <line id="SvgjsLine1060" x1="0" y1="-1.0185916357881302" x2="0" y2="1.0185916357881302" />
                    <line id="SvgjsLine1061" x1="-1.0185916357881302" y1="0" x2="1.0185916357881302" y2="0" />
                </g>
                <g id="SvgjsG1062" stroke="black" stroke-width="0.1" fill="none">
                    <circle id="SvgjsCircle1063" r="2" cx="0" cy="0" />
                    <path id="SvgjsPath1064" d="M39.44816410981711 -7.108848991717149  L38.86517940068624 -6.693565529706439 38.318547441447635 -6.337657228118844 37.811435855091716 -6.036912120122755 37.34615273458056 -5.786686025825197 36.928831141274024 -5.584305378627671 36.56151426067382 -5.424776393091703 36.24704722756554 -5.303511334694486 35.71579147161138 -5.121412430069643 35.60070679610345 -5.068261640205005 35.50351240120832 -5.012888720822246 35.42424242384093 -4.956021225816987 35.3629111104783 -4.89838461851559 35.319522762378526 -4.8407033169597815 35.29402200948594 -4.78369546748349 35.2863613363946 -4.728100152143189 35.308301622253175 -4.554462330351841 35.405685585656244 -3.7212875075373786 35.48365648166172 -2.8860722891199324 35.4982969768083 -2.7116672284081993 35.517349161826544 -2.6588795475912668 35.55414526045983 -2.608419361054062 35.608578085988476 -2.5610194791452594 35.680552487481016 -2.5173938670602585 35.769913642692266 -2.4782502182866635 35.87649678415809 -2.444295181027446 36.000117253976455 -2.41623331291631 36.55762428819566 -2.3485679887383637 36.89043188546887 -2.295334235374265 37.28288995205423 -2.215660814636255 37.73316936982905 -2.1044687082241644 38.240309868171096 -1.9564484547404515 38.798868273578094 -1.7677097762741836 39.40755250975091 -1.5332300998953565 40.064139891007066 -1.2482309145014505 40.733155403840534 -0.9243861031216603 A40.74366543152521 40.74366543152521 0 0 1 40.73315540384053 0.9243861031216749 L40.06413989100706 1.2482309145014652 39.4075525097509 1.5332300998953703 38.79886827357809 1.7677097762741973 38.240309868171096 1.9564484547404644 37.73316936982905 2.1044687082241778 37.28288995205423 2.2156608146362684 36.89043188546887 2.295334235374278 36.55762428819566 2.3485679887383766 36.000117253976455 2.4162333129163227 35.87649678415809 2.4442951810274582 35.769913642692266 2.4782502182866764 35.68055248748101 2.517393867060271 35.608578085988476 2.561019479145272 35.554145260459826 2.6084193610540747 35.51734916182654 2.6588795475912796 35.49829697680829 2.7116672284082117 35.483656481661725 2.8860722891199444 35.40568558565624 3.721287507537391 35.30830162225317 4.5544623303518526 35.28636133639459 4.728100152143201 35.294022009485936 4.783695467483502 35.31952276237852 4.840703316959793 35.3629111104783 4.898384618515602 35.42424242384092 4.9560212258169996 35.50351240120832 5.012888720822257 35.60070679610345 5.068261640205018 35.71579147161138 5.121412430069656 36.24704722756554 5.303511334694497 36.56151426067382 5.424776393091716 36.928831141274024 5.5843053786276835 37.34615273458056 5.786686025825209 37.8114358550917 6.036912120122768 38.31854744144763 6.337657228118857 38.86517940068623 6.6935655297064525 39.4481641098171 7.108848991717163 40.03522890625233 7.564713163434913 A40.74366543152521 40.74366543152521 0 0 1 39.650847550915394 9.373085261275167 L38.929120509887106 9.550757140079883 38.22762647572238 9.69301621687745 37.583492384527126 9.795819381031432 36.997898842645945 9.86430284405024 36.47106543978065 9.903648061362889 36.00750756877467 9.918791998380412 35.60706061693671 9.915127743518724 35.27045774448742 9.898003621383802 34.711065164614126 9.848278065754027 34.584311708213214 9.85002457381942 34.47299801490139 9.861077730892521 34.377451193131414 9.88078676815098 34.29797933022569 9.908494736432559 34.23488100294146 9.94354159640507 34.188397724645014 9.985248767716675 34.15878669960768 10.032921739055142 34.108205283346756 10.200471700645824 33.85828723023403 11.001224401814135 33.58980455392324 11.795945091252246 33.5322423828327 11.961226868104218 33.52817673582305 12.017200035911594 33.54126763770734 12.078264031750846 33.57171522936591 12.143705803290079 33.61972298190438 12.212834409497674 33.6854373030374 12.28494036832235 33.76899508991446 12.359311107542878 33.87051421855472 12.435227874598148 34.352300270460695 12.723801763730288 34.63468302107695 12.907798262214357 34.960805205427846 13.140210630375355 35.32693001810741 13.424934812945695 35.7300206557452 13.766430667018277 36.16352221333492 14.166038200189618 36.62421145598943 14.627820226369089 37.10811426373498 15.155238084955593 37.5875707951183 15.723198165228245 A40.74366543152521 40.74366543152521 0 0 1 36.835607394139046 17.412135616457736 L36.09271175983947 17.435869449019346 35.376969728201 17.429171012929732 34.72553753266685 17.395804673281027 34.138502102081254 17.34103986489834 33.61500094242509 17.26999047124406 33.15842432154835 17.18842437615068 32.767489937810765 17.101582591209795 32.44180295091123 17.014848999883803 31.90497296538771 16.849905809837015 31.78062625667954 16.825260627073533 31.669446954061826 16.812928827957496 31.571890320328983 16.812341874198168 31.48839429776735 16.822921227504835 31.41938816840923 16.844083349586768 31.365249252762702 16.87521470215324 31.326373531589876 16.915689426405454 31.242061844821766 17.069061551559653 30.8311192527627 17.800355000000003 30.403271844821763 18.521888448440354 30.312603531589875 18.671590573594553 30.2969892527627 18.725495297846766 30.29709816840923 18.78794665041324 30.31327429776735 18.85828877249517 30.34586032032898 18.93588812580184 30.39514695406183 19.020081172042513 30.46141625667954 19.110199372926473 30.544932965387712 19.205564190162992 30.956192950911234 19.5880010001162 31.194149937810767 19.82668740879021 31.46482432154835 20.12182562384933 31.763750942425087 20.476449528755946 32.08703210208126 20.894290135101663 32.427977532666844 21.375295326718977 32.782589728200996 21.922768987070274 33.14626175983947 22.539270550980664 33.49715547506173 23.194503958925463 A40.74366543152521 40.74366543152521 0 0 1 32.410474437383684 24.690192092504383 L31.678878313840457 24.55895059645238 30.98016964602218 24.403587401275363 30.34991005901245 24.235509826976084 29.787089004947575 24.059890232108934 29.289799601214764 23.881551426923235 28.86015881969731 23.706840129472077 28.495822712540733 23.54061621716703 28.19528569533802 23.388063830784862 27.70448035052772 23.115111815211346 27.587974937364546 23.065152054366465 27.481789094462815 23.02997425785719 27.386486341789897 23.009116965775878 27.30261533641667 23.00210533560276 27.230717303965758 23.008457833512 27.171288881370234 23.027652777841386 27.12484751962358 23.059160315338254 27.010490387632405 23.19165150622562 26.45648341982132 23.821524669105866 25.887970265016914 24.43833640254999 25.768158450006737 24.565916174786686 25.74167795827241 24.615396560370346 25.72880012754479 24.67650584588205 25.729997820127828 24.748674030232753 25.745737947161594 24.831352666535974 25.776442831096627 24.923953160068876 25.822527362935208 25.025880224802528 25.88439157078312 25.1365251920959 26.20715145511245 25.596110599139802 26.39028281612344 25.879055176600236 26.593679629838583 26.224020282329107 26.81234353117109 26.633045143253288 27.041686274893564 27.10896886235315 27.275174627120734 27.650349477423767 27.50821152097159 28.259587545919448 27.735758563628345 28.93822873850812 27.94275372355949 29.65209863003915 A40.74366543152521 40.74366543152521 0 0 1 26.568848225003336 30.88916869742215 L25.880525873403002 30.60868775590058 25.22938749096474 30.311449918780724 24.647845880752808 30.01600690635343 24.13383718398634 29.72720794401382 23.68449346937932 29.44937398884785 23.300565891018657 29.189153211095356 22.978751296604443 28.9508119540247 22.71649915888691 28.73910804389882 22.2931690035034 28.37007651564823 22.189596731495453 28.296985658004395 22.09304517918071 28.240499302611138 22.004161495172873 28.20028323595619 21.923581072380607 28.17598706418739 21.851933425860032 28.167252303282638 21.789812803552152 28.17367192820018 21.737835511590376 28.19483524836314 21.598430889790556 28.30065500417863 20.92557230914117 28.801579401814134 20.241240160367035 29.28671178771944 20.097521194815393 29.38659335879622 20.06133181473019 29.42948687542809 20.03603006062591 29.48658332487328 20.022196971520827 29.557423475535252 20.02040328394584 29.64156794169247 20.031184467316717 29.738528796603735 20.055070113196702 29.8478100233579 20.092578057443994 29.96889942470394 20.312731684860182 30.485547341215263 20.433033700744687 30.800384051708377 20.560263527671836 31.18009941766042 20.68910804770608 31.62564888546073 20.814488997085594 32.1388555670547 20.9303157095606 32.71695067486762 21.03159247123179 33.36132652446582 21.113069627250873 34.07244746913489 21.16711955012893 34.81375430446445 A40.74366543152521 40.74366543152521 0 0 1 19.566035853711597 35.73814040758612 L18.951070263756183 35.320678383636356 18.375960038519114 34.89455662436118 17.868552564017488 34.48466045114181 17.4258208710855 34.09530402179516 17.04406132212297 33.7301175936849 16.722626424382383 33.39576023229668 16.457398184724187 33.095718287082654 16.244892603335472 32.83411532995363 15.907539196532463 32.38513273762026 15.821426670961388 32.29210520438536 15.738729175375545 32.216779014890406 15.66014920353517 32.15896180875273 15.586381114467645 32.11844295468052 15.518115199833918 32.09500268592735 15.456017347096354 32.088366423019366 15.4007757819929 32.09826058720442 15.242416321294687 32.17278407683938 14.48011327651507 32.52286690935152 13.709870732462612 32.855117334530476 13.548525824804221 32.92293540050633 13.504209205933785 32.957367395683676 13.46758933651849 33.007955620242434 13.439330038097697 33.07437168270299 13.420080928668053 33.15630446177318 13.410467222027611 33.25338802343339 13.411110064607998 33.365247298209404 13.422622468107976 33.49148894571788 13.530548068678625 34.042619378593315 13.582762964069367 34.37558834711641 13.628265250255364 34.773458589723035 13.66165926520124 35.23606001467305 13.677598671105367 35.76412006413658 13.67070156069482 36.35366413447228 13.635791909721494 37.005015448487164 13.567638236414101 37.717536747617736 13.46638068124899 38.45388186085706 A40.74366543152521 40.74366543152521 0 0 1 11.708093827355906 39.025183891314306 L11.193361946258769 38.488985878588 10.719414954750789 37.95260376279689 10.308317757406394 37.446168858455195 9.95621256775238 36.97327170640339 9.658721908609564 36.53669320461617 9.413827938936082 36.142812280709514 9.216777800813265 35.794182920118956 9.063306289374973 35.494114220523606 8.826673593831003 34.98480325784992 8.761784345278004 34.87590479862194 8.696555183804769 34.785030890961394 8.631713245969818 34.71213943468695 8.567981510097855 34.65716876666531 8.50608087539667 34.62004744228712 8.44671976637261 34.60064532808702 8.390628249600944 34.59883791384182 8.220235018329843 34.63880810319581 7.401803810412715 34.82274907092 6.579314166290825 34.98759659747787 6.407394863209123 35.020387183442466 6.35688785445282 35.044852813752975 6.310550333741585 35.086721865262845 6.269099892949235 35.14581113889284 6.233236640114484 35.22195137527355 6.2036482085745925 35.31491462617953 6.181020152549916 35.42446316190934 6.166033868026995 35.55033968980949 6.157014575122675 36.111865594515145 6.138860308536215 36.448414479381384 6.100646385730535 36.84705075984743 6.037130416892649 37.30648623986893 5.94293165079762 37.826320899127204 5.813612154322469 38.4015480271657 5.6440418099672485 39.03140762764445 5.429235949894526 39.714188681407975 5.177096357734619 40.41339025773262 A40.74366543152521 40.74366543152521 0 0 1 3.3384519190773134 40.60663957538319 L2.94645 39.97514 2.59438 39.35194 2.29756 38.7711 2.05147 38.23533 1.85125 37.74644 1.6936 37.31025 1.57334 36.92827 1.48561 36.60285 1.36004 36.05547 1.31921 35.93546 1.2743 35.83301 1.22603 35.74823 1.17512 35.68121 1.12229 35.63203 1.06826 35.60071 1.01377 35.58728 0.83879 35.59095 0 35.60071 -0.83879 35.59095 -1.01377 35.58728 -1.06826 35.60071 -1.12229 35.63203 -1.17512 35.68121 -1.22603 35.74823 -1.2743 35.83301 -1.31921 35.93546 -1.36004 36.05547 -1.48561 36.60285 -1.57334 36.92827 -1.6936 37.31025 -1.85125 37.74644 -2.05147 38.23533 -2.29756 38.7711 -2.59438 39.35194 -2.94645 39.97514 -3.3384519190773134 40.60663957538319 A40.74366543152521 40.74366543152521 0 0 1 -5.177096357734619 40.41339025773262 L-5.429235949894526 39.714188681407975 -5.6440418099672485 39.03140762764445 -5.813612154322469 38.4015480271657 -5.94293165079762 37.826320899127204 -6.037130416892649 37.30648623986893 -6.100646385730535 36.84705075984743 -6.138860308536215 36.448414479381384 -6.157014575122675 36.111865594515145 -6.166033868026995 35.55033968980949 -6.181020152549916 35.42446316190934 -6.2036482085745925 35.31491462617953 -6.233236640114484 35.22195137527355 -6.269099892949235 35.14581113889284 -6.310550333741585 35.086721865262845 -6.35688785445282 35.044852813752975 -6.407394863209123 35.020387183442466 -6.579314166290825 34.98759659747787 -7.401803810412715 34.82274907092 -8.220235018329843 34.63880810319581 -8.390628249600944 34.59883791384182 -8.44671976637261 34.60064532808702 -8.50608087539667 34.62004744228712 -8.567981510097855 34.65716876666531 -8.631713245969818 34.71213943468695 -8.696555183804769 34.785030890961394 -8.761784345278004 34.87590479862194 -8.826673593831003 34.98480325784992 -9.063306289374973 35.494114220523606 -9.216777800813265 35.794182920118956 -9.413827938936082 36.142812280709514 -9.658721908609564 36.53669320461617 -9.95621256775238 36.97327170640339 -10.308317757406394 37.446168858455195 -10.719414954750789 37.95260376279689 -11.193361946258769 38.488985878588 -11.708093827355906 39.025183891314306 A40.74366543152521 40.74366543152521 0 0 1 -13.46638068124899 38.45388186085706 L-13.567638236414101 37.717536747617736 -13.635791909721494 37.005015448487164 -13.67070156069482 36.35366413447228 -13.677598671105367 35.76412006413658 -13.66165926520124 35.23606001467305 -13.628265250255364 34.773458589723035 -13.582762964069367 34.37558834711641 -13.530548068678625 34.042619378593315 -13.422622468107976 33.49148894571788 -13.411110064607998 33.365247298209404 -13.410467222027611 33.25338802343339 -13.420080928668053 33.15630446177318 -13.439330038097697 33.07437168270299 -13.46758933651849 33.007955620242434 -13.504209205933785 32.957367395683676 -13.548525824804221 32.92293540050633 -13.709870732462612 32.855117334530476 -14.48011327651507 32.52286690935152 -15.242416321294687 32.17278407683938 -15.4007757819929 32.09826058720442 -15.456017347096354 32.088366423019366 -15.518115199833918 32.09500268592735 -15.586381114467645 32.11844295468052 -15.66014920353517 32.15896180875273 -15.738729175375545 32.216779014890406 -15.821426670961388 32.29210520438536 -15.907539196532463 32.38513273762026 -16.244892603335472 32.83411532995363 -16.457398184724187 33.095718287082654 -16.722626424382383 33.39576023229668 -17.04406132212297 33.7301175936849 -17.4258208710855 34.09530402179516 -17.868552564017488 34.48466045114181 -18.375960038519114 34.89455662436118 -18.951070263756183 35.320678383636356 -19.566035853711597 35.73814040758612 A40.74366543152521 40.74366543152521 0 0 1 -21.16711955012892 34.81375430446446 L-21.113069627250862 34.0724474691349 -21.031592471231782 33.36132652446582 -20.930315709560592 32.71695067486762 -20.814488997085583 32.138855567054705 -20.68910804770607 31.625648885460738 -20.56026352767183 31.180099417660422 -20.433033700744677 30.80038405170838 -20.312731684860175 30.485547341215266 -20.092578057443983 29.968899424703945 -20.05507011319669 29.847810023357905 -20.03118446731671 29.738528796603738 -20.020403283945832 29.641567941692472 -20.022196971520817 29.557423475535256 -20.036030060625905 29.486583324873283 -20.06133181473018 29.429486875428093 -20.097521194815386 29.386593358796222 -20.241240160367028 29.28671178771944 -20.925572309141163 28.801579401814138 -21.59843088979055 28.300655004178637 -21.73783551159037 28.194835248363145 -21.789812803552145 28.173671928200182 -21.851933425860025 28.16725230328264 -21.923581072380596 28.175987064187392 -22.004161495172866 28.200283235956192 -22.093045179180702 28.24049930261114 -22.189596731495442 28.2969856580044 -22.29316900350339 28.370076515648233 -22.716499158886904 28.739108043898824 -22.97875129660444 28.950811954024704 -23.30056589101865 29.18915321109536 -23.684493469379312 29.449373988847857 -24.13383718398633 29.727207944013823 -24.6478458807528 30.016006906353432 -25.229387490964733 30.311449918780728 -25.88052587340299 30.60868775590059 -26.568848225003325 30.88916869742216 A40.74366543152521 40.74366543152521 0 0 1 -27.942753723559495 29.65209863003915 L-27.735758563628345 28.93822873850812 -27.508211520971592 28.259587545919448 -27.275174627120737 27.650349477423767 -27.041686274893564 27.10896886235315 -26.8123435311711 26.633045143253288 -26.59367962983859 26.224020282329107 -26.390282816123445 25.879055176600236 -26.207151455112452 25.596110599139806 -25.884391570783123 25.1365251920959 -25.82252736293521 25.025880224802528 -25.77644283109663 24.923953160068876 -25.745737947161597 24.831352666535974 -25.72999782012783 24.748674030232753 -25.728800127544794 24.67650584588205 -25.741677958272412 24.615396560370346 -25.76815845000674 24.565916174786686 -25.887970265016918 24.43833640254999 -26.456483419821325 23.821524669105866 -27.01049038763241 23.19165150622562 -27.124847519623582 23.059160315338254 -27.171288881370238 23.027652777841386 -27.23071730396576 23.008457833512 -27.302615336416675 23.00210533560276 -27.3864863417899 23.009116965775878 -27.48178909446282 23.02997425785719 -27.58797493736455 23.065152054366465 -27.704480350527724 23.115111815211346 -28.195285695338022 23.38806383078486 -28.495822712540736 23.54061621716703 -28.86015881969731 23.706840129472077 -29.28979960121477 23.881551426923235 -29.787089004947582 24.059890232108934 -30.349910059012455 24.235509826976084 -30.980169646022183 24.403587401275363 -31.678878313840464 24.55895059645238 -32.41047443738369 24.690192092504383 A40.74366543152521 40.74366543152521 0 0 1 -33.49715547506173 23.194503958925463 L-33.14626175983947 22.539270550980664 -32.782589728200996 21.922768987070274 -32.427977532666844 21.375295326718977 -32.08703210208126 20.894290135101663 -31.763750942425087 20.476449528755946 -31.46482432154835 20.12182562384933 -31.194149937810767 19.82668740879021 -30.956192950911234 19.5880010001162 -30.544932965387712 19.205564190162992 -30.46141625667954 19.110199372926473 -30.39514695406183 19.020081172042513 -30.34586032032898 18.93588812580184 -30.31327429776735 18.85828877249517 -30.29709816840923 18.78794665041324 -30.2969892527627 18.725495297846766 -30.312603531589875 18.671590573594553 -30.403271844821763 18.521888448440354 -30.8311192527627 17.800355000000003 -31.242061844821766 17.069061551559653 -31.326373531589876 16.915689426405454 -31.365249252762702 16.87521470215324 -31.41938816840923 16.844083349586768 -31.48839429776735 16.822921227504835 -31.571890320328983 16.812341874198168 -31.669446954061826 16.812928827957496 -31.78062625667954 16.825260627073533 -31.90497296538771 16.849905809837015 -32.44180295091123 17.014848999883803 -32.767489937810765 17.101582591209795 -33.15842432154835 17.18842437615068 -33.61500094242509 17.26999047124406 -34.138502102081254 17.34103986489834 -34.72553753266685 17.395804673281027 -35.376969728201 17.429171012929732 -36.09271175983947 17.435869449019346 -36.835607394139046 17.412135616457736 A40.74366543152521 40.74366543152521 0 0 1 -37.5875707951183 15.723198165228254 L-37.10811426373498 15.155238084955602 -36.62421145598943 14.6278202263691 -36.16352221333492 14.166038200189625 -35.7300206557452 13.766430667018286 -35.32693001810741 13.424934812945702 -34.960805205427846 13.140210630375364 -34.63468302107695 12.907798262214364 -34.352300270460695 12.723801763730295 -33.87051421855472 12.435227874598155 -33.76899508991446 12.359311107542887 -33.6854373030374 12.284940368322358 -33.61972298190438 12.212834409497683 -33.57171522936591 12.143705803290088 -33.54126763770734 12.078264031750855 -33.52817673582305 12.017200035911603 -33.5322423828327 11.961226868104225 -33.58980455392324 11.795945091252257 -33.85828723023403 11.001224401814143 -34.108205283346756 10.200471700645831 -34.15878669960768 10.03292173905515 -34.188397724645014 9.985248767716683 -34.23488100294146 9.94354159640508 -34.29797933022569 9.908494736432568 -34.377451193131414 9.880786768150989 -34.47299801490139 9.86107773089253 -34.584311708213214 9.850024573819429 -34.711065164614126 9.848278065754034 -35.27045774448742 9.89800362138381 -35.60706061693671 9.915127743518731 -36.00750756877467 9.91879199838042 -36.47106543978065 9.903648061362896 -36.997898842645945 9.864302844050249 -37.583492384527126 9.79581938103144 -38.22762647572238 9.693016216877457 -38.929120509887106 9.550757140079892 -39.650847550915394 9.373085261275175 A40.74366543152521 40.74366543152521 0 0 1 -40.03522890625233 7.564713163434904 L-39.4481641098171 7.108848991717154 -38.86517940068623 6.693565529706444 -38.31854744144763 6.337657228118848 -37.81143585509171 6.03691212012276 -37.34615273458056 5.786686025825201 -36.928831141274024 5.5843053786276755 -36.56151426067382 5.424776393091708 -36.24704722756554 5.303511334694489 -35.71579147161138 5.121412430069647 -35.60070679610345 5.06826164020501 -35.50351240120832 5.01288872082225 -35.42424242384092 4.956021225816992 -35.3629111104783 4.898384618515594 -35.31952276237852 4.840703316959786 -35.294022009485936 4.783695467483494 -35.28636133639459 4.728100152143194 -35.308301622253175 4.554462330351845 -35.40568558565624 3.721287507537383 -35.48365648166172 2.886072289119937 -35.49829697680829 2.711667228408204 -35.51734916182654 2.6588795475912717 -35.554145260459826 2.6084193610540667 -35.608578085988476 2.561019479145264 -35.68055248748101 2.517393867060263 -35.769913642692266 2.4782502182866684 -35.87649678415809 2.4442951810274502 -36.000117253976455 2.4162333129163147 -36.55762428819566 2.3485679887383686 -36.89043188546887 2.29533423537427 -37.28288995205423 2.2156608146362604 -37.73316936982905 2.104468708224169 -38.24030986817109 1.956448454740456 -38.79886827357809 1.7677097762741893 -39.4075525097509 1.5332300998953614 -40.06413989100706 1.2482309145014563 -40.73315540384053 0.924386103121666 A40.74366543152521 40.74366543152521 0 0 1 -40.733155403840534 -0.9243861031216603 L-40.064139891007066 -1.2482309145014505 -39.40755250975091 -1.5332300998953565 -38.798868273578094 -1.7677097762741836 -38.240309868171096 -1.9564484547404515 -37.73316936982905 -2.1044687082241644 -37.28288995205423 -2.215660814636255 -36.89043188546887 -2.295334235374265 -36.55762428819566 -2.3485679887383637 -36.000117253976455 -2.41623331291631 -35.87649678415809 -2.444295181027446 -35.769913642692266 -2.4782502182866635 -35.680552487481016 -2.5173938670602585 -35.608578085988476 -2.5610194791452594 -35.55414526045983 -2.608419361054062 -35.517349161826544 -2.6588795475912668 -35.4982969768083 -2.7116672284081993 -35.48365648166172 -2.8860722891199324 -35.405685585656244 -3.7212875075373786 -35.308301622253175 -4.554462330351841 -35.2863613363946 -4.728100152143189 -35.29402200948594 -4.78369546748349 -35.319522762378526 -4.8407033169597815 -35.3629111104783 -4.89838461851559 -35.42424242384093 -4.956021225816987 -35.50351240120832 -5.012888720822246 -35.60070679610345 -5.068261640205005 -35.71579147161138 -5.121412430069643 -36.24704722756554 -5.303511334694486 -36.56151426067382 -5.424776393091703 -36.928831141274024 -5.584305378627671 -37.34615273458056 -5.786686025825197 -37.811435855091716 -6.036912120122755 -38.318547441447635 -6.337657228118844 -38.86517940068624 -6.693565529706439 -39.44816410981711 -7.108848991717149 -40.035228906252335 -7.564713163434899 A40.74366543152521 40.74366543152521 0 0 1 -39.6508475509154 -9.373085261275154 L-38.92912050988711 -9.550757140079869 -38.22762647572238 -9.693016216877435 -37.58349238452713 -9.795819381031418 -36.997898842645945 -9.864302844050227 -36.47106543978066 -9.903648061362876 -36.00750756877467 -9.9187919983804 -35.60706061693671 -9.915127743518712 -35.27045774448742 -9.89800362138379 -34.711065164614126 -9.848278065754014 -34.584311708213214 -9.850024573819407 -34.4729980149014 -9.86107773089251 -34.377451193131414 -9.88078676815097 -34.29797933022569 -9.908494736432544 -34.234881002941464 -9.94354159640506 -34.18839772464502 -9.985248767716662 -34.15878669960769 -10.03292173905513 -34.108205283346756 -10.200471700645812 -33.85828723023404 -11.001224401814124 -33.58980455392324 -11.795945091252237 -33.532242382832706 -11.961226868104205 -33.52817673582306 -12.017200035911586 -33.54126763770735 -12.078264031750836 -33.57171522936591 -12.143705803290068 -33.61972298190438 -12.212834409497663 -33.68543730303741 -12.284940368322339 -33.76899508991446 -12.359311107542865 -33.87051421855472 -12.435227874598136 -34.352300270460695 -12.723801763730275 -34.63468302107695 -12.907798262214344 -34.960805205427846 -13.140210630375343 -35.32693001810742 -13.424934812945683 -35.7300206557452 -13.766430667018264 -36.16352221333493 -14.166038200189604 -36.62421145598943 -14.627820226369078 -37.10811426373499 -15.15523808495558 -37.58757079511831 -15.723198165228233 A40.74366543152521 40.74366543152521 0 0 1 -36.835607394139046 -17.412135616457743 L-36.09271175983947 -17.43586944901935 -35.376969728201 -17.429171012929736 -34.72553753266685 -17.39580467328103 -34.138502102081254 -17.34103986489834 -33.61500094242509 -17.269990471244064 -33.15842432154835 -17.188424376150685 -32.767489937810765 -17.101582591209798 -32.44180295091123 -17.014848999883807 -31.90497296538771 -16.84990580983702 -31.78062625667954 -16.825260627073536 -31.66944695406183 -16.8129288279575 -31.571890320328983 -16.81234187419817 -31.48839429776735 -16.82292122750484 -31.41938816840923 -16.844083349586768 -31.365249252762702 -16.875214702153244 -31.326373531589876 -16.915689426405457 -31.242061844821766 -17.069061551559656 -30.8311192527627 -17.800355000000007 -30.403271844821763 -18.521888448440357 -30.312603531589875 -18.671590573594557 -30.2969892527627 -18.72549529784677 -30.29709816840923 -18.787946650413247 -30.31327429776735 -18.858288772495175 -30.34586032032898 -18.935888125801842 -30.395146954061826 -19.020081172042516 -30.46141625667954 -19.110199372926477 -30.544932965387712 -19.205564190162995 -30.956192950911234 -19.588001000116204 -31.194149937810767 -19.826687408790214 -31.46482432154835 -20.121825623849332 -31.763750942425087 -20.47644952875595 -32.08703210208126 -20.89429013510167 -32.427977532666844 -21.37529532671898 -32.782589728200996 -21.922768987070278 -33.14626175983947 -22.539270550980667 -33.49715547506173 -23.19450395892547 A40.74366543152521 40.74366543152521 0 0 1 -32.4104744373837 -24.69019209250437 L-31.678878313840467 -24.558950596452366 -30.98016964602219 -24.403587401275352 -30.349910059012466 -24.235509826976074 -29.78708900494759 -24.05989023210892 -29.289799601214778 -23.88155142692322 -28.86015881969732 -23.706840129472067 -28.495822712540747 -23.540616217167017 -28.195285695338026 -23.388063830784848 -27.70448035052773 -23.115111815211336 -27.587974937364557 -23.065152054366447 -27.481789094462826 -23.029974257857177 -27.386486341789908 -23.009116965775867 -27.302615336416686 -23.00210533560275 -27.23071730396577 -23.00845783351199 -27.171288881370245 -23.027652777841375 -27.12484751962359 -23.059160315338236 -27.010490387632416 -23.19165150622561 -26.456483419821332 -23.821524669105855 -25.887970265016925 -24.43833640254998 -25.768158450006748 -24.565916174786675 -25.74167795827242 -24.615396560370336 -25.7288001275448 -24.67650584588204 -25.729997820127842 -24.748674030232742 -25.745737947161604 -24.831352666535963 -25.776442831096638 -24.923953160068862 -25.82252736293522 -25.025880224802517 -25.88439157078313 -25.13652519209589 -26.207151455112463 -25.596110599139795 -26.390282816123456 -25.87905517660022 -26.5936796298386 -26.224020282329096 -26.812343531171106 -26.633045143253273 -27.04168627489358 -27.108968862353137 -27.275174627120748 -27.650349477423756 -27.508211520971606 -28.259587545919437 -27.735758563628355 -28.938228738508105 -27.942753723559505 -29.652098630039134 A40.74366543152521 40.74366543152521 0 0 1 -26.56884822500334 -30.889168697422143 L-25.880525873403005 -30.60868775590058 -25.229387490964744 -30.311449918780717 -24.64784588075281 -30.016006906353425 -24.133837183986344 -29.727207944013813 -23.684493469379323 -29.449373988847846 -23.300565891018664 -29.189153211095352 -22.978751296604447 -28.950811954024697 -22.71649915888692 -28.739108043898817 -22.293169003503404 -28.370076515648226 -22.189596731495456 -28.29698565800439 -22.093045179180713 -28.240499302611134 -22.004161495172877 -28.200283235956185 -21.92358107238061 -28.17598706418738 -21.851933425860036 -28.167252303282634 -21.789812803552156 -28.17367192820017 -21.73783551159038 -28.194835248363137 -21.59843088979056 -28.300655004178626 -20.925572309141174 -28.80157940181413 -20.241240160367038 -29.286711787719437 -20.097521194815396 -29.386593358796215 -20.061331814730192 -29.42948687542809 -20.036030060625915 -29.486583324873276 -20.02219697152083 -29.557423475535245 -20.020403283945843 -29.641567941692465 -20.03118446731672 -29.73852879660373 -20.055070113196706 -29.847810023357898 -20.092578057443998 -29.968899424703938 -20.31273168486019 -30.48554734121526 -20.43303370074469 -30.800384051708374 -20.560263527671843 -31.180099417660415 -20.689108047706082 -31.625648885460727 -20.814488997085597 -32.13885556705469 -20.930315709560602 -32.71695067486761 -21.031592471231793 -33.36132652446581 -21.113069627250876 -34.07244746913489 -21.167119550128934 -34.813754304464446 A40.74366543152521 40.74366543152521 0 0 1 -19.566035853711593 -35.73814040758612 L-18.95107026375618 -35.320678383636356 -18.375960038519107 -34.89455662436118 -17.868552564017484 -34.48466045114181 -17.425820871085495 -34.09530402179516 -17.044061322122968 -33.7301175936849 -16.72262642438238 -33.39576023229668 -16.457398184724184 -33.095718287082654 -16.244892603335472 -32.83411532995363 -15.90753919653246 -32.38513273762026 -15.821426670961385 -32.29210520438536 -15.738729175375541 -32.216779014890406 -15.660149203535166 -32.158961808752736 -15.586381114467642 -32.11844295468052 -15.518115199833913 -32.095002685927355 -15.45601734709635 -32.088366423019366 -15.400775781992897 -32.09826058720442 -15.242416321294684 -32.17278407683938 -14.480113276515064 -32.52286690935152 -13.709870732462608 -32.855117334530476 -13.548525824804218 -32.92293540050633 -13.50420920593378 -32.957367395683676 -13.467589336518484 -33.00795562024243 -13.439330038097694 -33.07437168270299 -13.42008092866805 -33.156304461773175 -13.410467222027608 -33.25338802343339 -13.411110064607994 -33.365247298209404 -13.422622468107972 -33.49148894571788 -13.530548068678621 -34.042619378593315 -13.582762964069364 -34.37558834711641 -13.62826525025536 -34.773458589723035 -13.661659265201237 -35.23606001467305 -13.677598671105361 -35.76412006413658 -13.670701560694816 -36.35366413447228 -13.635791909721487 -37.005015448487164 -13.567638236414098 -37.717536747617736 -13.466380681248987 -38.45388186085706 A40.74366543152521 40.74366543152521 0 0 1 -11.70809382735592 -39.025183891314306 L-11.193361946258781 -38.488985878588 -10.719414954750802 -37.95260376279689 -10.308317757406407 -37.446168858455195 -9.956212567752393 -36.97327170640339 -9.658721908609577 -36.53669320461617 -9.413827938936095 -36.142812280709514 -9.216777800813277 -35.794182920118956 -9.063306289374985 -35.494114220523606 -8.826673593831016 -34.98480325784992 -8.761784345278015 -34.87590479862194 -8.696555183804781 -34.78503089096139 -8.63171324596983 -34.71213943468695 -8.567981510097866 -34.65716876666531 -8.506080875396682 -34.62004744228712 -8.446719766372622 -34.60064532808702 -8.390628249600955 -34.59883791384182 -8.220235018329854 -34.63880810319581 -7.401803810412727 -34.82274907092 -6.579314166290836 -34.98759659747787 -6.407394863209134 -35.020387183442466 -6.356887854452832 -35.044852813752975 -6.310550333741597 -35.086721865262845 -6.269099892949248 -35.14581113889284 -6.2332366401144945 -35.22195137527355 -6.203648208574604 -35.31491462617954 -6.181020152549928 -35.42446316190934 -6.166033868027007 -35.55033968980949 -6.1570145751226875 -36.111865594515145 -6.138860308536225 -36.448414479381384 -6.100646385730547 -36.84705075984743 -6.037130416892661 -37.30648623986893 -5.942931650797632 -37.826320899127204 -5.813612154322481 -38.4015480271657 -5.644041809967261 -39.03140762764445 -5.429235949894538 -39.714188681407975 -5.177096357734634 -40.41339025773262 A40.74366543152521 40.74366543152521 0 0 1 -3.3384519190773183 -40.60663957538319 L-2.946450000000005 -39.97514 -2.594380000000005 -39.35194 -2.2975600000000047 -38.7711 -2.051470000000005 -38.23533 -1.8512500000000047 -37.74644 -1.6936000000000047 -37.31025 -1.5733400000000044 -36.92827 -1.4856100000000045 -36.60285 -1.3600400000000044 -36.05547 -1.3192100000000044 -35.93546 -1.2743000000000044 -35.83301 -1.2260300000000044 -35.74823 -1.1751200000000044 -35.68121 -1.1222900000000045 -35.63203 -1.0682600000000044 -35.60071 -1.0137700000000045 -35.58728 -0.8387900000000044 -35.59095 -4.3598295548873165e-15 -35.60071 0.8387899999999957 -35.59095 1.0137699999999956 -35.58728 1.0682599999999955 -35.60071 1.1222899999999956 -35.63203 1.1751199999999955 -35.68121 1.2260299999999955 -35.74823 1.2742999999999955 -35.83301 1.3192099999999956 -35.93546 1.3600399999999955 -36.05547 1.4856099999999957 -36.60285 1.5733399999999955 -36.92827 1.6935999999999953 -37.31025 1.8512499999999954 -37.74644 2.0514699999999952 -38.23533 2.297559999999995 -38.7711 2.5943799999999952 -39.35194 2.946449999999995 -39.97514 3.3384519190773085 -40.60663957538319 A40.74366543152521 40.74366543152521 0 0 1 5.177096357734625 -40.41339025773262 L5.4292359498945295 -39.714188681407975 5.644041809967252 -39.03140762764445 5.813612154322472 -38.4015480271657 5.9429316507976235 -37.826320899127204 6.037130416892653 -37.30648623986893 6.100646385730538 -36.84705075984743 6.138860308536218 -36.448414479381384 6.1570145751226795 -36.111865594515145 6.166033868026998 -35.55033968980949 6.1810201525499195 -35.42446316190934 6.203648208574596 -35.31491462617953 6.233236640114487 -35.22195137527355 6.269099892949239 -35.14581113889284 6.310550333741589 -35.086721865262845 6.3568878544528244 -35.044852813752975 6.407394863209126 -35.020387183442466 6.579314166290828 -34.98759659747787 7.401803810412719 -34.82274907092 8.220235018329847 -34.63880810319581 8.390628249600947 -34.59883791384182 8.446719766372615 -34.60064532808702 8.506080875396675 -34.62004744228712 8.567981510097859 -34.65716876666531 8.631713245969822 -34.71213943468695 8.696555183804772 -34.785030890961394 8.761784345278008 -34.87590479862194 8.826673593831009 -34.98480325784992 9.063306289374978 -35.494114220523606 9.216777800813269 -35.794182920118956 9.413827938936086 -36.142812280709514 9.658721908609568 -36.53669320461617 9.956212567752385 -36.97327170640339 10.308317757406398 -37.446168858455195 10.719414954750793 -37.95260376279689 11.193361946258772 -38.488985878588 11.708093827355912 -39.025183891314306 A40.74366543152521 40.74366543152521 0 0 1 13.466380681248976 -38.45388186085706 L13.567638236414089 -37.71753674761774 13.635791909721478 -37.00501544848717 13.670701560694807 -36.35366413447229 13.677598671105352 -35.764120064136584 13.661659265201228 -35.23606001467306 13.628265250255351 -34.773458589723035 13.582762964069355 -34.37558834711641 13.530548068678613 -34.04261937859332 13.422622468107965 -33.49148894571788 13.411110064607985 -33.36524729820941 13.4104672220276 -33.253388023433395 13.42008092866804 -33.15630446177318 13.439330038097685 -33.07437168270299 13.467589336518477 -33.00795562024243 13.504209205933773 -32.95736739568368 13.54852582480421 -32.92293540050634 13.7098707324626 -32.85511733453048 14.480113276515057 -32.52286690935153 15.242416321294675 -32.172784076839385 15.40077578199289 -32.09826058720443 15.456017347096342 -32.08836642301937 15.518115199833906 -32.095002685927355 15.586381114467633 -32.11844295468052 15.660149203535157 -32.15896180875274 15.738729175375534 -32.21677901489041 15.821426670961376 -32.292105204385365 15.907539196532452 -32.38513273762026 16.24489260333546 -32.83411532995364 16.457398184724173 -33.095718287082654 16.72262642438237 -33.39576023229668 17.04406132212296 -33.73011759368491 17.425820871085484 -34.095304021795165 17.868552564017477 -34.484660451141814 18.3759600385191 -34.894556624361186 18.951070263756172 -35.32067838363636 19.566035853711583 -35.73814040758612 A40.74366543152521 40.74366543152521 0 0 1 21.167119550128927 -34.81375430446445 L21.113069627250866 -34.07244746913489 21.031592471231786 -33.36132652446582 20.930315709560595 -32.71695067486762 20.814488997085586 -32.1388555670547 20.689108047706075 -31.62564888546073 20.560263527671832 -31.18009941766042 20.43303370074468 -30.800384051708377 20.31273168486018 -30.485547341215263 20.09257805744399 -29.96889942470394 20.0550701131967 -29.8478100233579 20.031184467316713 -29.738528796603735 20.020403283945836 -29.64156794169247 20.02219697152082 -29.557423475535252 20.036030060625908 -29.48658332487328 20.061331814730185 -29.42948687542809 20.09752119481539 -29.38659335879622 20.24124016036703 -29.28671178771944 20.925572309141167 -28.801579401814134 21.598430889790553 -28.30065500417863 21.737835511590372 -28.19483524836314 21.78981280355215 -28.17367192820018 21.85193342586003 -28.167252303282638 21.9235810723806 -28.17598706418739 22.00416149517287 -28.20028323595619 22.093045179180706 -28.240499302611138 22.18959673149545 -28.296985658004395 22.293169003503397 -28.37007651564823 22.716499158886908 -28.73910804389882 22.978751296604443 -28.9508119540247 23.300565891018653 -29.189153211095356 23.684493469379316 -29.44937398884785 24.133837183986333 -29.72720794401382 24.647845880752804 -30.01600690635343 25.229387490964736 -30.311449918780724 25.880525873402995 -30.60868775590058 26.568848225003332 -30.889168697422154 A40.74366543152521 40.74366543152521 0 0 1 27.942753723559502 -29.65209863003914 L27.73575856362835 -28.938228738508116 27.5082115209716 -28.259587545919445 27.275174627120744 -27.650349477423763 27.041686274893575 -27.108968862353144 26.812343531171102 -26.633045143253284 26.593679629838594 -26.224020282329104 26.39028281612345 -25.879055176600232 26.207151455112456 -25.5961105991398 25.884391570783126 -25.136525192095895 25.822527362935215 -25.025880224802528 25.776442831096634 -24.92395316006887 25.7457379471616 -24.83135266653597 25.729997820127835 -24.74867403023275 25.728800127544798 -24.676505845882048 25.741677958272415 -24.615396560370343 25.768158450006744 -24.565916174786683 25.88797026501692 -24.438336402549986 26.45648341982133 -23.821524669105862 27.010490387632412 -23.191651506225618 27.124847519623586 -23.059160315338243 27.17128888137024 -23.027652777841382 27.230717303965765 -23.008457833511997 27.30261533641668 -23.002105335602756 27.386486341789904 -23.009116965775874 27.481789094462822 -23.029974257857184 27.587974937364553 -23.065152054366457 27.704480350527728 -23.115111815211343 28.195285695338026 -23.38806383078486 28.49582271254074 -23.540616217167027 28.860158819697315 -23.706840129472074 29.289799601214774 -23.88155142692323 29.787089004947585 -24.059890232108927 30.349910059012462 -24.23550982697608 30.98016964602219 -24.40358740127536 31.678878313840464 -24.558950596452377 32.4104744373837 -24.690192092504375 A40.74366543152521 40.74366543152521 0 0 1 33.49715547506173 -23.194503958925477 L33.14626175983946 -22.539270550980678 32.782589728200996 -21.922768987070288 32.42797753266684 -21.37529532671899 32.08703210208125 -20.894290135101677 31.76375094242508 -20.47644952875596 31.46482432154835 -20.121825623849343 31.194149937810764 -19.826687408790225 30.95619295091123 -19.588001000116215 30.54493296538771 -19.205564190163006 30.461416256679538 -19.110199372926484 30.395146954061822 -19.020081172042524 30.345860320328978 -18.93588812580185 30.313274297767343 -18.858288772495182 30.297098168409224 -18.78794665041325 30.296989252762696 -18.725495297846777 30.312603531589872 -18.671590573594564 30.40327184482176 -18.521888448440365 30.831119252762697 -17.800355000000014 31.242061844821762 -17.069061551559663 31.326373531589873 -16.915689426405464 31.3652492527627 -16.87521470215325 31.419388168409224 -16.84408334958678 31.488394297767343 -16.822921227504846 31.57189032032898 -16.81234187419818 31.669446954061826 -16.812928827957506 31.780626256679536 -16.825260627073543 31.904972965387707 -16.84990580983703 32.44180295091123 -17.014848999883817 32.767489937810765 -17.10158259120981 33.15842432154835 -17.188424376150696 33.615000942425084 -17.269990471244075 34.13850210208125 -17.341039864898356 34.72553753266684 -17.39580467328104 35.376969728201 -17.429171012929746 36.09271175983946 -17.43586944901936 36.835607394139046 -17.41213561645775 A40.74366543152521 40.74366543152521 0 0 1 37.5875707951183 -15.72319816522825 L37.10811426373498 -15.155238084955597 36.62421145598943 -14.627820226369096 36.16352221333492 -14.166038200189622 35.7300206557452 -13.766430667018282 35.32693001810741 -13.424934812945699 34.960805205427846 -13.14021063037536 34.63468302107695 -12.90779826221436 34.352300270460695 -12.723801763730291 33.87051421855472 -12.435227874598151 33.76899508991446 -12.359311107542881 33.6854373030374 -12.284940368322355 33.61972298190438 -12.21283440949768 33.57171522936591 -12.143705803290082 33.54126763770734 -12.07826403175085 33.52817673582305 -12.0172000359116 33.5322423828327 -11.961226868104221 33.58980455392324 -11.795945091252253 33.85828723023403 -11.00122440181414 34.108205283346756 -10.200471700645828 34.15878669960768 -10.032921739055146 34.188397724645014 -9.98524876771668 34.23488100294146 -9.943541596405074 34.29797933022569 -9.908494736432562 34.377451193131414 -9.880786768150985 34.47299801490139 -9.861077730892527 34.584311708213214 -9.850024573819423 34.711065164614126 -9.84827806575403 35.27045774448742 -9.898003621383806 35.60706061693671 -9.915127743518727 36.00750756877467 -9.918791998380417 36.47106543978065 -9.903648061362892 36.997898842645945 -9.864302844050245 37.583492384527126 -9.795819381031436 38.22762647572238 -9.693016216877453 38.929120509887106 -9.550757140079886 39.650847550915394 -9.373085261275172 A40.74366543152521 40.74366543152521 0 0 1 40.035228906252335 -7.564713163434899 Z" />
                </g>
            </g>
        </g>
    </g>
</svg>

